{
.appVersion = "3343";
.formatVersion = 3;
axes = (
{
name = Weight;
tag = wght;
}
);
date = "2025-02-09 20:11:06 +0000";
familyName = "Nuovi Angoli";
fontMaster = (
{
axesValues = (
150
);
iconName = Bold_Condensed;
id = m01;
metricValues = (
{
over = 16;
pos = 775;
},
{
over = 16;
pos = 650;
},
{
over = 16;
pos = 500;
},
{
over = -16;
},
{
over = -16;
pos = -150;
},
{
}
);
name = "Bold-Condensed";
userData = {
GSOffsetHorizontal = -25;
GSOffsetKeepCompatible = 1;
GSOffsetVertical = -15;
};
},
{
axesValues = (
70
);
iconName = SemiLight;
id = m002;
metricValues = (
{
over = 16;
pos = 775;
},
{
over = 16;
pos = 650;
},
{
over = 16;
pos = 450;
},
{
over = -16;
},
{
over = -16;
pos = -150;
},
{
}
);
name = Regular;
userData = {
GSOffsetHorizontal = -25;
GSOffsetKeepCompatible = 1;
GSOffsetVertical = -15;
};
}
);
glyphs = (
{
glyphname = A;
kernLeft = A;
kernRight = A;
lastChange = "2025-07-16 18:32:40 +0000";
layers = (
{
anchors = (
{
name = bottom;
pos = (230,0);
},
{
name = ogonek;
pos = (414,10);
},
{
name = top;
pos = (230,650);
}
);
background = {
anchors = (
{
name = bottom;
pos = (230,0);
},
{
name = ogonek;
pos = (414,10);
},
{
name = top;
pos = (230,650);
}
);
shapes = (
{
closed = 1;
nodes = (
(5,0,l),
(145,0,l),
(168,130,l),
(292,130,l),
(315,0,l),
(455,0,l),
(331,650,l),
(129,650,l)
);
},
{
closed = 1;
nodes = (
(230,472,l),
(274,240,l),
(186,240,l)
);
}
);
};
layerId = m01;
shapes = (
{
closed = 1;
nodes = (
(5,0,l),
(145,0,l),
(259,650,l),
(129,650,l)
);
},
{
closed = 1;
nodes = (
(201,650,l),
(315,0,l),
(455,0,l),
(331,650,l)
);
},
{
closed = 1;
nodes = (
(160,135,l),
(300,135,l),
(300,245,l),
(160,245,l)
);
}
);
width = 460;
},
{
anchors = (
{
name = bottom;
pos = (256,0);
},
{
name = ogonek;
pos = (461,10);
},
{
name = top;
pos = (256,650);
}
);
layerId = m002;
shapes = (
{
closed = 1;
nodes = (
(11,0,l),
(81,0,l),
(286,650,l),
(226,650,l)
);
},
{
closed = 1;
nodes = (
(226,650,l),
(431,0,l),
(501,0,l),
(286,650,l)
);
},
{
closed = 1;
nodes = (
(125,165,l),
(385,165,l),
(385,225,l),
(125,225,l)
);
}
);
width = 512;
}
);
metricLeft = "=O*.25";
metricRight = "=O*.25";
unicode = 65;
},
{
glyphname = AE;
kernLeft = A;
kernRight = E;
lastChange = "2025-07-16 18:34:58 +0000";
layers = (
{
anchors = (
{
name = bottom;
pos = (301,0);
},
{
name = top;
pos = (301,650);
}
);
layerId = m01;
shapes = (
{
closed = 1;
nodes = (
(22,0,l),
(162,0,l),
(352,650,l),
(222,650,l)
);
},
{
closed = 1;
nodes = (
(307,650,l),
(297,0,l),
(437,0,l),
(437,650,l)
);
},
{
closed = 1;
nodes = (
(183,135,l),
(323,135,l),
(323,245,l),
(183,245,l)
);
},
{
closed = 1;
nodes = (
(437,0,l),
(437,650,l)
);
},
{
closed = 1;
nodes = (
(437,270,l),
(577,270,l),
(577,380,l),
(437,380,l)
);
},
{
closed = 1;
nodes = (
(437,540,l),
(577,540,l),
(577,650,l),
(437,650,l)
);
},
{
closed = 1;
nodes = (
(437,0,l),
(577,0,l),
(577,110,l),
(437,110,l)
);
}
);
width = 602;
},
{
anchors = (
{
name = bottom;
pos = (357,0);
},
{
name = top;
pos = (357,650);
}
);
background = {
shapes = (
{
closed = 1;
nodes = (
(44,0,l),
(114,0,l),
(399,650,l),
(344,650,l)
);
},
{
closed = 1;
nodes = (
(344,650,l),
(344,0,l),
(414,0,l),
(414,650,l)
);
},
{
closed = 1;
nodes = (
(165,160,l),
(375,160,l),
(375,220,l),
(165,220,l)
);
},
{
closed = 1;
nodes = (
(414,0,l),
(414,650,l)
);
},
{
closed = 1;
nodes = (
(414,295,l),
(654,295,l),
(654,355,l),
(414,355,l)
);
},
{
closed = 1;
nodes = (
(414,590,l),
(654,590,l),
(654,650,l),
(414,650,l)
);
},
{
closed = 1;
nodes = (
(414,0,l),
(654,0,l),
(654,60,l),
(414,60,l)
);
}
);
};
layerId = m002;
shapes = (
{
closed = 1;
nodes = (
(44,0,l),
(114,0,l),
(399,650,l),
(344,650,l)
);
},
{
closed = 1;
nodes = (
(344,650,l),
(344,0,l),
(414,0,l),
(414,650,l)
);
},
{
closed = 1;
nodes = (
(165,160,l),
(375,160,l),
(375,220,l),
(165,220,l)
);
},
{
closed = 1;
nodes = (
(414,0,l),
(414,650,l)
);
},
{
closed = 1;
nodes = (
(414,295,l),
(654,295,l),
(654,355,l),
(414,355,l)
);
},
{
closed = 1;
nodes = (
(414,590,l),
(654,590,l),
(654,650,l),
(414,650,l)
);
},
{
closed = 1;
nodes = (
(414,0,l),
(654,0,l),
(654,60,l),
(414,60,l)
);
}
);
width = 704;
}
);
metricLeft = "=O";
metricRight = "=H";
unicode = 198;
},
{
glyphname = B;
kernLeft = H;
kernRight = B;
lastChange = "2025-06-19 18:36:23 +0000";
layers = (
{
anchors = (
{
name = bottom;
pos = (224,0);
},
{
name = center;
pos = (112,163);
},
{
name = top;
pos = (224,650);
}
);
background = {
hints = (
{
name = _corner.BASE;
scale = (1.08,1.08);
type = Corner;
},
{
name = _corner.BASE;
scale = (1.08,1.08);
type = Corner;
},
{
name = _corner.BASE;
scale = (0.3,0.3);
type = Corner;
},
{
name = _corner.BASE;
options = 2;
scale = (-0.3,0.3);
type = Corner;
},
{
name = _corner.BASE;
scale = (0.9,0.9);
type = Corner;
},
{
name = _corner.BASE;
scale = (1.08,1.08);
type = Corner;
},
{
name = _corner.BASE;
scale = (0.3,0.3);
type = Corner;
},
{
name = _corner.BASE;
options = 2;
scale = (-0.3,0.3);
type = Corner;
},
{
name = _corner.BASE;
scale = (1.08,1.08);
type = Corner;
},
{
name = _corner.BASE;
scale = (0.9,0.9);
type = Corner;
},
{
name = _corner.BASE;
scale = (0.3,0.3);
type = Corner;
},
{
name = _corner.BASE;
options = 2;
scale = (-0.3,0.3);
type = Corner;
},
{
name = _corner.ROUND;
origin = (0,1);
scale = (1.08,1.08);
type = Corner;
},
{
name = _segment.DOUBLECUT;
origin = (0,3);
type = Segment;
},
{
name = _corner.ROUND;
origin = (0,4);
scale = (0.8,0.8);
type = Corner;
},
{
name = _corner.ROUND;
origin = (1,0);
scale = (0.3,0.3);
type = Corner;
},
{
name = _corner.ROUND;
options = 2;
origin = (1,3);
scale = (-0.3,0.3);
type = Corner;
},
{
name = _corner.ROUND;
origin = (2,0);
scale = (0.3,0.3);
type = Corner;
},
{
name = _corner.ROUND;
options = 2;
origin = (2,3);
scale = (-0.3,0.3);
type = Corner;
}
);
shapes = (
{
closed = 1;
nodes = (
(25,0,l),
(425,0,l),
(425,248,l),
(425,452,l),
(425,700,l),
(25,700,l)
);
},
{
closed = 1;
nodes = (
(275,405,l),
(175,405,l),
(175,590,l),
(275,590,l)
);
},
{
closed = 1;
nodes = (
(275,110,l),
(175,110,l),
(175,295,l),
(275,295,l)
);
}
);
};
hints = (
{
name = _corner.ROUND;
origin = (0,1);
type = Corner;
},
{
name = _corner.ROUND;
origin = (0,4);
scale = (1.08,1.08);
type = Corner;
},
{
name = _corner.ROUND;
origin = (1,0);
scale = (0.3,0.3);
type = Corner;
},
{
name = _corner.ROUND;
options = 2;
origin = (1,3);
scale = (-0.3,0.3);
type = Corner;
},
{
name = _corner.ROUND;
origin = (0,1);
scale = (1.08,1.08);
type = Corner;
},
{
name = _corner.ROUND;
origin = (0,4);
scale = (0.8,0.8);
type = Corner;
},
{
name = _corner.ROUND;
origin = (2,0);
scale = (0.3,0.3);
type = Corner;
},
{
name = _corner.ROUND;
options = 2;
origin = (2,3);
scale = (-0.3,0.3);
type = Corner;
},
{
name = _segment.DOUBLECUT;
origin = (0,3);
type = Segment;
}
);
layerId = m01;
shapes = (
{
closed = 1;
nodes = (
(25,0,l),
(425,0,l),
(425,223,l),
(425,427,l),
(425,650,l),
(25,650,l)
);
},
{
closed = 1;
nodes = (
(275,380,l),
(175,380,l),
(175,540,l),
(275,540,l)
);
},
{
closed = 1;
nodes = (
(275,110,l),
(175,110,l),
(175,270,l),
(275,270,l)
);
}
);
width = 447;
},
{
anchors = (
{
name = bottom;
pos = (267,0);
},
{
name = center;
pos = (134,163);
},
{
name = top;
pos = (267,650);
}
);
hints = (
{
name = _corner.ROUND;
origin = (0,1);
type = Corner;
},
{
name = _corner.ROUND;
origin = (0,4);
scale = (1.08,1.08);
type = Corner;
},
{
name = _corner.ROUND;
origin = (1,0);
scale = (0.65,0.65);
type = Corner;
},
{
name = _corner.ROUND;
options = 2;
origin = (1,3);
scale = (-0.65,0.65);
type = Corner;
},
{
name = _corner.ROUND;
origin = (0,1);
scale = (1.08,1.08);
type = Corner;
},
{
name = _corner.ROUND;
origin = (0,4);
scale = (0.8,0.8);
type = Corner;
},
{
name = _corner.ROUND;
origin = (2,0);
scale = (0.65,0.65);
type = Corner;
},
{
name = _corner.ROUND;
options = 2;
origin = (2,3);
scale = (-0.65,0.65);
type = Corner;
},
{
name = _segment.DOUBLECUT;
origin = (0,3);
type = Segment;
}
);
layerId = m002;
shapes = (
{
closed = 1;
nodes = (
(50,0,l),
(490,0,l),
(490,223,l),
(490,427,l),
(490,650,l),
(50,650,l)
);
},
{
closed = 1;
nodes = (
(420,360,l),
(120,360,l),
(120,590,l),
(420,590,l)
);
},
{
closed = 1;
nodes = (
(420,60,l),
(120,60,l),
(120,300,l),
(420,300,l)
);
}
);
width = 534;
}
);
metricLeft = H;
metricRight = O;
unicode = 66;
},
{
glyphname = C;
kernLeft = O;
kernRight = C;
lastChange = "2025-06-19 22:03:37 +0000";
layers = (
{
anchors = (
{
name = bottom;
pos = (220,0);
},
{
name = top;
pos = (220,650);
}
);
background = {
hints = (
{
name = _corner.ROUND;
type = Corner;
},
{
name = _corner.ROUND;
scale = (1.08,1.08);
type = Corner;
},
{
name = _corner.ROUND;
scale = (1.08,1.08);
type = Corner;
},
{
name = _corner.ROUND;
type = Corner;
},
{
name = _corner.ROUND;
scale = (0.3,0.3);
type = Corner;
},
{
name = _corner.ROUND;
options = 2;
scale = (-0.3,0.3);
type = Corner;
},
{
name = _corner.ROUND;
scale = (0.3,0.3);
type = Corner;
},
{
name = _corner.ROUND;
options = 2;
scale = (-0.3,0.3);
type = Corner;
}
);
shapes = (
{
closed = 0;
nodes = (
(422,255,l),
(272,255,l)
);
}
);
};
hints = (
{
name = _corner.ROUND;
origin = (0,0);
type = Corner;
},
{
name = _corner.ROUND;
origin = (0,1);
scale = (1.08,1.08);
type = Corner;
},
{
name = _corner.ROUND;
origin = (0,10);
scale = (1.08,1.08);
type = Corner;
},
{
name = _corner.ROUND;
origin = (0,11);
type = Corner;
},
{
name = _corner.ROUND;
origin = (0,4);
scale = (0.3,0.3);
type = Corner;
},
{
name = _corner.ROUND;
options = 2;
origin = (0,5);
scale = (-0.3,0.3);
type = Corner;
},
{
name = _corner.ROUND;
origin = (0,6);
scale = (0.3,0.3);
type = Corner;
},
{
name = _corner.ROUND;
options = 2;
origin = (0,7);
scale = (-0.3,0.3);
type = Corner;
}
);
layerId = m01;
shapes = (
{
closed = 1;
nodes = (
(22,0,l),
(422,0,l),
(422,230,l),
(272,230,l),
(272,110,l),
(172,110,l),
(172,540,l),
(272,540,l),
(272,420,l),
(422,420,l),
(422,650,l),
(22,650,l)
);
}
);
width = 439;
},
{
anchors = (
{
name = bottom;
pos = (259,0);
},
{
name = top;
pos = (259,650);
}
);
background = {
hints = (
{
name = _corner.ROUND;
type = Corner;
},
{
name = _corner.ROUND;
scale = (1.08,1.08);
type = Corner;
},
{
name = _corner.ROUND;
scale = (1.08,1.08);
type = Corner;
},
{
name = _corner.ROUND;
type = Corner;
},
{
name = _corner.ROUND;
scale = (0.3,0.3);
type = Corner;
},
{
name = _corner.ROUND;
options = 2;
scale = (-0.3,0.3);
type = Corner;
},
{
name = _corner.ROUND;
scale = (0.3,0.3);
type = Corner;
},
{
name = _corner.ROUND;
options = 2;
scale = (-0.3,0.3);
type = Corner;
}
);
shapes = (
{
closed = 0;
nodes = (
(444,255,l),
(294,255,l)
);
}
);
};
hints = (
{
name = _corner.ROUND;
origin = (0,0);
type = Corner;
},
{
name = _corner.ROUND;
origin = (0,1);
scale = (1.08,1.08);
type = Corner;
},
{
name = _corner.ROUND;
origin = (0,10);
scale = (1.08,1.08);
type = Corner;
},
{
name = _corner.ROUND;
origin = (0,11);
type = Corner;
},
{
name = _corner.ROUND;
origin = (0,4);
scale = (0.65,0.65);
type = Corner;
},
{
name = _corner.ROUND;
options = 2;
origin = (0,5);
scale = (-0.65,0.65);
type = Corner;
},
{
name = _corner.ROUND;
origin = (0,6);
scale = (0.65,0.65);
type = Corner;
},
{
name = _corner.ROUND;
options = 2;
origin = (0,7);
scale = (-0.65,0.65);
type = Corner;
}
);
layerId = m002;
shapes = (
{
closed = 1;
nodes = (
(44,0,l),
(484,0,l),
(484,230,l),
(414,230,l),
(414,60,l),
(114,60,l),
(114,590,l),
(414,590,l),
(414,420,l),
(484,420,l),
(484,650,l),
(44,650,l)
);
}
);
width = 517;
}
);
metricLeft = O;
metricRight = "=O*.75";
unicode = 67;
},
{
glyphname = D;
kernLeft = H;
kernRight = O;
lastChange = "2025-06-19 18:08:58 +0000";
layers = (
{
anchors = (
{
name = bottom;
pos = (224,0);
},
{
name = center;
pos = (112,325);
},
{
name = top;
pos = (224,650);
}
);
hints = (
{
name = _corner.ROUND;
origin = (0,1);
scale = (1.08,1.08);
type = Corner;
},
{
name = _corner.ROUND;
origin = (0,2);
scale = (1.08,1.08);
type = Corner;
},
{
name = _corner.ROUND;
origin = (1,0);
scale = (0.3,0.3);
type = Corner;
},
{
name = _corner.ROUND;
options = 2;
origin = (1,3);
scale = (-0.3,0.3);
type = Corner;
}
);
layerId = m01;
shapes = (
{
closed = 1;
nodes = (
(25,0,l),
(425,0,l),
(425,650,l),
(25,650,l)
);
},
{
closed = 1;
nodes = (
(275,110,l),
(175,110,l),
(175,540,l),
(275,540,l)
);
}
);
width = 447;
},
{
anchors = (
{
name = bottom;
pos = (267,0);
},
{
name = center;
pos = (134,325);
},
{
name = top;
pos = (267,650);
}
);
hints = (
{
name = _corner.ROUND;
origin = (0,1);
scale = (1.08,1.08);
type = Corner;
},
{
name = _corner.ROUND;
origin = (0,2);
scale = (1.08,1.08);
type = Corner;
},
{
name = _corner.ROUND;
origin = (1,0);
scale = (0.65,0.65);
type = Corner;
},
{
name = _corner.ROUND;
options = 2;
origin = (1,3);
scale = (-0.65,0.65);
type = Corner;
}
);
layerId = m002;
shapes = (
{
closed = 1;
nodes = (
(50,0,l),
(490,0,l),
(490,650,l),
(50,650,l)
);
},
{
closed = 1;
nodes = (
(420,60,l),
(120,60,l),
(120,590,l),
(420,590,l)
);
}
);
width = 534;
}
);
metricLeft = H;
metricRight = O;
unicode = 68;
},
{
glyphname = E;
kernLeft = H;
kernRight = E;
lastChange = "2025-06-20 14:35:28 +0000";
layers = (
{
anchors = (
{
name = bottom;
pos = (169,0);
},
{
name = ogonek;
pos = (303,10);
},
{
name = top;
pos = (169,650);
},
{
name = topleft;
pos = (20,650);
}
);
background = {
shapes = (
{
closed = 1;
nodes = (
(25,0,l),
(175,0,l),
(175,700,l),
(25,700,l)
);
},
{
closed = 1;
nodes = (
(175,295,l),
(315,295,l),
(315,405,l),
(175,405,l)
);
},
{
closed = 1;
nodes = (
(175,590,l),
(315,590,l),
(315,700,l),
(175,700,l)
);
},
{
closed = 1;
nodes = (
(175,0,l),
(315,0,l),
(315,110,l),
(175,110,l)
);
}
);
};
layerId = m01;
shapes = (
{
closed = 1;
nodes = (
(25,0,l),
(175,0,l),
(175,650,l),
(25,650,l)
);
},
{
closed = 1;
nodes = (
(175,270,l),
(315,270,l),
(315,380,l),
(175,380,l)
);
},
{
closed = 1;
nodes = (
(175,540,l),
(315,540,l),
(315,650,l),
(175,650,l)
);
},
{
closed = 1;
nodes = (
(175,0,l),
(315,0,l),
(315,110,l),
(175,110,l)
);
}
);
width = 337;
},
{
anchors = (
{
name = bottom;
pos = (267,0);
},
{
name = ogonek;
pos = (481,10);
},
{
name = top;
pos = (267,650);
},
{
name = topleft;
pos = (20,650);
}
);
background = {
shapes = (
{
closed = 0;
nodes = (
(380,300,l),
(380,360,l)
);
},
{
closed = 0;
nodes = (
(380,590,l),
(380,650,l)
);
},
{
closed = 0;
nodes = (
(380,0,l),
(380,60,l)
);
}
);
};
layerId = m002;
shapes = (
{
closed = 1;
nodes = (
(50,0,l),
(120,0,l),
(120,650,l),
(50,650,l)
);
},
{
closed = 1;
nodes = (
(120,300,l),
(450,300,l),
(450,360,l),
(120,360,l)
);
},
{
closed = 1;
nodes = (
(120,590,l),
(490,590,l),
(490,650,l),
(120,650,l)
);
},
{
closed = 1;
nodes = (
(120,0,l),
(490,0,l),
(490,60,l),
(120,60,l)
);
}
);
width = 534;
}
);
metricLeft = H;
metricRight = O;
unicode = 69;
},
{
glyphname = F;
kernLeft = H;
kernRight = F;
lastChange = "2025-07-08 16:29:36 +0000";
layers = (
{
anchors = (
{
name = bottom;
pos = (169,0);
},
{
name = top;
pos = (169,650);
}
);
layerId = m01;
shapes = (
{
closed = 1;
nodes = (
(25,0,l),
(175,0,l),
(175,650,l),
(25,650,l)
);
},
{
closed = 1;
nodes = (
(175,270,l),
(315,270,l),
(315,380,l),
(175,380,l)
);
},
{
closed = 1;
nodes = (
(175,540,l),
(315,540,l),
(315,650,l),
(175,650,l)
);
}
);
width = 337;
},
{
anchors = (
{
name = bottom;
pos = (267,0);
},
{
name = top;
pos = (267,650);
}
);
layerId = m002;
shapes = (
{
closed = 1;
nodes = (
(50,0,l),
(120,0,l),
(120,650,l),
(50,650,l)
);
},
{
closed = 1;
nodes = (
(120,300,l),
(450,300,l),
(450,360,l),
(120,360,l)
);
},
{
closed = 1;
nodes = (
(120,590,l),
(490,590,l),
(490,650,l),
(120,650,l)
);
}
);
width = 534;
}
);
metricLeft = H;
metricRight = O;
unicode = 70;
},
{
glyphname = G;
kernLeft = O;
kernRight = G;
lastChange = "2025-06-19 18:10:51 +0000";
layers = (
{
anchors = (
{
name = bottom;
pos = (222,0);
},
{
name = top;
pos = (222,650);
}
);
hints = (
{
name = _corner.ROUND;
origin = (0,0);
type = Corner;
},
{
name = _corner.ROUND;
origin = (0,1);
scale = (1.08,1.08);
type = Corner;
},
{
name = _corner.ROUND;
origin = (0,6);
scale = (0.3,0.3);
type = Corner;
},
{
name = _corner.ROUND;
options = 2;
origin = (0,7);
scale = (-0.3,0.3);
type = Corner;
},
{
name = _corner.ROUND;
origin = (0,8);
scale = (0.3,0.3);
type = Corner;
},
{
name = _corner.ROUND;
options = 2;
origin = (0,9);
scale = (-0.3,0.3);
type = Corner;
},
{
name = _corner.ROUND;
origin = (0,12);
scale = (1.08,1.08);
type = Corner;
},
{
name = _corner.ROUND;
origin = (0,13);
type = Corner;
}
);
layerId = m01;
shapes = (
{
closed = 1;
nodes = (
(22,0,l),
(422,0,l),
(422,340,l),
(222,340,l),
(222,230,l),
(272,230,l),
(272,110,l),
(172,110,l),
(172,540,l),
(272,540,l),
(272,420,l),
(422,420,l),
(422,650,l),
(22,650,l)
);
}
);
width = 444;
},
{
anchors = (
{
name = bottom;
pos = (264,0);
},
{
name = top;
pos = (264,650);
}
);
hints = (
{
name = _corner.ROUND;
origin = (0,0);
type = Corner;
},
{
name = _corner.ROUND;
origin = (0,1);
scale = (1.08,1.08);
type = Corner;
},
{
name = _corner.ROUND;
origin = (0,6);
scale = (0.65,0.65);
type = Corner;
},
{
name = _corner.ROUND;
options = 2;
origin = (0,7);
scale = (-0.65,0.65);
type = Corner;
},
{
name = _corner.ROUND;
origin = (0,8);
scale = (0.65,0.65);
type = Corner;
},
{
name = _corner.ROUND;
options = 2;
origin = (0,9);
scale = (-0.65,0.65);
type = Corner;
},
{
name = _corner.ROUND;
origin = (0,12);
scale = (1.08,1.08);
type = Corner;
},
{
name = _corner.ROUND;
origin = (0,13);
type = Corner;
}
);
layerId = m002;
shapes = (
{
closed = 1;
nodes = (
(44,0,l),
(484,0,l),
(484,340,l),
(334,340,l),
(334,280,l),
(414,280,l),
(414,60,l),
(114,60,l),
(114,590,l),
(414,590,l),
(414,420,l),
(484,420,l),
(484,650,l),
(44,650,l)
);
}
);
width = 528;
}
);
metricLeft = O;
metricRight = O;
unicode = 71;
},
{
glyphname = H;
kernLeft = H;
kernRight = H;
lastChange = "2025-06-19 18:11:29 +0000";
layers = (
{
anchors = (
{
name = bottom;
pos = (225,0);
},
{
name = center;
pos = (225,488);
},
{
name = top;
pos = (225,650);
},
{
name = topleft;
pos = (20,650);
}
);
background = {
shapes = (
{
closed = 1;
nodes = (
(25,0,l),
(175,0,l),
(175,700,l),
(25,700,l)
);
},
{
closed = 1;
nodes = (
(165,295,l),
(285,295,l),
(285,405,l),
(165,405,l)
);
},
{
closed = 1;
nodes = (
(275,0,l),
(425,0,l),
(425,700,l),
(275,700,l)
);
}
);
};
layerId = m01;
shapes = (
{
closed = 1;
nodes = (
(25,0,l),
(175,0,l),
(175,270,l),
(275,270,l),
(275,0,l),
(425,0,l),
(425,650,l),
(275,650,l),
(275,380,l),
(175,380,l),
(175,650,l),
(25,650,l)
);
}
);
width = 450;
},
{
anchors = (
{
name = bottom;
pos = (270,0);
},
{
name = center;
pos = (270,488);
},
{
name = top;
pos = (270,650);
},
{
name = topleft;
pos = (20,650);
}
);
layerId = m002;
shapes = (
{
closed = 1;
nodes = (
(50,0,l),
(120,0,l),
(120,300,l),
(420,300,l),
(420,0,l),
(490,0,l),
(490,650,l),
(420,650,l),
(420,360,l),
(120,360,l),
(120,650,l),
(50,650,l)
);
}
);
width = 540;
}
);
unicode = 72;
},
{
glyphname = I;
kernLeft = H;
kernRight = H;
lastChange = "2025-06-12 20:30:43 +0000";
layers = (
{
anchors = (
{
name = bottom;
pos = (100,0);
},
{
name = ogonek;
pos = (180,10);
},
{
name = top;
pos = (100,650);
},
{
name = topleft;
pos = (20,650);
}
);
layerId = m01;
shapes = (
{
closed = 1;
nodes = (
(25,0,l),
(175,0,l),
(175,650,l),
(25,650,l)
);
}
);
width = 200;
},
{
anchors = (
{
name = bottom;
pos = (85,0);
},
{
name = ogonek;
pos = (165,10);
},
{
name = top;
pos = (85,650);
},
{
name = topleft;
pos = (5,650);
}
);
layerId = m002;
shapes = (
{
closed = 1;
nodes = (
(50,0,l),
(120,0,l),
(120,650,l),
(50,650,l)
);
}
);
width = 170;
}
);
metricLeft = H;
metricRight = H;
unicode = 73;
},
{
glyphname = J;
kernLeft = J;
kernRight = J;
lastChange = "2025-07-16 18:39:47 +0000";
layers = (
{
anchors = (
{
name = bottom;
pos = (220,0);
},
{
name = top;
pos = (343,650);
}
);
background = {
hints = (
{
name = _corner.ROUND;
type = Corner;
},
{
name = _corner.ROUND;
scale = (1.08,1.08);
type = Corner;
},
{
name = _corner.ROUND;
scale = (0.3,0.3);
type = Corner;
},
{
name = _corner.ROUND;
options = 2;
scale = (-0.3,0.3);
type = Corner;
},
{
name = _corner.ROUND;
origin = (0,0);
scale = (0.3,0.3);
type = Corner;
},
{
name = _corner.ROUND;
options = 2;
origin = (0,1);
scale = (-0.3,0.3);
type = Corner;
},
{
name = _corner.ROUND;
origin = (0,4);
type = Corner;
},
{
name = _corner.ROUND;
origin = (0,5);
scale = (1.08,1.08);
type = Corner;
}
);
shapes = (
{
closed = 1;
nodes = (
(267,110,l),
(167,110,l),
(167,255,l),
(17,255,l),
(17,0,l),
(417,0,l),
(417,700,l),
(267,700,l)
);
}
);
};
hints = (
{
name = _corner.ROUND;
origin = (0,4);
type = Corner;
},
{
name = _corner.ROUND;
origin = (0,5);
scale = (1.08,1.08);
type = Corner;
},
{
name = _corner.ROUND;
origin = (0,0);
scale = (0.3,0.3);
type = Corner;
},
{
name = _corner.ROUND;
options = 2;
origin = (0,1);
scale = (-0.3,0.3);
type = Corner;
}
);
layerId = m01;
shapes = (
{
closed = 1;
nodes = (
(267,110,l),
(167,110,l),
(167,230,l),
(17,230,l),
(17,0,l),
(417,0,l),
(417,650,l),
(267,650,l)
);
}
);
width = 439;
},
{
anchors = (
{
name = bottom;
pos = (229,0);
},
{
name = top;
pos = (361,650);
}
);
hints = (
{
name = _corner.ROUND;
origin = (0,4);
type = Corner;
},
{
name = _corner.ROUND;
origin = (0,5);
scale = (1.08,1.08);
type = Corner;
},
{
name = _corner.ROUND;
origin = (0,0);
scale = (0.65,0.65);
type = Corner;
},
{
name = _corner.ROUND;
options = 2;
origin = (0,1);
scale = (-0.65,0.65);
type = Corner;
}
);
layerId = m002;
shapes = (
{
closed = 1;
nodes = (
(343,60,l),
(103,60,l),
(103,230,l),
(33,230,l),
(33,0,l),
(413,0,l),
(413,650,l),
(343,650,l)
);
}
);
width = 457;
}
);
metricLeft = "=O*.75";
metricRight = O;
unicode = 74;
},
{
glyphname = K;
kernLeft = H;
kernRight = K;
lastChange = "2025-06-19 20:44:15 +0000";
layers = (
{
anchors = (
{
name = bottom;
pos = (233,0);
},
{
name = top;
pos = (233,650);
}
);
background = {
shapes = (
{
closed = 1;
nodes = (
(455,650,l),
(305,650,l),
(145,325,l),
(295,325,l)
);
},
{
closed = 1;
nodes = (
(25,0,l),
(175,0,l),
(175,650,l),
(25,650,l)
);
},
{
closed = 1;
nodes = (
(305,0,l),
(455,0,l)
);
}
);
};
layerId = m01;
shapes = (
{
closed = 1;
nodes = (
(295,325,l),
(455,650,l),
(305,650,l),
(145,325,l)
);
},
{
closed = 1;
nodes = (
(175,0,l),
(175,650,l),
(25,650,l),
(25,0,l)
);
},
{
closed = 1;
nodes = (
(455,0,l),
(295,325,l),
(145,325,l),
(305,0,l)
);
}
);
width = 466;
},
{
anchors = (
{
name = bottom;
pos = (256,0);
},
{
name = top;
pos = (256,650);
}
);
background = {
anchors = (
{
name = bottom;
pos = (256,0);
},
{
name = top;
pos = (256,650);
}
);
shapes = (
{
closed = 1;
nodes = (
(120,178,l),
(490,650,l),
(420,650,l),
(50,178,l)
);
},
{
closed = 0;
nodes = (
(50,0,l),
(50,650,l)
);
},
{
closed = 1;
nodes = (
(120,0,l),
(120,650,l),
(50,650,l),
(50,0,l)
);
},
{
closed = 1;
nodes = (
(490,0,l),
(270,387,l),
(228,337,l),
(420,0,l)
);
},
{
closed = 0;
nodes = (
(50,650,l),
(120,650,l)
);
}
);
};
layerId = m002;
shapes = (
{
closed = 1;
nodes = (
(120,178,l),
(490,650,l),
(420,650,l),
(50,178,l)
);
},
{
closed = 1;
nodes = (
(120,0,l),
(120,650,l),
(50,650,l),
(50,0,l)
);
},
{
closed = 1;
nodes = (
(490,0,l),
(270,387,l),
(228,337,l),
(420,0,l)
);
}
);
width = 512;
}
);
metricLeft = H;
metricRight = "=O*.5";
unicode = 75;
},
{
glyphname = L;
kernLeft = H;
kernRight = L;
lastChange = "2025-06-20 14:36:32 +0000";
layers = (
{
anchors = (
{
name = bottom;
pos = (166,0);
},
{
name = center;
pos = (166,325);
},
{
name = top;
pos = (166,650);
},
{
name = topright;
pos = (312,650);
}
);
background = {
shapes = (
{
closed = 1;
nodes = (
(25,0,l),
(175,0,l),
(175,700,l),
(25,700,l)
);
},
{
closed = 1;
nodes = (
(175,0,l),
(315,0,l),
(315,110,l),
(175,110,l)
);
}
);
};
layerId = m01;
shapes = (
{
closed = 1;
nodes = (
(25,0,l),
(175,0,l),
(175,650,l),
(25,650,l)
);
},
{
closed = 1;
nodes = (
(175,0,l),
(315,0,l),
(315,110,l),
(175,110,l)
);
}
);
width = 332;
},
{
anchors = (
{
name = bottom;
pos = (232,0);
},
{
name = center;
pos = (232,325);
},
{
name = top;
pos = (232,650);
},
{
name = topright;
pos = (443,650);
}
);
layerId = m002;
shapes = (
{
closed = 1;
nodes = (
(50,0,l),
(120,0,l),
(120,650,l),
(50,650,l)
);
},
{
closed = 1;
nodes = (
(120,0,l),
(430,0,l),
(430,60,l),
(120,60,l)
);
}
);
width = 463;
}
);
metricLeft = H;
metricRight = "=O*.75";
unicode = 76;
},
{
glyphname = M;
kernLeft = M;
kernRight = M;
lastChange = "2025-07-07 14:34:37 +0000";
layers = (
{
anchors = (
{
name = bottom;
pos = (315,0);
},
{
name = top;
pos = (315,650);
}
);
background = {
shapes = (
{
closed = 1;
nodes = (
(375,0,l),
(175,650,l),
(65,650,l),
(255,0,l)
);
},
{
closed = 1;
nodes = (
(566,650,l),
(455,650,l),
(255,0,l),
(375,0,l)
);
}
);
};
layerId = m01;
shapes = (
{
closed = 1;
nodes = (
(25,0,l),
(175,0,l),
(175,650,l),
(25,650,l)
);
},
{
closed = 1;
nodes = (
(375,0,l),
(205,650,l),
(85,650,l),
(245,0,l)
);
},
{
closed = 1;
nodes = (
(455,650,l),
(455,0,l),
(605,0,l),
(605,650,l)
);
},
{
closed = 1;
nodes = (
(535,650,l),
(415,650,l),
(245,0,l),
(375,0,l)
);
}
);
width = 630;
},
{
anchors = (
{
name = bottom;
pos = (325,0);
},
{
name = top;
pos = (325,650);
}
);
layerId = m002;
shapes = (
{
closed = 1;
nodes = (
(50,0,l),
(120,0,l),
(120,650,l),
(50,650,l)
);
},
{
closed = 1;
nodes = (
(360,0,l),
(160,650,l),
(90,650,l),
(290,0,l)
);
},
{
closed = 1;
nodes = (
(530,650,l),
(530,0,l),
(600,0,l),
(600,650,l)
);
},
{
closed = 1;
nodes = (
(560,650,l),
(490,650,l),
(290,0,l),
(360,0,l)
);
}
);
width = 650;
}
);
metricLeft = H;
metricRight = H;
metricWidth = 638N;
unicode = 77;
},
{
glyphname = N;
kernLeft = H;
kernRight = H;
lastChange = "2025-06-19 20:19:24 +0000";
layers = (
{
anchors = (
{
name = bottom;
pos = (253,0);
},
{
name = top;
pos = (253,650);
}
);
layerId = m01;
shapes = (
{
closed = 1;
nodes = (
(25,0,l),
(175,0,l),
(175,650,l),
(25,650,l)
);
},
{
closed = 1;
nodes = (
(460,0,l),
(175,650,l),
(35,650,l),
(330,0,l)
);
},
{
closed = 1;
nodes = (
(330,0,l),
(480,0,l),
(480,650,l),
(330,650,l)
);
}
);
width = 505;
},
{
anchors = (
{
name = bottom;
pos = (270,0);
},
{
name = top;
pos = (270,650);
}
);
layerId = m002;
shapes = (
{
closed = 1;
nodes = (
(50,0,l),
(120,0,l),
(120,650,l),
(50,650,l)
);
},
{
closed = 1;
nodes = (
(490,0,l),
(120,650,l),
(50,650,l),
(420,0,l)
);
},
{
closed = 1;
nodes = (
(420,0,l),
(490,0,l),
(490,650,l),
(420,650,l)
);
}
);
width = 540;
}
);
metricLeft = "=H";
metricRight = "=H";
unicode = 78;
},
{
glyphname = O;
kernLeft = O;
kernRight = O;
lastChange = "2025-06-19 18:03:44 +0000";
layers = (
{
anchors = (
{
name = bottom;
pos = (222,0);
},
{
name = center;
pos = (222,325);
},
{
name = ogonek;
pos = (400,10);
},
{
name = top;
pos = (222,650);
},
{
name = topleft;
pos = (20,650);
},
{
name = topright;
pos = (424,650);
}
);
hints = (
{
name = _corner.ROUND;
origin = (0,1);
type = Corner;
},
{
name = _corner.ROUND;
origin = (0,2);
type = Corner;
},
{
name = _corner.ROUND;
origin = (1,0);
scale = (0.3,0.3);
type = Corner;
},
{
name = _corner.ROUND;
options = 2;
origin = (1,3);
scale = (-0.3,0.3);
type = Corner;
},
{
name = _corner.ROUND;
origin = (1,1);
scale = (0.3,0.3);
type = Corner;
},
{
name = _corner.ROUND;
options = 2;
origin = (1,2);
scale = (-0.3,0.3);
type = Corner;
},
{
name = _corner.ROUND;
origin = (0,3);
type = Corner;
},
{
name = _corner.ROUND;
origin = (0,0);
type = Corner;
}
);
layerId = m01;
shapes = (
{
closed = 1;
nodes = (
(22,0,l),
(422,0,l),
(422,650,l),
(22,650,l)
);
},
{
closed = 1;
nodes = (
(272,110,l),
(172,110,l),
(172,540,l),
(272,540,l)
);
}
);
width = 444;
},
{
anchors = (
{
name = bottom;
pos = (264,0);
},
{
name = center;
pos = (264,325);
},
{
name = ogonek;
pos = (475,10);
},
{
name = top;
pos = (264,650);
},
{
name = topleft;
pos = (20,650);
},
{
name = topright;
pos = (508,650);
}
);
hints = (
{
name = _corner.ROUND;
origin = (0,1);
type = Corner;
},
{
name = _corner.ROUND;
origin = (0,2);
type = Corner;
},
{
name = _corner.ROUND;
origin = (1,0);
scale = (0.65,0.65);
type = Corner;
},
{
name = _corner.ROUND;
options = 2;
origin = (1,3);
scale = (-0.65,0.65);
type = Corner;
},
{
name = _corner.ROUND;
origin = (1,1);
scale = (0.65,0.65);
type = Corner;
},
{
name = _corner.ROUND;
options = 2;
origin = (1,2);
scale = (-0.65,0.65);
type = Corner;
},
{
name = _corner.ROUND;
origin = (0,3);
type = Corner;
},
{
name = _corner.ROUND;
origin = (0,0);
type = Corner;
}
);
layerId = m002;
shapes = (
{
closed = 1;
nodes = (
(44,0,l),
(484,0,l),
(484,650,l),
(44,650,l)
);
},
{
closed = 1;
nodes = (
(414,60,l),
(114,60,l),
(114,590,l),
(414,590,l)
);
}
);
width = 528;
}
);
unicode = 79;
},
{
glyphname = OE;
kernLeft = O;
kernRight = E;
lastChange = "2025-07-07 19:10:13 +0000";
layers = (
{
anchors = (
{
name = bottom;
pos = (295,0);
},
{
name = top;
pos = (295,650);
}
);
hints = (
{
name = _corner.ROUND;
origin = (1,0);
scale = (0.3,0.3);
type = Corner;
},
{
name = _corner.ROUND;
options = 2;
origin = (1,3);
scale = (-0.3,0.3);
type = Corner;
},
{
name = _corner.ROUND;
origin = (1,1);
scale = (0.3,0.3);
type = Corner;
},
{
name = _corner.ROUND;
options = 2;
origin = (1,2);
scale = (-0.3,0.3);
type = Corner;
},
{
name = _corner.ROUND;
origin = (0,5);
type = Corner;
},
{
name = _corner.ROUND;
origin = (0,0);
type = Corner;
},
{
name = _segment.CUT;
options = 1;
origin = (0,2);
scale = (-1,1);
type = Segment;
},
{
name = _segment.CUT;
origin = (0,4);
type = Segment;
}
);
layerId = m01;
shapes = (
{
closed = 1;
nodes = (
(25,0,l),
(195,0,l),
(275,0,l),
(275,650,l),
(195,650,l),
(25,650,l)
);
},
{
closed = 1;
nodes = (
(275,110,l),
(175,110,l),
(175,540,l),
(275,540,l)
);
},
{
closed = 1;
nodes = (
(275,0,l),
(425,0,l),
(425,650,l),
(275,650,l)
);
},
{
closed = 1;
nodes = (
(425,270,l),
(565,270,l),
(565,380,l),
(425,380,l)
);
},
{
closed = 1;
nodes = (
(425,540,l),
(565,540,l),
(565,650,l),
(425,650,l)
);
},
{
closed = 1;
nodes = (
(425,0,l),
(565,0,l),
(565,110,l),
(425,110,l)
);
}
);
width = 590;
},
{
anchors = (
{
name = bottom;
pos = (355,0);
},
{
name = top;
pos = (355,650);
}
);
hints = (
{
name = _corner.ROUND;
origin = (1,0);
scale = (0.5,0.5);
type = Corner;
},
{
name = _corner.ROUND;
options = 2;
origin = (1,3);
scale = (-0.5,0.5);
type = Corner;
},
{
name = _corner.ROUND;
origin = (1,1);
scale = (0.5,0.5);
type = Corner;
},
{
name = _corner.ROUND;
options = 2;
origin = (1,2);
scale = (-0.5,0.5);
type = Corner;
},
{
name = _corner.ROUND;
origin = (0,5);
type = Corner;
},
{
name = _corner.ROUND;
origin = (0,0);
type = Corner;
},
{
name = _segment.CUT;
options = 1;
origin = (0,2);
scale = (-1,1);
type = Segment;
},
{
name = _segment.CUT;
origin = (0,4);
type = Segment;
}
);
layerId = m002;
shapes = (
{
closed = 1;
nodes = (
(50,0,l),
(270,0,l),
(350,0,l),
(350,650,l),
(270,650,l),
(50,650,l)
);
},
{
closed = 1;
nodes = (
(350,60,l),
(120,60,l),
(120,590,l),
(350,590,l)
);
},
{
closed = 1;
nodes = (
(350,0,l),
(420,0,l),
(420,650,l),
(350,650,l)
);
},
{
closed = 1;
nodes = (
(420,295,l),
(660,295,l),
(660,355,l),
(420,355,l)
);
},
{
closed = 1;
nodes = (
(420,590,l),
(660,590,l),
(660,650,l),
(420,650,l)
);
},
{
closed = 1;
nodes = (
(420,0,l),
(660,0,l),
(660,60,l),
(420,60,l)
);
}
);
width = 710;
}
);
metricLeft = "=H";
metricRight = "=H";
unicode = 338;
},
{
glyphname = P;
kernLeft = H;
kernRight = P;
lastChange = "2025-06-19 18:13:57 +0000";
layers = (
{
anchors = (
{
name = bottom;
pos = (221,0);
},
{
name = top;
pos = (221,650);
}
);
hints = (
{
name = _corner.ROUND;
origin = (0,3);
scale = (1.08,1.08);
type = Corner;
},
{
name = _corner.ROUND;
origin = (0,4);
scale = (1.08,1.08);
type = Corner;
},
{
name = _corner.ROUND;
origin = (1,0);
scale = (0.3,0.3);
type = Corner;
},
{
name = _corner.ROUND;
options = 2;
origin = (1,3);
scale = (-0.3,0.3);
type = Corner;
}
);
layerId = m01;
shapes = (
{
closed = 1;
nodes = (
(25,0,l),
(175,0,l),
(175,270,l),
(425,270,l),
(425,650,l),
(25,650,l)
);
},
{
closed = 1;
nodes = (
(275,380,l),
(175,380,l),
(175,540,l),
(275,540,l)
);
}
);
width = 442;
},
{
anchors = (
{
name = bottom;
pos = (262,0);
},
{
name = top;
pos = (262,650);
}
);
hints = (
{
name = _corner.ROUND;
origin = (0,3);
scale = (1.08,1.08);
type = Corner;
},
{
name = _corner.ROUND;
origin = (0,4);
scale = (1.08,1.08);
type = Corner;
},
{
name = _corner.ROUND;
origin = (1,0);
scale = (0.7,0.7);
type = Corner;
},
{
name = _corner.ROUND;
options = 2;
origin = (1,3);
scale = (-0.65,0.65);
type = Corner;
}
);
layerId = m002;
shapes = (
{
closed = 1;
nodes = (
(50,0,l),
(120,0,l),
(120,270,l),
(490,270,l),
(490,650,l),
(50,650,l)
);
},
{
closed = 1;
nodes = (
(420,330,l),
(120,330,l),
(120,590,l),
(420,590,l)
);
}
);
width = 523;
}
);
metricLeft = H;
metricRight = "=O*.75";
unicode = 80;
},
{
glyphname = Thorn;
kernLeft = H;
kernRight = Thorn;
lastChange = "2025-07-07 19:14:08 +0000";
layers = (
{
anchors = (
{
name = bottom;
pos = (224,0);
},
{
name = top;
pos = (224,650);
}
);
hints = (
{
name = _corner.ROUND;
origin = (0,1);
scale = (1.08,1.08);
type = Corner;
},
{
name = _corner.ROUND;
origin = (0,2);
scale = (1.08,1.08);
type = Corner;
},
{
name = _corner.ROUND;
origin = (1,0);
scale = (0.3,0.3);
type = Corner;
},
{
name = _corner.ROUND;
options = 2;
origin = (1,3);
scale = (-0.3,0.3);
type = Corner;
}
);
layerId = m01;
shapes = (
{
closed = 1;
nodes = (
(25,125,l),
(425,125,l),
(425,500,l),
(25,500,l)
);
},
{
closed = 1;
nodes = (
(275,235,l),
(175,235,l),
(175,390,l),
(275,390,l)
);
},
{
closed = 1;
nodes = (
(25,0,l),
(175,0,l),
(175,650,l),
(25,650,l)
);
}
);
width = 447;
},
{
anchors = (
{
name = bottom;
pos = (249,0);
},
{
name = top;
pos = (249,650);
}
);
hints = (
{
name = _corner.ROUND;
origin = (0,1);
scale = (1.08,1.08);
type = Corner;
},
{
name = _corner.ROUND;
origin = (0,2);
scale = (1.08,1.08);
type = Corner;
},
{
name = _corner.ROUND;
origin = (1,0);
scale = (0.5,0.5);
type = Corner;
},
{
name = _corner.ROUND;
options = 2;
origin = (1,3);
scale = (-0.5,0.5);
type = Corner;
}
);
layerId = m002;
shapes = (
{
closed = 1;
nodes = (
(50,125,l),
(450,125,l),
(450,500,l),
(50,500,l)
);
},
{
closed = 1;
nodes = (
(380,185,l),
(120,185,l),
(120,440,l),
(380,440,l)
);
},
{
closed = 1;
nodes = (
(50,0,l),
(120,0,l),
(120,650,l),
(50,650,l)
);
}
);
width = 494;
}
);
metricLeft = "=H";
metricRight = "=O";
unicode = 222;
},
{
glyphname = Q;
kernLeft = O;
kernRight = Q;
lastChange = "2025-06-19 18:16:27 +0000";
layers = (
{
anchors = (
{
name = bottom;
pos = (233,0);
},
{
name = top;
pos = (233,650);
}
);
hints = (
{
name = _corner.ROUND;
origin = (0,0);
type = Corner;
},
{
name = _corner.ROUND;
origin = (0,1);
type = Corner;
},
{
name = _corner.ROUND;
origin = (0,2);
type = Corner;
},
{
name = _corner.ROUND;
origin = (0,3);
type = Corner;
},
{
name = _corner.ROUND;
origin = (1,0);
scale = (0.3,0.3);
type = Corner;
},
{
name = _corner.ROUND;
origin = (1,1);
scale = (0.3,0.3);
type = Corner;
},
{
name = _corner.ROUND;
options = 2;
origin = (1,2);
scale = (-0.3,0.3);
type = Corner;
},
{
name = _corner.ROUND;
options = 2;
origin = (1,3);
scale = (-0.3,0.3);
type = Corner;
}
);
layerId = m01;
shapes = (
{
closed = 1;
nodes = (
(22,0,l),
(422,0,l),
(422,650,l),
(22,650,l)
);
},
{
closed = 1;
nodes = (
(272,110,l),
(172,110,l),
(172,540,l),
(272,540,l)
);
},
{
closed = 1;
nodes = (
(385,-39,l),
(463,39,l),
(385,117,l),
(307,39,l)
);
}
);
width = 466;
},
{
anchors = (
{
name = bottom;
pos = (256,0);
},
{
name = top;
pos = (256,650);
}
);
hints = (
{
name = _corner.ROUND;
origin = (0,0);
type = Corner;
},
{
name = _corner.ROUND;
origin = (0,1);
type = Corner;
},
{
name = _corner.ROUND;
origin = (0,2);
type = Corner;
},
{
name = _corner.ROUND;
origin = (0,3);
type = Corner;
},
{
name = _corner.ROUND;
origin = (1,0);
scale = (0.65,0.65);
type = Corner;
},
{
name = _corner.ROUND;
origin = (1,1);
scale = (0.65,0.65);
type = Corner;
},
{
name = _corner.ROUND;
options = 2;
origin = (1,2);
scale = (-0.65,0.65);
type = Corner;
},
{
name = _corner.ROUND;
options = 2;
origin = (1,3);
scale = (-0.65,0.65);
type = Corner;
}
);
layerId = m002;
shapes = (
{
closed = 1;
nodes = (
(44,0,l),
(484,0,l),
(484,650,l),
(44,650,l)
);
},
{
closed = 1;
nodes = (
(414,60,l),
(114,60,l),
(114,590,l),
(414,590,l)
);
},
{
closed = 1;
nodes = (
(407,24,l),
(456,-25,l),
(506,24,l),
(456,73,l)
);
}
);
width = 512;
}
);
metricLeft = O;
metricRight = "=O*.125";
unicode = 81;
},
{
glyphname = R;
kernLeft = H;
kernRight = R;
lastChange = "2025-06-19 18:16:57 +0000";
layers = (
{
anchors = (
{
name = bottom;
pos = (224,0);
},
{
name = top;
pos = (224,650);
}
);
background = {
hints = (
{
name = _corner.ROUND;
options = 2;
scale = (-0.3,0.3);
type = Corner;
},
{
name = _corner.ROUND;
scale = (0.8,0.8);
type = Corner;
},
{
name = _corner.ROUND;
scale = (0.8,0.8);
type = Corner;
},
{
name = _corner.ROUND;
scale = (0.3,0.3);
type = Corner;
},
{
name = _corner.ROUND;
options = 2;
scale = (-0.3,0.3);
type = Corner;
},
{
name = _corner.ROUND;
options = 2;
origin = (0,3);
scale = (-0.3,0.3);
type = Corner;
},
{
name = _segment.DOUBLECUT;
origin = (0,7);
type = Segment;
},
{
name = _corner.ROUND;
origin = (0,8);
scale = (0.8,0.8);
type = Corner;
},
{
name = _corner.ROUND;
origin = (1,0);
scale = (0.3,0.3);
type = Corner;
},
{
name = _corner.ROUND;
options = 2;
origin = (1,3);
scale = (-0.3,0.3);
type = Corner;
}
);
shapes = (
{
closed = 1;
nodes = (
(25,0,l),
(175,0,l),
(175,295,l),
(275,295,l),
(275,0,l),
(425,0,l),
(425,248,l),
(425,452,l),
(425,700,l),
(25,700,l)
);
},
{
closed = 1;
nodes = (
(275,405,l),
(175,405,l),
(175,590,l),
(275,590,l)
);
}
);
};
hints = (
{
name = _corner.ROUND;
origin = (0,8);
scale = (1.08,1.08);
type = Corner;
},
{
name = _corner.ROUND;
origin = (1,0);
scale = (0.3,0.3);
type = Corner;
},
{
name = _corner.ROUND;
options = 2;
origin = (1,3);
scale = (-0.3,0.3);
type = Corner;
},
{
name = _corner.ROUND;
origin = (0,8);
scale = (0.8,0.8);
type = Corner;
},
{
name = _corner.ROUND;
options = 2;
origin = (0,3);
scale = (-0.3,0.3);
type = Corner;
},
{
name = _segment.DOUBLECUT;
origin = (0,7);
type = Segment;
}
);
layerId = m01;
shapes = (
{
closed = 1;
nodes = (
(25,0,l),
(175,0,l),
(175,270,l),
(275,270,l),
(275,0,l),
(425,0,l),
(425,223,l),
(425,427,l),
(425,650,l),
(25,650,l)
);
},
{
closed = 1;
nodes = (
(275,380,l),
(175,380,l),
(175,540,l),
(275,540,l)
);
}
);
width = 447;
},
{
anchors = (
{
name = bottom;
pos = (267,0);
},
{
name = top;
pos = (267,650);
}
);
hints = (
{
name = _corner.ROUND;
origin = (0,8);
scale = (1.08,1.08);
type = Corner;
},
{
name = _corner.ROUND;
origin = (1,0);
scale = (0.65,0.65);
type = Corner;
},
{
name = _corner.ROUND;
options = 2;
origin = (1,3);
scale = (-0.65,0.65);
type = Corner;
},
{
name = _corner.ROUND;
origin = (0,8);
scale = (0.8,0.8);
type = Corner;
},
{
name = _corner.ROUND;
options = 2;
origin = (0,3);
scale = (-0.65,0.65);
type = Corner;
},
{
name = _segment.DOUBLECUT;
origin = (0,7);
type = Segment;
}
);
layerId = m002;
shapes = (
{
closed = 1;
nodes = (
(50,0,l),
(120,0,l),
(120,300,l),
(420,300,l),
(420,0,l),
(490,0,l),
(490,223,l),
(490,427,l),
(490,650,l),
(50,650,l)
);
},
{
closed = 1;
nodes = (
(420,360,l),
(120,360,l),
(120,590,l),
(420,590,l)
);
}
);
width = 534;
}
);
metricLeft = H;
metricRight = O;
unicode = 82;
},
{
glyphname = S;
kernLeft = S;
kernRight = S;
lastChange = "2025-07-16 19:12:54 +0000";
layers = (
{
anchors = (
{
name = bottom;
pos = (222,0);
},
{
name = top;
pos = (222,650);
}
);
background = {
hints = (
{
name = _corner.ROUND;
type = Corner;
},
{
name = _corner.ROUND;
scale = (0.3,0.3);
type = Corner;
},
{
name = _corner.ROUND;
options = 2;
scale = (-0.3,0.3);
type = Corner;
},
{
name = _corner.ROUND;
scale = (1.08,1.08);
type = Corner;
},
{
name = _corner.ROUND;
type = Corner;
},
{
name = _corner.ROUND;
options = 1;
scale = (0.5,0.5);
type = Corner;
},
{
name = _corner.ROUND;
type = Corner;
},
{
name = _corner.ROUND;
options = 2;
scale = (-0.3,0.3);
type = Corner;
},
{
name = _corner.ROUND;
scale = (0.3,0.3);
type = Corner;
},
{
name = _corner.ROUND;
type = Corner;
},
{
name = _corner.ROUND;
scale = (1.08,1.08);
type = Corner;
},
{
name = _corner.ROUND;
options = 1;
scale = (0.5,0.5);
type = Corner;
},
{
name = _corner.ROUND;
type = Corner;
},
{
name = _corner.ROUND;
scale = (0.3,0.3);
type = Corner;
},
{
name = _corner.ROUND;
options = 2;
scale = (-0.3,0.3);
type = Corner;
},
{
name = _corner.ROUND;
scale = (1.08,1.08);
type = Corner;
},
{
name = _corner.ROUND;
type = Corner;
},
{
name = _corner.ROUND;
options = 1;
scale = (0.5,0.5);
type = Corner;
},
{
name = _corner.ROUND;
type = Corner;
},
{
name = _corner.ROUND;
options = 2;
scale = (-0.3,0.3);
type = Corner;
},
{
name = _corner.ROUND;
scale = (0.3,0.3);
type = Corner;
},
{
name = _corner.ROUND;
type = Corner;
},
{
name = _corner.ROUND;
scale = (1.08,1.08);
type = Corner;
},
{
name = _corner.ROUND;
options = 1;
scale = (0.5,0.5);
type = Corner;
},
{
name = _corner.ROUND;
scale = (0.3,0.3);
type = Corner;
},
{
name = _corner.ROUND;
options = 2;
scale = (-0.3,0.3);
type = Corner;
},
{
name = _corner.ROUND;
scale = (1.08,1.08);
type = Corner;
},
{
name = _corner.ROUND;
type = Corner;
},
{
name = _corner.ROUND;
options = 2;
scale = (-0.3,0.3);
type = Corner;
},
{
name = _corner.ROUND;
scale = (0.3,0.3);
type = Corner;
},
{
name = _corner.ROUND;
type = Corner;
},
{
name = _corner.ROUND;
scale = (1.08,1.08);
type = Corner;
},
{
name = _corner.ROUND;
scale = (0.3,0.3);
type = Corner;
},
{
name = _corner.ROUND;
options = 2;
scale = (-0.3,0.3);
type = Corner;
},
{
name = _corner.ROUND;
scale = (1.08,1.08);
type = Corner;
},
{
name = _corner.ROUND;
type = Corner;
},
{
name = _corner.ROUND;
options = 2;
scale = (-0.3,0.3);
type = Corner;
},
{
name = _corner.ROUND;
scale = (0.3,0.3);
type = Corner;
},
{
name = _corner.ROUND;
type = Corner;
},
{
name = _corner.ROUND;
scale = (1.08,1.08);
type = Corner;
},
{
name = _corner.ROUND;
origin = (0,2);
scale = (0.3,0.3);
type = Corner;
},
{
name = _corner.ROUND;
options = 2;
origin = (0,3);
scale = (-0.3,0.3);
type = Corner;
},
{
name = _corner.ROUND;
origin = (0,6);
scale = (1.08,1.08);
type = Corner;
},
{
name = _corner.ROUND;
origin = (0,7);
type = Corner;
},
{
name = _corner.ROUND;
options = 2;
origin = (0,12);
scale = (-0.3,0.3);
type = Corner;
},
{
name = _corner.ROUND;
origin = (0,13);
scale = (0.3,0.3);
type = Corner;
},
{
name = _corner.ROUND;
origin = (0,16);
type = Corner;
},
{
name = _corner.ROUND;
origin = (0,17);
scale = (1.08,1.08);
type = Corner;
}
);
shapes = (
{
closed = 1;
nodes = (
(171,419,o),
(172,515,c),
(172,590,l),
(272,590,l),
(272,485,l),
(422,485,l),
(422,700,l),
(22,700,l),
(22,495,l),
(22,321,o),
(273,295,o),
(272,185,c),
(272,110,l),
(172,110,l),
(172,215,l),
(22,215,l),
(22,0,l),
(422,0,l),
(422,205,l),
(422,386,o)
);
}
);
};
hints = (
{
name = _corner.ROUND;
origin = (0,7);
scale = (1.08,1.08);
type = Corner;
},
{
name = _corner.ROUND;
origin = (0,8);
scale = (1.08,1.08);
type = Corner;
},
{
name = _corner.ROUND;
origin = (0,3);
scale = (0.3,0.3);
type = Corner;
},
{
name = _corner.ROUND;
options = 2;
origin = (0,4);
scale = (-0.3,0.3);
type = Corner;
},
{
name = _corner.ROUND;
origin = (0,14);
scale = (0.3,0.3);
type = Corner;
},
{
name = _corner.ROUND;
options = 2;
origin = (0,13);
scale = (-0.3,0.3);
type = Corner;
},
{
name = _corner.ROUND;
origin = (0,18);
scale = (1.08,1.08);
type = Corner;
},
{
name = _corner.ROUND;
origin = (0,17);
scale = (1.08,1.08);
type = Corner;
}
);
layerId = m01;
shapes = (
{
closed = 1;
nodes = (
(421,349,o),
(171,385,o),
(172,475,c),
(172,540,l),
(272,540,l),
(272,445,l),
(422,445,l),
(422,650,l),
(22,650,l),
(22,475,l),
(22,261,o),
(272,265,o),
(272,175,c),
(272,110,l),
(172,110,l),
(172,205,l),
(22,205,l),
(22,0,l),
(422,0,l),
(422,175,l)
);
}
);
width = 444;
},
{
anchors = (
{
name = bottom;
pos = (279,0);
},
{
name = top;
pos = (279,650);
}
);
background = {
hints = (
{
name = _corner.ROUND;
type = Corner;
},
{
name = _corner.ROUND;
scale = (0.3,0.3);
type = Corner;
},
{
name = _corner.ROUND;
options = 2;
scale = (-0.3,0.3);
type = Corner;
},
{
name = _corner.ROUND;
scale = (1.08,1.08);
type = Corner;
},
{
name = _corner.ROUND;
type = Corner;
},
{
name = _corner.ROUND;
options = 1;
scale = (0.5,0.5);
type = Corner;
},
{
name = _corner.ROUND;
type = Corner;
},
{
name = _corner.ROUND;
options = 2;
scale = (-0.3,0.3);
type = Corner;
},
{
name = _corner.ROUND;
scale = (0.3,0.3);
type = Corner;
},
{
name = _corner.ROUND;
type = Corner;
},
{
name = _corner.ROUND;
scale = (1.08,1.08);
type = Corner;
},
{
name = _corner.ROUND;
options = 1;
scale = (0.5,0.5);
type = Corner;
},
{
name = _corner.ROUND;
type = Corner;
},
{
name = _corner.ROUND;
scale = (0.3,0.3);
type = Corner;
},
{
name = _corner.ROUND;
options = 2;
scale = (-0.3,0.3);
type = Corner;
},
{
name = _corner.ROUND;
scale = (1.08,1.08);
type = Corner;
},
{
name = _corner.ROUND;
type = Corner;
},
{
name = _corner.ROUND;
options = 1;
scale = (0.5,0.5);
type = Corner;
},
{
name = _corner.ROUND;
type = Corner;
},
{
name = _corner.ROUND;
options = 2;
scale = (-0.3,0.3);
type = Corner;
},
{
name = _corner.ROUND;
scale = (0.3,0.3);
type = Corner;
},
{
name = _corner.ROUND;
type = Corner;
},
{
name = _corner.ROUND;
scale = (1.08,1.08);
type = Corner;
},
{
name = _corner.ROUND;
options = 1;
scale = (0.5,0.5);
type = Corner;
},
{
name = _corner.ROUND;
scale = (0.3,0.3);
type = Corner;
},
{
name = _corner.ROUND;
options = 2;
scale = (-0.3,0.3);
type = Corner;
},
{
name = _corner.ROUND;
scale = (1.08,1.08);
type = Corner;
},
{
name = _corner.ROUND;
type = Corner;
},
{
name = _corner.ROUND;
options = 2;
scale = (-0.3,0.3);
type = Corner;
},
{
name = _corner.ROUND;
scale = (0.3,0.3);
type = Corner;
},
{
name = _corner.ROUND;
type = Corner;
},
{
name = _corner.ROUND;
scale = (1.08,1.08);
type = Corner;
},
{
name = _corner.ROUND;
scale = (0.3,0.3);
type = Corner;
},
{
name = _corner.ROUND;
options = 2;
scale = (-0.3,0.3);
type = Corner;
},
{
name = _corner.ROUND;
scale = (1.08,1.08);
type = Corner;
},
{
name = _corner.ROUND;
type = Corner;
},
{
name = _corner.ROUND;
options = 2;
scale = (-0.3,0.3);
type = Corner;
},
{
name = _corner.ROUND;
scale = (0.3,0.3);
type = Corner;
},
{
name = _corner.ROUND;
type = Corner;
},
{
name = _corner.ROUND;
scale = (1.08,1.08);
type = Corner;
},
{
name = _corner.ROUND;
scale = (0.3,0.3);
type = Corner;
},
{
name = _corner.ROUND;
options = 2;
scale = (-0.3,0.3);
type = Corner;
},
{
name = _corner.ROUND;
scale = (1.08,1.08);
type = Corner;
},
{
name = _corner.ROUND;
type = Corner;
},
{
name = _corner.ROUND;
options = 2;
scale = (-0.3,0.3);
type = Corner;
},
{
name = _corner.ROUND;
scale = (0.3,0.3);
type = Corner;
},
{
name = _corner.ROUND;
type = Corner;
},
{
name = _corner.ROUND;
scale = (1.08,1.08);
type = Corner;
},
{
name = _corner.ROUND;
origin = (0,0);
scale = (0.3,0.3);
type = Corner;
}
);
shapes = (
{
closed = 0;
nodes = (
(129,540,l)
);
}
);
};
hints = (
{
name = _corner.ROUND;
origin = (0,7);
scale = (1.1,1.1);
type = Corner;
},
{
name = _corner.ROUND;
origin = (0,8);
scale = (1.1,1.1);
type = Corner;
},
{
name = _corner.ROUND;
origin = (0,3);
scale = (0.7,0.7);
type = Corner;
},
{
name = _corner.ROUND;
options = 2;
origin = (0,4);
scale = (-0.7,0.7);
type = Corner;
},
{
name = _corner.ROUND;
origin = (0,14);
scale = (0.7,0.7);
type = Corner;
},
{
name = _corner.ROUND;
options = 2;
origin = (0,13);
scale = (-0.7,0.7);
type = Corner;
},
{
name = _corner.ROUND;
origin = (0,18);
scale = (1.1,1.1);
type = Corner;
},
{
name = _corner.ROUND;
origin = (0,17);
scale = (1.1,1.1);
type = Corner;
}
);
layerId = m002;
shapes = (
{
closed = 1;
nodes = (
(514,379,o),
(114,345,o),
(114,475,c),
(114,590,l),
(444,590,l),
(444,445,l),
(514,445,l),
(514,650,l),
(44,650,l),
(44,475,l),
(44,271,o),
(444,335,o),
(444,175,c),
(444,60,l),
(114,60,l),
(114,205,l),
(44,205,l),
(44,0,l),
(514,0,l),
(514,175,l)
);
}
);
width = 558;
}
);
metricLeft = O;
metricRight = O;
unicode = 83;
},
{
glyphname = Germandbls;
kernLeft = Germandbls;
kernRight = Germandbls;
lastChange = "2025-07-16 19:16:02 +0000";
layers = (
{
anchors = (
{
name = bottom;
pos = (249,0);
},
{
name = top;
pos = (249,650);
}
);
hints = (
{
name = _corner.ROUND;
origin = (0,12);
scale = (1.08,1.08);
type = Corner;
},
{
name = _corner.ROUND;
origin = (0,15);
type = Corner;
},
{
name = _corner.ROUND;
origin = (0,5);
scale = (0.3,0.3);
type = Corner;
},
{
name = _corner.ROUND;
options = 2;
origin = (0,4);
scale = (-0.3,0.3);
type = Corner;
},
{
name = _corner.ROUND;
origin = (0,9);
scale = (0.3,0.3);
type = Corner;
},
{
name = _corner.ROUND;
options = 2;
origin = (0,8);
scale = (-0.3,0.3);
type = Corner;
},
{
name = _segment.DOUBLECUT;
origin = (0,14);
type = Segment;
},
{
name = _corner.ROUND;
origin = (0,0);
scale = (1.2,1.2);
type = Corner;
},
{
name = _corner.ROUND;
origin = (0,3);
scale = (0.3,0.3);
type = Corner;
}
);
layerId = m01;
shapes = (
{
closed = 1;
nodes = (
(25,650,l),
(25,0,l),
(175,0,l),
(175,540,l),
(325,540,l),
(325,380,l),
(255,380,l),
(255,270,l),
(325,270,l),
(325,110,l),
(225,110,l),
(225,0,l),
(475,0,l),
(475,223,l),
(475,427,l),
(475,650,l)
);
}
);
width = 497;
},
{
anchors = (
{
name = bottom;
pos = (274,0);
},
{
name = top;
pos = (274,650);
}
);
hints = (
{
name = _corner.ROUND;
origin = (0,12);
scale = (1.08,1.08);
type = Corner;
},
{
name = _corner.ROUND;
origin = (0,15);
type = Corner;
},
{
name = _corner.ROUND;
origin = (0,5);
scale = (0.3,0.3);
type = Corner;
},
{
name = _corner.ROUND;
options = 2;
origin = (0,4);
scale = (-0.5,0.5);
type = Corner;
},
{
name = _corner.ROUND;
origin = (0,9);
scale = (0.5,0.5);
type = Corner;
},
{
name = _corner.ROUND;
options = 2;
origin = (0,8);
scale = (-0.3,0.3);
type = Corner;
},
{
name = _segment.DOUBLECUT;
origin = (0,14);
scale = (0.8,0.8);
type = Segment;
},
{
name = _corner.ROUND;
origin = (0,0);
scale = (1.2,1.2);
type = Corner;
},
{
name = _corner.ROUND;
origin = (0,3);
scale = (0.6,0.6);
type = Corner;
}
);
layerId = m002;
shapes = (
{
closed = 1;
nodes = (
(50,650,l),
(50,0,l),
(120,0,l),
(120,590,l),
(430,590,l),
(430,355,l),
(260,355,l),
(260,295,l),
(430,295,l),
(430,60,l),
(190,60,l),
(190,0,l),
(500,0,l),
(500,223,l),
(500,427,l),
(500,650,l)
);
}
);
width = 544;
}
);
metricLeft = "=H";
metricRight = "=O";
unicode = 7838;
},
{
glyphname = T;
kernLeft = T;
kernRight = T;
lastChange = "2025-06-20 14:39:24 +0000";
layers = (
{
anchors = (
{
name = bottom;
pos = (196,0);
},
{
name = center;
pos = (196,325);
},
{
name = top;
pos = (196,650);
}
);
background = {
shapes = (
{
closed = 1;
nodes = (
(271,590,l),
(411,590,l),
(412,700,l),
(271,700,l)
);
},
{
closed = 1;
nodes = (
(121,0,l),
(271,0,l),
(271,700,l),
(121,700,l)
);
},
{
closed = 1;
nodes = (
(-19,590,l),
(121,590,l),
(121,700,l),
(-20,700,l)
);
}
);
};
layerId = m01;
shapes = (
{
closed = 1;
nodes = (
(121,0,l),
(271,0,l),
(271,650,l),
(121,650,l)
);
},
{
closed = 1;
nodes = (
(271,540,l),
(381,540,l),
(381,650,l),
(271,650,l)
);
},
{
closed = 1;
nodes = (
(11,540,l),
(121,540,l),
(121,650,l),
(11,650,l)
);
}
);
width = 392;
},
{
anchors = (
{
name = bottom;
pos = (212,0);
},
{
name = center;
pos = (212,325);
},
{
name = top;
pos = (212,650);
}
);
background = {
shapes = (
{
closed = 1;
nodes = (
(287,590,l),
(427,590,l),
(428,700,l),
(287,700,l)
);
},
{
closed = 1;
nodes = (
(137,0,l),
(287,0,l),
(287,700,l),
(137,700,l)
);
},
{
closed = 1;
nodes = (
(-3,590,l),
(137,590,l),
(137,700,l),
(-4,700,l)
);
}
);
};
layerId = m002;
shapes = (
{
closed = 1;
nodes = (
(177,0,l),
(247,0,l),
(247,650,l),
(177,650,l)
);
},
{
closed = 1;
nodes = (
(247,590,l),
(402,590,l),
(402,650,l),
(247,650,l)
);
},
{
closed = 1;
nodes = (
(22,590,l),
(177,590,l),
(177,650,l),
(22,650,l)
);
}
);
width = 424;
}
);
metricLeft = "=O*.5";
metricRight = "=O*.5";
unicode = 84;
},
{
glyphname = U;
kernLeft = U;
kernRight = U;
lastChange = "2025-06-19 18:18:44 +0000";
layers = (
{
anchors = (
{
name = bottom;
pos = (222,0);
},
{
name = ogonek;
pos = (400,10);
},
{
name = top;
pos = (222,650);
},
{
name = topright;
pos = (424,650);
}
);
hints = (
{
name = _corner.ROUND;
origin = (0,0);
type = Corner;
},
{
name = _corner.ROUND;
origin = (0,1);
type = Corner;
},
{
name = _corner.ROUND;
origin = (0,4);
scale = (0.3,0.3);
type = Corner;
},
{
name = _corner.ROUND;
origin = (0,5);
scale = (0.3,0.3);
type = Corner;
}
);
layerId = m01;
shapes = (
{
closed = 1;
nodes = (
(22,0,l),
(422,0,l),
(422,650,l),
(272,650,l),
(272,110,l),
(172,110,l),
(172,650,l),
(22,650,l)
);
}
);
width = 444;
},
{
anchors = (
{
name = bottom;
pos = (264,0);
},
{
name = ogonek;
pos = (475,10);
},
{
name = top;
pos = (264,650);
},
{
name = topright;
pos = (508,650);
}
);
hints = (
{
name = _corner.ROUND;
origin = (0,0);
type = Corner;
},
{
name = _corner.ROUND;
origin = (0,1);
type = Corner;
},
{
name = _corner.ROUND;
origin = (0,4);
scale = (0.65,0.65);
type = Corner;
},
{
name = _corner.ROUND;
origin = (0,5);
scale = (0.65,0.65);
type = Corner;
}
);
layerId = m002;
shapes = (
{
closed = 1;
nodes = (
(44,0,l),
(484,0,l),
(484,650,l),
(414,650,l),
(414,60,l),
(114,60,l),
(114,650,l),
(44,650,l)
);
}
);
width = 528;
}
);
metricLeft = O;
metricRight = O;
unicode = 85;
},
{
glyphname = V;
kernLeft = V;
kernRight = V;
lastChange = "2025-06-23 12:59:10 +0000";
layers = (
{
anchors = (
{
name = bottom;
pos = (211,0);
},
{
name = top;
pos = (211,650);
}
);
layerId = m01;
shapes = (
{
closed = 1;
nodes = (
(236,0,l),
(151,650,l),
(11,650,l),
(126,0,l)
);
},
{
closed = 1;
nodes = (
(411,650,l),
(261,650,l),
(186,0,l),
(306,0,l)
);
}
);
width = 422;
},
{
anchors = (
{
name = bottom;
pos = (257,0);
},
{
name = top;
pos = (257,650);
}
);
layerId = m002;
shapes = (
{
closed = 1;
nodes = (
(292,0,l),
(92,650,l),
(22,650,l),
(222,0,l)
);
},
{
closed = 1;
nodes = (
(492,650,l),
(422,650,l),
(222,0,l),
(292,0,l)
);
}
);
width = 514;
}
);
metricLeft = "=O*.5";
metricRight = "=O*.5";
unicode = 86;
},
{
glyphname = W;
kernLeft = W;
kernRight = W;
lastChange = "2025-07-07 14:36:00 +0000";
layers = (
{
anchors = (
{
name = bottom;
pos = (376,0);
},
{
name = top;
pos = (376,650);
}
);
background = {
shapes = (
{
closed = 1;
nodes = (
(131,0,l),
(281,0,l),
(161,650,l),
(11,650,l)
);
},
{
closed = 1;
nodes = (
(470,0,l),
(620,0,l),
(740,650,l),
(590,650,l)
);
},
{
closed = 1;
nodes = (
(171,0,l),
(281,0,l),
(431,650,l),
(321,650,l)
);
},
{
closed = 1;
nodes = (
(321,650,l),
(470,0,l),
(580,0,l),
(430,650,l)
);
}
);
};
layerId = m01;
shapes = (
{
closed = 1;
nodes = (
(131,0,l),
(291,0,l),
(161,650,l),
(11,650,l)
);
},
{
closed = 1;
nodes = (
(460,0,l),
(620,0,l),
(740,650,l),
(590,650,l)
);
},
{
closed = 1;
nodes = (
(171,0,l),
(291,0,l),
(441,650,l),
(311,650,l)
);
},
{
closed = 1;
nodes = (
(311,650,l),
(460,0,l),
(580,0,l),
(440,650,l)
);
}
);
width = 751;
},
{
anchors = (
{
name = bottom;
pos = (327,0);
},
{
name = top;
pos = (327,650);
}
);
layerId = m002;
shapes = (
{
closed = 1;
nodes = (
(142,0,l),
(212,0,l),
(92,650,l),
(22,650,l)
);
},
{
closed = 1;
nodes = (
(172,0,l),
(242,0,l),
(362,650,l),
(292,650,l)
);
},
{
closed = 1;
nodes = (
(562,650,l),
(442,0,l),
(512,0,l),
(632,650,l)
);
},
{
closed = 1;
nodes = (
(292,650,l),
(412,0,l),
(482,0,l),
(362,650,l)
);
}
);
width = 654;
}
);
metricLeft = "=O*.5";
metricRight = "=O*.5";
unicode = 87;
},
{
glyphname = X;
kernLeft = X;
kernRight = X;
lastChange = "2025-06-19 21:28:06 +0000";
layers = (
{
anchors = (
{
name = bottom;
pos = (224,0);
},
{
name = top;
pos = (224,650);
}
);
layerId = m01;
shapes = (
{
closed = 1;
nodes = (
(436,0,l),
(151,650,l),
(11,650,l),
(306,0,l)
);
},
{
closed = 1;
nodes = (
(436,650,l),
(296,650,l),
(11,0,l),
(141,0,l)
);
}
);
width = 447;
},
{
anchors = (
{
name = bottom;
pos = (453,0);
},
{
name = top;
pos = (453,650);
}
);
background = {
shapes = (
{
closed = 1;
nodes = (
(462,0,l),
(92,650,l),
(22,650,l),
(392,0,l)
);
},
{
closed = 1;
nodes = (
(462,650,l),
(392,650,l),
(22,0,l),
(92,0,l)
);
}
);
};
layerId = m002;
shapes = (
{
closed = 1;
nodes = (
(462,0,l),
(92,650,l),
(22,650,l),
(392,0,l)
);
},
{
closed = 1;
nodes = (
(462,650,l),
(392,650,l),
(22,0,l),
(92,0,l)
);
}
);
width = 484;
}
);
metricLeft = "=O*0.5";
metricRight = "=O*.5";
unicode = 88;
},
{
glyphname = Y;
kernLeft = Y;
kernRight = Y;
lastChange = "2025-06-19 22:02:08 +0000";
layers = (
{
anchors = (
{
name = bottom;
pos = (217,0);
},
{
name = top;
pos = (217,650);
},
{
name = topleft;
pos = (20,650);
}
);
background = {
shapes = (
{
closed = 1;
nodes = (
(142,0,l),
(292,0,l),
(292,211,l),
(142,211,l)
);
},
{
closed = 1;
nodes = (
(287,190,l),
(151,650,l),
(11,650,l),
(147,190,l)
);
},
{
closed = 1;
nodes = (
(423,650,l),
(283,650,l),
(147,190,l),
(287,190,l)
);
}
);
};
layerId = m01;
shapes = (
{
closed = 1;
nodes = (
(142,0,l),
(292,0,l),
(292,211,l),
(142,211,l)
);
},
{
closed = 1;
nodes = (
(287,190,l),
(151,650,l),
(11,650,l),
(147,190,l)
);
},
{
closed = 1;
nodes = (
(423,650,l),
(283,650,l),
(147,190,l),
(287,190,l)
);
}
);
width = 434;
},
{
anchors = (
{
name = bottom;
pos = (242,0);
},
{
name = top;
pos = (242,650);
},
{
name = topleft;
pos = (20,650);
}
);
background = {
shapes = (
{
closed = 1;
nodes = (
(277,0,l),
(277,291,l),
(207,291,l),
(207,0,l)
);
},
{
closed = 1;
nodes = (
(277,260,l),
(148,650,l),
(78,650,l),
(207,260,l)
);
},
{
closed = 1;
nodes = (
(406,650,l),
(336,650,l),
(207,260,l),
(277,260,l)
);
}
);
};
layerId = m002;
shapes = (
{
closed = 1;
nodes = (
(277,0,l),
(277,291,l),
(207,291,l),
(207,0,l)
);
},
{
closed = 1;
nodes = (
(277,260,l),
(92,650,l),
(22,650,l),
(207,260,l)
);
},
{
closed = 1;
nodes = (
(462,650,l),
(392,650,l),
(207,260,l),
(277,260,l)
);
}
);
width = 484;
}
);
metricLeft = "=O*.5";
metricRight = "=O*.5";
unicode = 89;
},
{
glyphname = Z;
kernLeft = Z;
kernRight = Z;
lastChange = "2025-06-19 18:38:40 +0000";
layers = (
{
anchors = (
{
name = bottom;
pos = (202,0);
},
{
name = center;
pos = (202,325);
},
{
name = top;
pos = (202,650);
}
);
background = {
shapes = (
{
closed = 0;
nodes = (
(417,700,l)
);
}
);
};
layerId = m01;
shapes = (
{
closed = 1;
nodes = (
(387,520,l),
(237,520,l),
(17,130,l),
(167,130,l)
);
},
{
closed = 1;
nodes = (
(17,520,l),
(387,520,l),
(387,650,l),
(17,650,l)
);
},
{
closed = 1;
nodes = (
(17,0,l),
(387,0,l),
(387,130,l),
(17,130,l)
);
}
);
width = 404;
},
{
anchors = (
{
name = bottom;
pos = (238,0);
},
{
name = center;
pos = (238,325);
},
{
name = top;
pos = (238,650);
}
);
background = {
shapes = (
{
closed = 0;
nodes = (
(433,700,l)
);
}
);
};
layerId = m002;
shapes = (
{
closed = 1;
nodes = (
(443,590,l),
(373,590,l),
(33,60,l),
(103,60,l)
);
},
{
closed = 1;
nodes = (
(33,590,l),
(443,590,l),
(443,650,l),
(33,650,l)
);
},
{
closed = 1;
nodes = (
(33,0,l),
(443,0,l),
(443,60,l),
(33,60,l)
);
}
);
width = 476;
}
);
metricLeft = "=O*.75";
metricRight = "=O*.75";
unicode = 90;
},
{
glyphname = a;
kernLeft = a;
kernRight = n;
lastChange = "2025-09-26 14:14:12 +0000";
layers = (
{
anchors = (
{
name = bottom;
pos = (206,0);
},
{
name = ogonek;
pos = (371,10);
},
{
name = top;
pos = (206,500);
}
);
hints = (
{
name = _corner.ROUND;
origin = (0,6);
scale = (0.3,0.3);
type = Corner;
},
{
name = _corner.ROUND;
options = 2;
origin = (0,5);
scale = (-0.3,0.3);
type = Corner;
},
{
name = _corner.ROUND;
origin = (0,2);
type = Corner;
},
{
name = _corner.ROUND;
origin = (0,1);
type = Corner;
},
{
name = _corner.ROUND;
options = 2;
origin = (1,1);
scale = (-0.2,0.2);
type = Corner;
},
{
name = _corner.ROUND;
origin = (1,0);
scale = (0.3,0.3);
type = Corner;
},
{
name = _corner.ROUND;
origin = (0,5);
scale = (0.3,0.3);
type = Corner;
},
{
name = _corner.ROUND;
origin = (0,6);
scale = (0.3,0.3);
type = Corner;
},
{
name = _corner.ROUND;
origin = (0,11);
scale = (0.75,0.75);
type = Corner;
},
{
name = _segment.CUT;
options = 1;
origin = (0,13);
scale = (-1,1);
type = Segment;
}
);
layerId = m01;
shapes = (
{
closed = 1;
nodes = (
(387,0,l),
(387,500,l),
(22,500,l),
(22,335,l),
(162,335,l),
(162,400,l),
(247,400,l),
(247,345,l),
(247,269,o),
(22,326,o),
(22,160,c),
(22,0,l),
(162,0,l),
(247,0,l)
);
},
{
closed = 1;
nodes = (
(247,100,l),
(162,100,l),
(162,170,ls),
(162,207,o),
(201,215,o),
(247,225,c)
);
}
);
width = 412;
},
{
anchors = (
{
name = bottom;
pos = (230,0);
},
{
name = ogonek;
pos = (413,10);
},
{
name = top;
pos = (230,450);
}
);
backgroundImage = {
crop = (0,1.675,39.606,81.325);
imagePath = "../png/abcdefg.png";
locked = 1;
pos = (32,-167);
scale = (10.15,10.15);
};
hints = (
{
name = _corner.ROUND;
origin = (0,6);
scale = (0.6,0.6);
type = Corner;
},
{
name = _corner.ROUND;
options = 2;
origin = (0,5);
scale = (-0.6,0.6);
type = Corner;
},
{
name = _corner.ROUND;
origin = (0,2);
type = Corner;
},
{
name = _corner.ROUND;
origin = (0,1);
type = Corner;
},
{
name = _corner.ROUND;
options = 2;
origin = (1,1);
scale = (-0.5,0.5);
type = Corner;
},
{
name = _corner.ROUND;
origin = (1,0);
scale = (0.8,0.5);
type = Corner;
},
{
name = _corner.ROUND;
origin = (0,5);
scale = (0.3,0.3);
type = Corner;
},
{
name = _corner.ROUND;
origin = (0,6);
scale = (0.3,0.3);
type = Corner;
},
{
name = _corner.ROUND;
origin = (0,11);
scale = (0.75,0.75);
type = Corner;
},
{
name = _segment.CUT;
options = 1;
origin = (0,13);
scale = (-1,1);
type = Segment;
},
{
horizontal = 1;
options = 4;
origin = (0,13);
target = (1,1);
type = TTStem;
},
{
horizontal = 1;
options = 4;
origin = (0,2);
target = (0,6);
type = TTStem;
},
{
horizontal = 1;
options = 4;
origin = (0,2);
target = (0,4);
type = TTStem;
},
{
horizontal = 1;
options = 4;
place = (225,2000);
type = TTStem;
}
);
layerId = m002;
shapes = (
{
closed = 1;
nodes = (
(409,0,l),
(409,450,l),
(44,450,l),
(44,285,l),
(104,285,l),
(104,400,l),
(349,400,l),
(349,295,l),
(349,219,o),
(44,276,o),
(44,110,c),
(44,0,l),
(184,0,l),
(349,0,l)
);
},
{
closed = 1;
nodes = (
(349,50,l),
(104,50,l),
(104,110,ls),
(104,211,o),
(286,186,o),
(349,225,c)
);
}
);
width = 459;
}
);
metricLeft = "=o";
metricRight = "=h";
unicode = 97;
},
{
glyphname = ae;
kernLeft = a;
kernRight = e;
lastChange = "2025-09-26 14:17:02 +0000";
layers = (
{
anchors = (
{
name = bottom;
pos = (317,0);
},
{
name = top;
pos = (317,500);
}
);
background = {
hints = (
{
name = _segment.DOUBLECUT;
origin = (0,0);
type = Segment;
},
{
name = _corner.ROUND;
origin = (0,1);
type = Corner;
},
{
name = _corner.ROUND;
origin = (0,2);
type = Corner;
},
{
name = _corner.ROUND;
origin = (0,5);
scale = (0.3,0.3);
type = Corner;
},
{
name = _corner.ROUND;
origin = (0,6);
scale = (0.3,0.3);
type = Corner;
},
{
name = _corner.ROUND;
origin = (0,11);
scale = (0.75,0.75);
type = Corner;
},
{
name = _corner.ROUND;
origin = (1,0);
scale = (0.3,0.3);
type = Corner;
},
{
name = _corner.ROUND;
options = 2;
origin = (1,1);
scale = (-0.2,0.2);
type = Corner;
},
{
name = _corner.ROUND;
origin = (2,0);
scale = (1.08,1.08);
type = Corner;
},
{
name = _corner.ROUND;
origin = (2,1);
scale = (1.08,1.08);
type = Corner;
},
{
name = _corner.ROUND;
origin = (2,2);
scale = (1.08,1.08);
type = Corner;
},
{
name = _corner.ROUND;
origin = (2,5);
scale = (0.3,0.3);
type = Corner;
},
{
name = _corner.ROUND;
origin = (2,6);
scale = (0.3,0.3);
type = Corner;
},
{
name = _corner.ROUND;
origin = (2,9);
scale = (1.08,1.08);
type = Corner;
},
{
name = _corner.ROUND;
options = 2;
origin = (3,2);
scale = (-0.3,0.3);
type = Corner;
},
{
name = _corner.ROUND;
options = 2;
origin = (3,3);
scale = (-0.3,0.3);
type = Corner;
}
);
shapes = (
{
closed = 1;
nodes = (
(387,0,l),
(387,500,l),
(22,500,l),
(22,335,l),
(162,335,l),
(162,400,l),
(247,400,l),
(247,345,l),
(247,269,o),
(22,326,o),
(22,160,c),
(22,0,l),
(162,0,l)
);
},
{
closed = 1;
nodes = (
(247,100,l),
(162,100,l),
(162,170,ls),
(162,207,o),
(201,215,o),
(247,225,c)
);
},
{
closed = 1;
nodes = (
(247,500,l),
(247,0,l),
(612,0,l),
(612,159,l),
(472,159,l),
(472,100,l),
(387,100,l),
(387,216,l),
(612,216,l),
(612,500,l)
);
},
{
closed = 1;
nodes = (
(472,296,l),
(387,296,l),
(387,400,l),
(472,400,l)
);
}
);
};
hints = (
{
name = _corner.ROUND;
type = Corner;
},
{
name = _corner.ROUND;
options = 2;
scale = (-0.3,0.3);
type = Corner;
},
{
name = _corner.ROUND;
options = 2;
scale = (-0.3,0.3);
type = Corner;
},
{
name = _corner.ROUND;
type = Corner;
},
{
name = _corner.ROUND;
type = Corner;
},
{
name = _corner.ROUND;
type = Corner;
},
{
name = _corner.ROUND;
scale = (0.3,0.3);
type = Corner;
},
{
name = _corner.ROUND;
scale = (0.3,0.3);
type = Corner;
},
{
name = _corner.ROUND;
origin = (0,6);
scale = (0.3,0.3);
type = Corner;
},
{
name = _corner.ROUND;
options = 2;
origin = (0,5);
scale = (-0.3,0.3);
type = Corner;
},
{
name = _corner.ROUND;
origin = (0,2);
type = Corner;
},
{
name = _corner.ROUND;
origin = (0,1);
type = Corner;
},
{
name = _corner.ROUND;
options = 2;
origin = (1,1);
scale = (-0.2,0.2);
type = Corner;
},
{
name = _corner.ROUND;
origin = (1,0);
scale = (0.3,0.3);
type = Corner;
},
{
name = _corner.ROUND;
origin = (0,5);
scale = (0.3,0.3);
type = Corner;
},
{
name = _corner.ROUND;
origin = (0,6);
scale = (0.3,0.3);
type = Corner;
},
{
name = _corner.ROUND;
origin = (0,11);
scale = (0.75,0.75);
type = Corner;
},
{
name = _corner.ROUND;
origin = (0,0);
type = Corner;
}
);
layerId = m01;
shapes = (
{
closed = 1;
nodes = (
(387,0,l),
(387,500,l),
(22,500,l),
(22,335,l),
(162,335,l),
(162,400,l),
(247,400,l),
(247,345,l),
(247,269,o),
(22,326,o),
(22,160,c),
(22,0,l)
);
},
{
closed = 1;
nodes = (
(247,100,l),
(162,100,l),
(162,170,ls),
(162,207,o),
(201,215,o),
(247,225,c)
);
},
{
pos = (225,0);
ref = e;
}
);
width = 634;
},
{
anchors = (
{
name = bottom;
pos = (379,0);
},
{
name = top;
pos = (379,450);
}
);
background = {
hints = (
{
name = _segment.DOUBLECUT;
type = Segment;
},
{
name = _corner.ROUND;
type = Corner;
},
{
name = _corner.ROUND;
type = Corner;
},
{
name = _corner.ROUND;
scale = (0.3,0.3);
type = Corner;
},
{
name = _corner.ROUND;
scale = (0.3,0.3);
type = Corner;
},
{
name = _corner.ROUND;
scale = (0.75,0.75);
type = Corner;
},
{
name = _corner.ROUND;
scale = (0.3,0.3);
type = Corner;
},
{
name = _corner.ROUND;
options = 2;
scale = (-0.2,0.2);
type = Corner;
},
{
name = _corner.ROUND;
scale = (1.08,1.08);
type = Corner;
},
{
name = _corner.ROUND;
scale = (1.08,1.08);
type = Corner;
},
{
name = _corner.ROUND;
scale = (1.08,1.08);
type = Corner;
},
{
name = _corner.ROUND;
scale = (0.3,0.3);
type = Corner;
},
{
name = _corner.ROUND;
scale = (0.3,0.3);
type = Corner;
},
{
name = _corner.ROUND;
scale = (1.08,1.08);
type = Corner;
},
{
name = _corner.ROUND;
options = 2;
scale = (-0.3,0.3);
type = Corner;
},
{
name = _corner.ROUND;
options = 2;
scale = (-0.3,0.3);
type = Corner;
},
{
name = _corner.ROUND;
type = Corner;
},
{
name = _corner.ROUND;
scale = (1.1,1.1);
type = Corner;
},
{
name = _corner.ROUND;
scale = (1.1,1.1);
type = Corner;
},
{
name = _corner.ROUND;
scale = (0.3,0.3);
type = Corner;
},
{
name = _corner.ROUND;
scale = (0.3,0.3);
type = Corner;
},
{
name = _corner.ROUND;
scale = (0.75,0.75);
type = Corner;
},
{
name = _corner.ROUND;
scale = (0.8,0.5);
type = Corner;
},
{
name = _corner.ROUND;
options = 2;
scale = (-0.5,0.5);
type = Corner;
},
{
name = _corner.ROUND;
origin = (0,1);
scale = (1,1.1);
type = Corner;
},
{
name = _corner.ROUND;
origin = (0,2);
scale = (1,1.1);
type = Corner;
},
{
name = _corner.ROUND;
origin = (0,5);
scale = (0.3,0.3);
type = Corner;
},
{
name = _corner.ROUND;
origin = (0,6);
scale = (0.3,0.3);
type = Corner;
},
{
name = _corner.ROUND;
origin = (0,11);
scale = (0.75,0.75);
type = Corner;
},
{
name = _segment.CUT;
options = 1;
origin = (0,13);
scale = (-1,1);
type = Segment;
},
{
name = _corner.ROUND;
origin = (1,0);
scale = (0.8,0.5);
type = Corner;
},
{
name = _corner.ROUND;
options = 2;
origin = (1,1);
scale = (-0.5,0.5);
type = Corner;
}
);
shapes = (
{
closed = 1;
nodes = (
(409,0,l),
(409,500,l),
(44,500,l),
(44,335,l),
(104,335,l),
(104,450,l),
(349,450,l),
(349,345,l),
(349,269,o),
(44,326,o),
(44,160,c),
(44,0,l),
(184,0,l),
(349,0,l)
);
},
{
closed = 1;
nodes = (
(349,50,l),
(104,50,l),
(104,160,ls),
(104,261,o),
(286,236,o),
(349,275,c)
);
}
);
};
hints = (
{
name = _corner.ROUND;
type = Corner;
},
{
name = _corner.ROUND;
options = 2;
scale = (-0.3,0.3);
type = Corner;
},
{
name = _corner.ROUND;
options = 2;
scale = (-0.3,0.3);
type = Corner;
},
{
name = _corner.ROUND;
type = Corner;
},
{
name = _corner.ROUND;
type = Corner;
},
{
name = _corner.ROUND;
type = Corner;
},
{
name = _corner.ROUND;
scale = (0.3,0.3);
type = Corner;
},
{
name = _corner.ROUND;
scale = (0.3,0.3);
type = Corner;
},
{
horizontal = 1;
options = 4;
place = (0,50);
type = TTStem;
},
{
horizontal = 1;
options = 4;
place = (500,50);
type = TTStem;
},
{
horizontal = 1;
options = 4;
place = (500,165);
type = TTStem;
},
{
horizontal = 1;
options = 4;
place = (225,2000);
type = TTStem;
},
{
horizontal = 1;
options = 4;
place = (0,50);
type = TTStem;
},
{
horizontal = 1;
options = 4;
place = (500,50);
type = TTStem;
},
{
horizontal = 1;
options = 4;
place = (500,165);
type = TTStem;
},
{
horizontal = 1;
options = 4;
place = (225,2000);
type = TTStem;
},
{
name = _corner.ROUND;
origin = (0,6);
scale = (0.6,0.6);
type = Corner;
},
{
name = _corner.ROUND;
options = 2;
origin = (0,5);
scale = (-0.6,0.6);
type = Corner;
},
{
name = _corner.ROUND;
origin = (0,2);
scale = (1,1.1);
type = Corner;
},
{
name = _corner.ROUND;
origin = (0,1);
scale = (1,1.1);
type = Corner;
},
{
name = _corner.ROUND;
options = 2;
origin = (1,1);
scale = (-0.5,0.5);
type = Corner;
},
{
name = _corner.ROUND;
origin = (1,0);
scale = (0.8,0.5);
type = Corner;
},
{
name = _corner.ROUND;
origin = (0,5);
scale = (0.3,0.3);
type = Corner;
},
{
name = _corner.ROUND;
origin = (0,6);
scale = (0.3,0.3);
type = Corner;
},
{
name = _corner.ROUND;
origin = (0,11);
scale = (0.75,0.75);
type = Corner;
},
{
horizontal = 1;
options = 4;
origin = (0,0);
target = (1,1);
type = TTStem;
},
{
horizontal = 1;
options = 4;
origin = (0,2);
target = (0,6);
type = TTStem;
},
{
horizontal = 1;
options = 4;
origin = (0,2);
target = (0,4);
type = TTStem;
},
{
horizontal = 1;
options = 4;
place = (225,2000);
type = TTStem;
},
{
name = _corner.ROUND;
origin = (0,0);
type = Corner;
}
);
layerId = m002;
shapes = (
{
closed = 1;
nodes = (
(409,0,l),
(409,450,l),
(44,450,l),
(44,285,l),
(104,285,l),
(104,400,l),
(349,400,l),
(349,295,l),
(349,219,o),
(44,276,o),
(44,110,c),
(44,0,l)
);
},
{
closed = 1;
nodes = (
(349,50,l),
(104,50,l),
(104,110,ls),
(104,211,o),
(286,186,o),
(349,225,c)
);
},
{
pos = (305,0);
ref = e;
}
);
width = 758;
}
);
metricLeft = "=o";
metricRight = "=o";
unicode = 230;
},
{
glyphname = b;
kernLeft = h;
kernRight = o;
lastChange = "2025-09-26 14:13:48 +0000";
layers = (
{
anchors = (
{
name = bottom;
pos = (206,0);
},
{
name = center;
pos = (103,620);
},
{
name = top;
pos = (206,500);
}
);
background = {
hints = (
{
name = _segment.CUT;
type = Segment;
},
{
name = _corner.ROUND;
type = Corner;
},
{
name = _corner.ROUND;
type = Corner;
},
{
name = _segment.CUT;
options = 1;
scale = (-1,1);
type = Segment;
},
{
name = _corner.ROUND;
scale = (0.3,0.3);
type = Corner;
},
{
name = _corner.ROUND;
scale = (0.3,0.3);
type = Corner;
},
{
name = _corner.ROUND;
options = 2;
scale = (-0.3,0.3);
type = Corner;
},
{
name = _corner.ROUND;
options = 2;
scale = (-0.3,0.3);
type = Corner;
},
{
name = _segment.CUT;
type = Segment;
},
{
name = _corner.ROUND;
type = Corner;
},
{
name = _corner.ROUND;
type = Corner;
},
{
name = _segment.CUT;
options = 1;
scale = (-1,1);
type = Segment;
},
{
name = _corner.ROUND;
scale = (0.3,0.3);
type = Corner;
},
{
name = _corner.ROUND;
scale = (0.3,0.3);
type = Corner;
},
{
name = _corner.ROUND;
options = 2;
scale = (-0.3,0.3);
type = Corner;
},
{
name = _corner.ROUND;
options = 2;
scale = (-0.3,0.3);
type = Corner;
},
{
name = _segment.CUT;
origin = (0,1);
type = Segment;
},
{
name = _corner.ROUND;
origin = (0,2);
type = Corner;
},
{
name = _corner.ROUND;
origin = (0,3);
type = Corner;
},
{
name = _segment.CUT;
options = 1;
origin = (0,5);
scale = (-1,1);
type = Segment;
},
{
name = _corner.ROUND;
origin = (1,0);
scale = (0.3,0.3);
type = Corner;
},
{
name = _corner.ROUND;
origin = (1,1);
scale = (0.3,0.3);
type = Corner;
},
{
name = _corner.ROUND;
options = 2;
origin = (1,2);
scale = (-0.3,0.3);
type = Corner;
},
{
name = _corner.ROUND;
options = 2;
origin = (1,3);
scale = (-0.3,0.3);
type = Corner;
}
);
shapes = (
{
closed = 1;
nodes = (
(165,0,l),
(250,0,l),
(390,0,l),
(390,530,l),
(250,530,l),
(165,530,l),
(165,700,l),
(25,700,l),
(25,0,l)
);
},
{
closed = 1;
nodes = (
(165,430,l),
(250,430,l),
(250,100,l),
(165,100,l)
);
}
);
};
guides = (
{
angle = 89.6562;
pos = (258,250);
}
);
hints = (
{
name = _corner.BASE;
type = Corner;
},
{
name = _corner.BASE;
scale = (1.08,1.08);
type = Corner;
},
{
name = _corner.BASE;
scale = (1.08,1.08);
type = Corner;
},
{
name = _corner.BASE;
type = Corner;
},
{
name = _corner.BASE;
scale = (0.3,0.3);
type = Corner;
},
{
name = _corner.BASE;
options = 2;
scale = (-0.3,0.3);
type = Corner;
},
{
name = _corner.BASE;
scale = (0.3,0.3);
type = Corner;
},
{
name = _corner.BASE;
options = 2;
scale = (-0.3,0.3);
type = Corner;
},
{
name = _corner.ROUND;
type = Corner;
},
{
name = _corner.ROUND;
type = Corner;
},
{
name = _corner.ROUND;
type = Corner;
},
{
name = _corner.ROUND;
type = Corner;
},
{
name = _corner.ROUND;
scale = (0.3,0.3);
type = Corner;
},
{
name = _corner.ROUND;
scale = (0.3,0.3);
type = Corner;
},
{
name = _corner.ROUND;
options = 2;
scale = (-0.3,0.3);
type = Corner;
},
{
name = _corner.ROUND;
options = 2;
scale = (-0.3,0.3);
type = Corner;
},
{
name = _corner.ROUND;
type = Corner;
},
{
name = _corner.ROUND;
type = Corner;
},
{
name = _corner.ROUND;
type = Corner;
},
{
name = _corner.ROUND;
type = Corner;
},
{
name = _corner.ROUND;
options = 2;
scale = (-0.3,0.3);
type = Corner;
},
{
name = _corner.ROUND;
scale = (0.3,0.3);
type = Corner;
},
{
name = _corner.ROUND;
scale = (0.3,0.3);
type = Corner;
},
{
name = _corner.ROUND;
options = 2;
scale = (-0.3,0.3);
type = Corner;
},
{
name = _segment.CUT;
type = Segment;
},
{
name = _corner.ROUND;
type = Corner;
},
{
name = _corner.ROUND;
type = Corner;
},
{
name = _corner.ROUND;
options = 2;
scale = (-0.3,0.3);
type = Corner;
},
{
name = _corner.ROUND;
scale = (0.3,0.3);
type = Corner;
},
{
name = _corner.ROUND;
scale = (0.3,0.3);
type = Corner;
},
{
name = _corner.ROUND;
options = 2;
scale = (-0.3,0.3);
type = Corner;
},
{
name = _segment.CUT;
origin = (0,1);
type = Segment;
},
{
name = _corner.ROUND;
origin = (0,2);
type = Corner;
},
{
name = _corner.ROUND;
origin = (0,3);
type = Corner;
},
{
name = _segment.CUT;
options = 1;
origin = (0,5);
scale = (-1,1);
type = Segment;
},
{
name = _corner.ROUND;
origin = (1,0);
scale = (0.3,0.3);
type = Corner;
},
{
name = _corner.ROUND;
origin = (1,1);
scale = (0.3,0.3);
type = Corner;
},
{
name = _corner.ROUND;
options = 2;
origin = (1,2);
scale = (-0.3,0.3);
type = Corner;
},
{
name = _corner.ROUND;
options = 2;
origin = (1,3);
scale = (-0.3,0.3);
type = Corner;
}
);
layerId = m01;
shapes = (
{
closed = 1;
nodes = (
(165,0,l),
(250,0,l),
(390,0,l),
(390,500,l),
(250,500,l),
(165,500,l),
(165,650,l),
(25,650,l),
(25,0,l)
);
},
{
closed = 1;
nodes = (
(165,400,l),
(250,400,l),
(250,100,l),
(165,100,l)
);
}
);
width = 412;
},
{
anchors = (
{
name = bottom;
pos = (230,0);
},
{
name = center;
pos = (115,620);
},
{
name = top;
pos = (230,450);
}
);
background = {
hints = (
{
name = _segment.CUT;
type = Segment;
},
{
name = _corner.ROUND;
type = Corner;
},
{
name = _corner.ROUND;
type = Corner;
},
{
name = _segment.CUT;
options = 1;
scale = (-1,1);
type = Segment;
},
{
name = _corner.ROUND;
scale = (0.3,0.3);
type = Corner;
},
{
name = _corner.ROUND;
scale = (0.3,0.3);
type = Corner;
},
{
name = _corner.ROUND;
options = 2;
scale = (-0.3,0.3);
type = Corner;
},
{
name = _corner.ROUND;
options = 2;
scale = (-0.3,0.3);
type = Corner;
},
{
name = _segment.CUT;
type = Segment;
},
{
name = _corner.ROUND;
type = Corner;
},
{
name = _corner.ROUND;
type = Corner;
},
{
name = _segment.CUT;
options = 1;
scale = (-1,1);
type = Segment;
},
{
name = _corner.ROUND;
scale = (0.3,0.3);
type = Corner;
},
{
name = _corner.ROUND;
scale = (0.3,0.3);
type = Corner;
},
{
name = _corner.ROUND;
options = 2;
scale = (-0.3,0.3);
type = Corner;
},
{
name = _corner.ROUND;
options = 2;
scale = (-0.3,0.3);
type = Corner;
},
{
name = _segment.CUT;
type = Segment;
},
{
name = _corner.ROUND;
type = Corner;
},
{
name = _corner.ROUND;
type = Corner;
},
{
name = _segment.CUT;
options = 1;
scale = (-1,1);
type = Segment;
},
{
name = _corner.ROUND;
scale = (0.3,0.3);
type = Corner;
},
{
name = _corner.ROUND;
scale = (0.3,0.3);
type = Corner;
},
{
name = _corner.ROUND;
options = 2;
scale = (-0.3,0.3);
type = Corner;
},
{
name = _corner.ROUND;
options = 2;
scale = (-0.3,0.3);
type = Corner;
},
{
name = _corner.ROUND;
origin = (0,0);
scale = (0.5,0.8);
type = Corner;
},
{
name = _corner.ROUND;
origin = (0,1);
scale = (0.7,0.7);
type = Corner;
}
);
shapes = (
{
closed = 0;
nodes = (
(110,400,l),
(355,400,l)
);
}
);
};
backgroundImage = {
crop = (38.818,1.675,40.591,81.325);
imagePath = "../png/abcdefg.png";
locked = 1;
pos = (-369,-167);
scale = (10.15,10.15);
};
guides = (
{
angle = 89.6562;
pos = (283,250);
}
);
hints = (
{
name = _corner.BASE;
type = Corner;
},
{
name = _corner.BASE;
scale = (1.08,1.08);
type = Corner;
},
{
name = _corner.BASE;
scale = (1.08,1.08);
type = Corner;
},
{
name = _corner.BASE;
type = Corner;
},
{
name = _corner.BASE;
scale = (0.3,0.3);
type = Corner;
},
{
name = _corner.BASE;
options = 2;
scale = (-0.3,0.3);
type = Corner;
},
{
name = _corner.BASE;
scale = (0.3,0.3);
type = Corner;
},
{
name = _corner.BASE;
options = 2;
scale = (-0.3,0.3);
type = Corner;
},
{
name = _corner.ROUND;
type = Corner;
},
{
name = _corner.ROUND;
type = Corner;
},
{
name = _corner.ROUND;
type = Corner;
},
{
name = _corner.ROUND;
type = Corner;
},
{
name = _corner.ROUND;
scale = (0.3,0.3);
type = Corner;
},
{
name = _corner.ROUND;
scale = (0.3,0.3);
type = Corner;
},
{
name = _corner.ROUND;
options = 2;
scale = (-0.3,0.3);
type = Corner;
},
{
name = _corner.ROUND;
options = 2;
scale = (-0.3,0.3);
type = Corner;
},
{
name = _corner.ROUND;
type = Corner;
},
{
name = _corner.ROUND;
type = Corner;
},
{
name = _corner.ROUND;
type = Corner;
},
{
name = _corner.ROUND;
type = Corner;
},
{
name = _corner.ROUND;
options = 2;
scale = (-0.3,0.3);
type = Corner;
},
{
name = _corner.ROUND;
scale = (0.3,0.3);
type = Corner;
},
{
name = _corner.ROUND;
scale = (0.3,0.3);
type = Corner;
},
{
name = _corner.ROUND;
options = 2;
scale = (-0.3,0.3);
type = Corner;
},
{
name = _segment.CUT;
type = Segment;
},
{
name = _corner.ROUND;
type = Corner;
},
{
name = _corner.ROUND;
type = Corner;
},
{
name = _corner.ROUND;
options = 2;
scale = (-0.3,0.3);
type = Corner;
},
{
name = _corner.ROUND;
scale = (0.3,0.3);
type = Corner;
},
{
name = _corner.ROUND;
scale = (0.3,0.3);
type = Corner;
},
{
name = _corner.ROUND;
options = 2;
scale = (-0.3,0.3);
type = Corner;
},
{
name = _segment.CUT;
origin = (0,1);
type = Segment;
},
{
name = _corner.ROUND;
origin = (0,2);
type = Corner;
},
{
name = _corner.ROUND;
origin = (0,3);
type = Corner;
},
{
name = _segment.CUT;
options = 1;
origin = (0,5);
scale = (-1,1);
type = Segment;
},
{
name = _corner.ROUND;
origin = (1,0);
scale = (0.8,0.5);
type = Corner;
},
{
name = _corner.ROUND;
origin = (1,1);
scale = (0.7,0.7);
type = Corner;
},
{
name = _corner.ROUND;
options = 2;
origin = (1,2);
scale = (-0.7,0.7);
type = Corner;
},
{
name = _corner.ROUND;
options = 2;
origin = (1,3);
scale = (-0.8,0.5);
type = Corner;
}
);
layerId = m002;
shapes = (
{
closed = 1;
nodes = (
(110,0,l),
(275,0,l),
(415,0,l),
(415,450,l),
(275,450,l),
(110,450,l),
(110,650,l),
(50,650,l),
(50,0,l)
);
},
{
closed = 1;
nodes = (
(110,400,l),
(355,400,l),
(355,50,l),
(110,50,l)
);
}
);
width = 459;
}
);
metricLeft = h;
metricRight = "=o";
unicode = 98;
},
{
glyphname = c;
kernLeft = o;
kernRight = c;
lastChange = "2025-09-26 14:09:40 +0000";
layers = (
{
anchors = (
{
name = bottom;
pos = (205,0);
},
{
name = top;
pos = (205,500);
}
);
background = {
hints = (
{
name = _corner.ROUND;
origin = (0,0);
type = Corner;
},
{
name = _corner.ROUND;
origin = (0,1);
type = Corner;
},
{
name = _corner.ROUND;
origin = (0,2);
type = Corner;
},
{
name = _corner.ROUND;
origin = (0,5);
scale = (0.3,0.3);
type = Corner;
},
{
name = _corner.ROUND;
origin = (0,6);
scale = (0.3,0.3);
type = Corner;
},
{
name = _corner.ROUND;
options = 2;
origin = (0,7);
scale = (-0.3,0.3);
type = Corner;
},
{
name = _corner.ROUND;
options = 2;
origin = (0,8);
scale = (-0.3,0.3);
type = Corner;
},
{
name = _corner.ROUND;
origin = (0,11);
type = Corner;
}
);
shapes = (
{
closed = 1;
nodes = (
(22,530,l),
(22,0,l),
(387,0,l),
(387,181,l),
(247,181,l),
(247,100,l),
(162,100,l),
(162,430,l),
(247,430,l),
(247,341,l),
(387,341,l),
(387,530,l)
);
}
);
};
hints = (
{
name = _corner.ROUND;
origin = (0,0);
type = Corner;
},
{
name = _corner.ROUND;
origin = (0,1);
type = Corner;
},
{
name = _corner.ROUND;
origin = (0,2);
type = Corner;
},
{
name = _corner.ROUND;
origin = (0,11);
type = Corner;
},
{
name = _corner.ROUND;
origin = (0,5);
scale = (0.3,0.3);
type = Corner;
},
{
name = _corner.ROUND;
origin = (0,6);
scale = (0.3,0.3);
type = Corner;
},
{
name = _corner.ROUND;
options = 2;
origin = (0,7);
scale = (-0.3,0.3);
type = Corner;
},
{
name = _corner.ROUND;
options = 2;
origin = (0,8);
scale = (-0.3,0.3);
type = Corner;
}
);
layerId = m01;
shapes = (
{
closed = 1;
nodes = (
(22,500,l),
(22,0,l),
(387,0,l),
(387,173,l),
(247,173,l),
(247,100,l),
(162,100,l),
(162,400,l),
(247,400,l),
(247,327,l),
(387,327,l),
(387,500,l)
);
}
);
width = 409;
},
{
anchors = (
{
name = bottom;
pos = (227,0);
},
{
name = top;
pos = (227,450);
}
);
backgroundImage = {
crop = (79.606,1.675,40.295,81.325);
imagePath = "../png/abcdefg.png";
locked = 1;
pos = (-786,-167);
scale = (10.15,10.15);
};
hints = (
{
name = _corner.ROUND;
origin = (0,0);
scale = (1.1,1.1);
type = Corner;
},
{
name = _corner.ROUND;
origin = (0,1);
scale = (1.1,1.1);
type = Corner;
},
{
name = _corner.ROUND;
origin = (0,2);
scale = (1.1,1.1);
type = Corner;
},
{
name = _corner.ROUND;
origin = (0,11);
scale = (1.1,1.1);
type = Corner;
},
{
name = _corner.ROUND;
origin = (0,5);
scale = (0.7,0.7);
type = Corner;
},
{
name = _corner.ROUND;
origin = (0,6);
scale = (0.7,0.7);
type = Corner;
},
{
name = _corner.ROUND;
options = 2;
origin = (0,7);
scale = (-0.7,0.7);
type = Corner;
},
{
name = _corner.ROUND;
options = 2;
origin = (0,8);
scale = (-0.7,0.7);
type = Corner;
}
);
layerId = m002;
shapes = (
{
closed = 1;
nodes = (
(44,450,l),
(44,0,l),
(409,0,l),
(409,173,l),
(349,173,l),
(349,50,l),
(104,50,l),
(104,400,l),
(349,400,l),
(349,277,l),
(409,277,l),
(409,450,l)
);
}
);
width = 453;
}
);
metricLeft = "=o";
metricRight = "=o";
unicode = 99;
},
{
glyphname = d;
kernLeft = o;
kernRight = l;
lastChange = "2025-09-26 14:09:52 +0000";
layers = (
{
anchors = (
{
name = bottom;
pos = (206,0);
},
{
name = center;
pos = (318,565);
},
{
name = top;
pos = (206,500);
},
{
name = topright;
pos = (392,775);
}
);
background = {
hints = (
{
name = _segment.CUT;
origin = (0,3);
type = Segment;
},
{
name = _corner.ROUND;
origin = (0,4);
type = Corner;
},
{
name = _corner.ROUND;
origin = (0,5);
type = Corner;
},
{
name = _segment.CUT;
options = 1;
origin = (0,7);
scale = (-1,1);
type = Segment;
},
{
name = _corner.ROUND;
options = 2;
origin = (1,0);
scale = (-0.3,0.3);
type = Corner;
},
{
name = _corner.ROUND;
origin = (1,1);
scale = (0.3,0.3);
type = Corner;
},
{
name = _corner.ROUND;
origin = (1,2);
scale = (0.3,0.3);
type = Corner;
},
{
name = _corner.ROUND;
options = 2;
origin = (1,3);
scale = (-0.3,0.3);
type = Corner;
}
);
shapes = (
{
closed = 1;
nodes = (
(387,699,l),
(247,699,l),
(247,529,l),
(162,529,l),
(22,529,l),
(22,-1,l),
(162,-1,l),
(247,-1,l),
(387,-1,l)
);
},
{
closed = 1;
nodes = (
(162,99,l),
(162,429,l),
(247,429,l),
(247,99,l)
);
}
);
};
hints = (
{
name = _corner.ROUND;
origin = (0,4);
type = Corner;
},
{
name = _corner.ROUND;
origin = (1,2);
scale = (0.3,0.3);
type = Corner;
},
{
name = _corner.ROUND;
origin = (1,1);
scale = (0.3,0.3);
type = Corner;
},
{
name = _corner.ROUND;
options = 2;
origin = (1,0);
scale = (-0.3,0.3);
type = Corner;
},
{
name = _corner.ROUND;
options = 2;
origin = (1,3);
scale = (-0.3,0.3);
type = Corner;
},
{
name = _segment.CUT;
origin = (0,3);
type = Segment;
},
{
name = _corner.ROUND;
origin = (0,5);
type = Corner;
},
{
name = _segment.CUT;
options = 1;
origin = (0,7);
scale = (-1,1);
type = Segment;
}
);
layerId = m01;
shapes = (
{
closed = 1;
nodes = (
(387,650,l),
(247,650,l),
(247,500,l),
(162,500,l),
(22,500,l),
(22,0,l),
(162,0,l),
(247,0,l),
(387,0,l)
);
},
{
closed = 1;
nodes = (
(162,100,l),
(162,400,l),
(247,400,l),
(247,100,l)
);
}
);
width = 412;
},
{
anchors = (
{
name = bottom;
pos = (230,0);
},
{
name = center;
pos = (344,620);
},
{
name = top;
pos = (230,450);
},
{
name = topright;
pos = (439,775);
}
);
backgroundImage = {
crop = (119.212,1.675,40.591,81.325);
imagePath = "../png/abcdefg.png";
locked = 1;
pos = (-1188,-167);
scale = (10.15,10.15);
};
hints = (
{
name = _corner.ROUND;
origin = (0,4);
type = Corner;
},
{
name = _corner.ROUND;
origin = (1,2);
scale = (0.5,0.8);
type = Corner;
},
{
name = _corner.ROUND;
origin = (1,1);
scale = (0.7,0.7);
type = Corner;
},
{
name = _corner.ROUND;
options = 2;
origin = (1,0);
scale = (-0.7,0.7);
type = Corner;
},
{
name = _corner.ROUND;
options = 2;
origin = (1,3);
scale = (-0.5,0.8);
type = Corner;
},
{
name = _segment.CUT;
origin = (0,3);
type = Segment;
},
{
name = _corner.ROUND;
origin = (0,5);
type = Corner;
},
{
name = _segment.CUT;
options = 1;
origin = (0,7);
scale = (-1,1);
type = Segment;
}
);
layerId = m002;
shapes = (
{
closed = 1;
nodes = (
(409,650,l),
(349,650,l),
(349,450,l),
(184,450,l),
(44,450,l),
(44,0,l),
(184,0,l),
(349,0,l),
(409,0,l)
);
},
{
closed = 1;
nodes = (
(104,50,l),
(104,400,l),
(349,400,l),
(349,50,l)
);
}
);
width = 459;
}
);
metricLeft = "=o";
metricRight = "=h";
unicode = 100;
},
{
glyphname = e;
kernLeft = o;
kernRight = e;
lastChange = "2025-09-26 14:10:47 +0000";
layers = (
{
anchors = (
{
name = bottom;
pos = (205,0);
},
{
name = ogonek;
pos = (368,10);
},
{
name = top;
pos = (205,500);
}
);
hints = (
{
name = _corner.ROUND;
type = Corner;
},
{
name = _corner.ROUND;
options = 2;
scale = (-0.3,0.3);
type = Corner;
},
{
name = _corner.ROUND;
options = 2;
scale = (-0.3,0.3);
type = Corner;
},
{
name = _corner.ROUND;
type = Corner;
},
{
name = _corner.ROUND;
type = Corner;
},
{
name = _corner.ROUND;
type = Corner;
},
{
name = _corner.ROUND;
scale = (0.3,0.3);
type = Corner;
},
{
name = _corner.ROUND;
scale = (0.3,0.3);
type = Corner;
},
{
name = _corner.ROUND;
origin = (0,0);
scale = (1.08,1.08);
type = Corner;
},
{
name = _corner.ROUND;
origin = (0,1);
scale = (1.08,1.08);
type = Corner;
},
{
name = _corner.ROUND;
origin = (0,2);
scale = (1.08,1.08);
type = Corner;
},
{
name = _corner.ROUND;
origin = (0,9);
scale = (1.08,1.08);
type = Corner;
},
{
name = _corner.ROUND;
origin = (0,5);
scale = (0.3,0.3);
type = Corner;
},
{
name = _corner.ROUND;
origin = (0,6);
scale = (0.3,0.3);
type = Corner;
},
{
name = _corner.ROUND;
options = 2;
origin = (1,2);
scale = (-0.3,0.3);
type = Corner;
},
{
name = _corner.ROUND;
options = 2;
origin = (1,3);
scale = (-0.3,0.3);
type = Corner;
}
);
layerId = m01;
shapes = (
{
closed = 1;
nodes = (
(22,500,l),
(22,0,l),
(387,0,l),
(387,159,l),
(247,159,l),
(247,100,l),
(162,100,l),
(162,216,l),
(387,216,l),
(387,500,l)
);
},
{
closed = 1;
nodes = (
(247,296,l),
(162,296,l),
(162,400,l),
(247,400,l)
);
}
);
width = 409;
},
{
anchors = (
{
name = bottom;
pos = (227,0);
},
{
name = ogonek;
pos = (408,10);
},
{
name = top;
pos = (227,450);
}
);
backgroundImage = {
crop = (157.635,1.675,40.295,81.325);
imagePath = "../png/abcdefg.png";
locked = 1;
pos = (-1578,-167);
scale = (10.15,10.15);
};
hints = (
{
name = _corner.ROUND;
type = Corner;
},
{
name = _corner.ROUND;
options = 2;
scale = (-0.3,0.3);
type = Corner;
},
{
name = _corner.ROUND;
options = 2;
scale = (-0.3,0.3);
type = Corner;
},
{
name = _corner.ROUND;
type = Corner;
},
{
name = _corner.ROUND;
type = Corner;
},
{
name = _corner.ROUND;
type = Corner;
},
{
name = _corner.ROUND;
scale = (0.3,0.3);
type = Corner;
},
{
name = _corner.ROUND;
scale = (0.3,0.3);
type = Corner;
},
{
name = _corner.ROUND;
origin = (0,0);
scale = (1.08,1.08);
type = Corner;
},
{
name = _corner.ROUND;
origin = (0,1);
scale = (1.08,1.08);
type = Corner;
},
{
name = _corner.ROUND;
origin = (0,2);
scale = (1.08,1.08);
type = Corner;
},
{
name = _corner.ROUND;
origin = (0,9);
scale = (1.08,1.08);
type = Corner;
},
{
name = _corner.ROUND;
origin = (0,5);
scale = (0.7,0.7);
type = Corner;
},
{
name = _corner.ROUND;
origin = (0,6);
scale = (0.7,0.7);
type = Corner;
},
{
name = _corner.ROUND;
options = 2;
origin = (1,2);
scale = (-0.7,0.7);
type = Corner;
},
{
name = _corner.ROUND;
options = 2;
origin = (1,3);
scale = (-0.7,0.7);
type = Corner;
}
);
layerId = m002;
shapes = (
{
closed = 1;
nodes = (
(44,450,l),
(44,0,l),
(409,0,l),
(409,159,l),
(349,159,l),
(349,50,l),
(104,50,l),
(104,206,l),
(409,206,l),
(409,450,l)
);
},
{
closed = 1;
nodes = (
(349,256,l),
(104,256,l),
(104,400,l),
(349,400,l)
);
}
);
width = 453;
}
);
metricLeft = "=o";
metricRight = "=o";
unicode = 101;
},
{
glyphname = f;
kernLeft = f;
kernRight = f;
lastChange = "2025-09-26 14:10:50 +0000";
layers = (
{
anchors = (
{
name = bottom;
pos = (153,0);
},
{
name = top;
pos = (153,775);
}
);
hints = (
{
name = _corner.ROUND;
origin = (0,4);
type = Corner;
},
{
name = _corner.ROUND;
origin = (0,1);
scale = (0.3,0.3);
type = Corner;
}
);
layerId = m01;
shapes = (
{
closed = 1;
nodes = (
(223,0,l),
(223,550,l),
(293,550,l),
(293,650,l),
(83,650,l),
(83,0,l)
);
},
{
closed = 1;
nodes = (
(293,400,l),
(293,500,l),
(13,500,l),
(13,400,l)
);
}
);
width = 306;
},
{
anchors = (
{
name = bottom;
pos = (145,0);
},
{
name = top;
pos = (145,775);
}
);
backgroundImage = {
crop = (195.566,1.675,30.148,81.325);
imagePath = "../png/abcdefg.png";
locked = 1;
pos = (-1973,-167);
scale = (10.15,10.15);
};
hints = (
{
name = _corner.ROUND;
origin = (0,4);
type = Corner;
},
{
name = _corner.ROUND;
origin = (0,1);
scale = (0.5,0.5);
type = Corner;
}
);
layerId = m002;
shapes = (
{
closed = 1;
nodes = (
(155,0,l),
(155,600,l),
(265,600,l),
(265,650,l),
(95,650,l),
(95,0,l)
);
},
{
closed = 1;
nodes = (
(265,400,l),
(265,450,l),
(25,450,l),
(25,400,l)
);
}
);
width = 290;
}
);
metricLeft = "=h*.5";
metricRight = "=h*.5";
unicode = 102;
},
{
glyphname = g;
kernLeft = g;
kernRight = g;
lastChange = "2025-09-26 14:10:52 +0000";
layers = (
{
anchors = (
{
name = bottom;
pos = (206,-150);
},
{
name = top;
pos = (206,500);
}
);
background = {
hints = (
{
name = _segment.CUT;
options = 1;
scale = (-1,1);
type = Segment;
},
{
name = _corner.ROUND;
type = Corner;
},
{
name = _segment.CUT;
type = Segment;
},
{
name = _corner.ROUND;
type = Corner;
},
{
name = _corner.ROUND;
type = Corner;
},
{
name = _corner.ROUND;
scale = (0.3,0.3);
type = Corner;
},
{
name = _corner.ROUND;
scale = (0.3,0.3);
type = Corner;
},
{
name = _corner.ROUND;
options = 2;
scale = (-0.3,0.3);
type = Corner;
},
{
name = _corner.ROUND;
options = 2;
scale = (-0.3,0.3);
type = Corner;
},
{
name = _corner.ROUND;
options = 2;
scale = (-0.3,0.3);
type = Corner;
},
{
name = _corner.ROUND;
options = 2;
scale = (-0.3,0.3);
type = Corner;
},
{
name = _corner.ROUND;
type = Corner;
},
{
name = _segment.CUT;
options = 1;
scale = (-1,1);
type = Segment;
},
{
name = _corner.ROUND;
type = Corner;
},
{
name = _segment.CUT;
type = Segment;
},
{
name = _corner.ROUND;
type = Corner;
},
{
name = _corner.ROUND;
type = Corner;
},
{
name = _corner.ROUND;
scale = (0.3,0.3);
type = Corner;
},
{
name = _corner.ROUND;
scale = (0.3,0.3);
type = Corner;
},
{
name = _corner.ROUND;
options = 2;
scale = (-0.3,0.3);
type = Corner;
},
{
name = _corner.ROUND;
options = 2;
scale = (-0.3,0.3);
type = Corner;
},
{
name = _corner.ROUND;
options = 2;
scale = (-0.3,0.3);
type = Corner;
},
{
name = _corner.ROUND;
options = 2;
scale = (-0.3,0.3);
type = Corner;
},
{
name = _corner.ROUND;
type = Corner;
},
{
name = _corner.ROUND;
type = Corner;
},
{
name = _corner.ROUND;
origin = (0,1);
type = Corner;
},
{
name = _segment.CUT;
origin = (0,4);
type = Segment;
},
{
name = _corner.ROUND;
origin = (0,5);
type = Corner;
},
{
name = _corner.ROUND;
origin = (0,6);
type = Corner;
},
{
name = _segment.CUT;
options = 1;
origin = (0,8);
scale = (-1,1);
type = Segment;
},
{
name = _corner.ROUND;
options = 2;
origin = (0,10);
scale = (-0.3,0.3);
type = Corner;
},
{
name = _corner.ROUND;
options = 2;
origin = (0,11);
scale = (-0.3,0.3);
type = Corner;
},
{
name = _corner.ROUND;
origin = (0,14);
type = Corner;
},
{
name = _corner.ROUND;
origin = (1,0);
scale = (0.3,0.3);
type = Corner;
},
{
name = _corner.ROUND;
origin = (1,1);
scale = (0.3,0.3);
type = Corner;
},
{
name = _corner.ROUND;
options = 2;
origin = (1,2);
scale = (-0.3,0.3);
type = Corner;
},
{
name = _corner.ROUND;
options = 2;
origin = (1,3);
scale = (-0.3,0.3);
type = Corner;
}
);
shapes = (
{
closed = 1;
nodes = (
(247,-175,l),
(387,-175,l),
(387,530,l),
(247,530,l),
(162,530,l),
(22,530,l),
(22,0,l),
(162,0,l),
(247,0,l),
(247,-25,l),
(247,-75,l),
(162,-75,l),
(162,-25,l),
(22,-25,l),
(22,-175,l),
(162,-175,l)
);
},
{
closed = 1;
nodes = (
(162,430,l),
(247,430,l),
(247,100,l),
(162,100,l)
);
}
);
};
hints = (
{
name = _segment.CUT;
options = 1;
origin = (0,7);
scale = (-1,1);
type = Segment;
},
{
name = _corner.ROUND;
origin = (0,4);
type = Corner;
},
{
name = _corner.ROUND;
origin = (0,5);
type = Corner;
},
{
name = _corner.ROUND;
origin = (1,0);
scale = (0.3,0.3);
type = Corner;
},
{
name = _corner.ROUND;
origin = (1,1);
scale = (0.3,0.3);
type = Corner;
},
{
name = _corner.ROUND;
options = 2;
origin = (1,2);
scale = (-0.3,0.3);
type = Corner;
},
{
name = _corner.ROUND;
options = 2;
origin = (1,3);
scale = (-0.3,0.3);
type = Corner;
},
{
name = _corner.ROUND;
origin = (0,0);
type = Corner;
},
{
name = _corner.ROUND;
options = 2;
origin = (0,8);
scale = (-0.3,0.3);
type = Corner;
},
{
name = _corner.ROUND;
options = 2;
origin = (0,9);
scale = (-0.3,0.3);
type = Corner;
},
{
name = _corner.ROUND;
origin = (0,0);
type = Corner;
},
{
name = _corner.ROUND;
origin = (0,0);
type = Corner;
},
{
name = _corner.ROUND;
origin = (0,12);
type = Corner;
},
{
name = _segment.CUT;
origin = (0,3);
type = Segment;
}
);
layerId = m01;
shapes = (
{
closed = 1;
nodes = (
(387,-175,l),
(387,500,l),
(247,500,l),
(162,500,l),
(22,500,l),
(22,0,l),
(162,0,l),
(247,0,l),
(247,-75,l),
(162,-75,l),
(162,-25,l),
(22,-25,l),
(22,-175,l)
);
},
{
closed = 1;
nodes = (
(162,400,l),
(247,400,l),
(247,100,l),
(162,100,l)
);
}
);
width = 412;
},
{
anchors = (
{
name = bottom;
pos = (230,-150);
},
{
name = top;
pos = (230,450);
}
);
backgroundImage = {
crop = (225.123,1.675,39.877,81.325);
imagePath = "../png/abcdefg.png";
locked = 1;
pos = (-2263,-167);
scale = (10.15,10.15);
};
hints = (
{
name = _segment.CUT;
options = 1;
origin = (0,7);
scale = (-1,1);
type = Segment;
},
{
name = _corner.ROUND;
origin = (0,4);
type = Corner;
},
{
name = _corner.ROUND;
origin = (0,5);
type = Corner;
},
{
name = _corner.ROUND;
origin = (1,0);
scale = (0.7,0.7);
type = Corner;
},
{
name = _corner.ROUND;
origin = (1,1);
scale = (0.5,0.8);
type = Corner;
},
{
name = _corner.ROUND;
options = 2;
origin = (1,2);
scale = (-0.5,0.8);
type = Corner;
},
{
name = _corner.ROUND;
options = 2;
origin = (1,3);
scale = (-0.7,0.7);
type = Corner;
},
{
name = _corner.ROUND;
origin = (0,0);
type = Corner;
},
{
name = _corner.ROUND;
options = 2;
origin = (0,8);
scale = (-0.7,0.7);
type = Corner;
},
{
name = _corner.ROUND;
options = 2;
origin = (0,9);
scale = (-0.7,0.7);
type = Corner;
},
{
name = _corner.ROUND;
origin = (0,0);
type = Corner;
},
{
name = _corner.ROUND;
origin = (0,0);
type = Corner;
},
{
name = _corner.ROUND;
origin = (0,12);
type = Corner;
},
{
name = _segment.CUT;
origin = (0,3);
type = Segment;
}
);
layerId = m002;
shapes = (
{
closed = 1;
nodes = (
(409,-175,l),
(409,450,l),
(349,450,l),
(184,450,l),
(44,450,l),
(44,0,l),
(184,0,l),
(349,0,l),
(349,-125,l),
(104,-125,l),
(104,-25,l),
(44,-25,l),
(44,-175,l)
);
},
{
closed = 1;
nodes = (
(104,400,l),
(349,400,l),
(349,50,l),
(104,50,l)
);
}
);
width = 459;
}
);
metricLeft = "=o";
metricRight = h;
unicode = 103;
},
{
glyphname = h;
kernLeft = h;
kernRight = n;
lastChange = "2025-09-26 14:10:56 +0000";
layers = (
{
anchors = (
{
name = bottom;
pos = (208,0);
},
{
name = center;
pos = (104,620);
},
{
name = top;
pos = (208,775);
}
);
background = {
hints = (
{
name = _corner.ROUND;
type = Corner;
},
{
name = _corner.ROUND;
options = 2;
scale = (-0.3,0.3);
type = Corner;
},
{
name = _corner.ROUND;
options = 2;
scale = (-0.3,0.3);
type = Corner;
},
{
name = _corner.ROUND;
type = Corner;
},
{
name = _corner.ROUND;
options = 2;
scale = (-0.3,0.3);
type = Corner;
},
{
name = _corner.ROUND;
options = 2;
scale = (-0.3,0.3);
type = Corner;
},
{
name = _corner.ROUND;
options = 2;
origin = (0,1);
scale = (-0.3,0.3);
type = Corner;
},
{
name = _corner.ROUND;
options = 2;
origin = (0,2);
scale = (-0.3,0.3);
type = Corner;
},
{
name = _corner.ROUND;
origin = (0,5);
type = Corner;
},
{
name = _segment.CUT;
options = 1;
origin = (0,7);
scale = (-1,1);
type = Segment;
}
);
shapes = (
{
closed = 1;
nodes = (
(165,0,l),
(165,430,l),
(250,430,l),
(250,0,l),
(390,0,l),
(390,530,l),
(250,530,l),
(165,530,l),
(165,700,l),
(25,700,l),
(25,0,l)
);
}
);
};
hints = (
{
name = _corner.ROUND;
origin = (0,5);
type = Corner;
},
{
name = _corner.ROUND;
options = 2;
origin = (0,1);
scale = (-0.3,0.3);
type = Corner;
},
{
name = _corner.ROUND;
options = 2;
origin = (0,2);
scale = (-0.3,0.3);
type = Corner;
},
{
name = _segment.CUT;
options = 1;
origin = (0,7);
scale = (-1,1);
type = Segment;
}
);
layerId = m01;
shapes = (
{
closed = 1;
nodes = (
(165,0,l),
(165,400,l),
(250,400,l),
(250,0,l),
(390,0,l),
(390,500,l),
(250,500,l),
(165,500,l),
(165,650,l),
(25,650,l),
(25,0,l)
);
}
);
width = 415;
},
{
anchors = (
{
name = bottom;
pos = (233,0);
},
{
name = center;
pos = (116,620);
},
{
name = top;
pos = (233,775);
}
);
backgroundImage = {
crop = (0.294,2.157,40.697,80.843);
imagePath = "../png/hijklmno.png";
locked = 1;
pos = (22,-172);
scale = (10.1972,10.1972);
};
hints = (
{
name = _corner.ROUND;
origin = (0,5);
type = Corner;
},
{
name = _corner.ROUND;
options = 2;
origin = (0,1);
scale = (-0.5,0.8);
type = Corner;
},
{
name = _corner.ROUND;
options = 2;
origin = (0,2);
scale = (-0.7,0.7);
type = Corner;
},
{
name = _segment.CUT;
options = 1;
origin = (0,7);
scale = (-1,1);
type = Segment;
}
);
layerId = m002;
shapes = (
{
closed = 1;
nodes = (
(110,0,l),
(110,400,l),
(355,400,l),
(355,0,l),
(415,0,l),
(415,450,l),
(275,450,l),
(110,450,l),
(110,650,l),
(50,650,l),
(50,0,l)
);
}
);
width = 465;
}
);
unicode = 104;
},
{
glyphname = i;
kernLeft = i;
kernRight = i;
lastChange = "2025-09-26 14:10:43 +0000";
layers = (
{
anchors = (
{
name = bottom;
pos = (95,0);
}
);
layerId = m01;
shapes = (
{
closed = 1;
nodes = (
(165,650,l),
(25,650,l),
(25,550,l),
(165,550,l)
);
},
{
ref = idotless;
}
);
width = 190;
},
{
anchors = (
{
name = bottom;
pos = (80,0);
}
);
background = {
backgroundImage = {
imagePath = "../png/hijklmno.png";
pos = (-18,-172);
scale = (10.1972,10.1972);
};
};
layerId = m002;
shapes = (
{
closed = 1;
nodes = (
(110,600,l),
(50,600,l),
(50,530,l),
(110,530,l)
);
},
{
pos = (-15,0);
ref = idotless;
}
);
width = 160;
}
);
metricLeft = "=h";
metricRight = "=h";
unicode = 105;
},
{
glyphname = idotless;
kernLeft = i;
kernRight = i;
lastChange = "2025-09-26 14:11:01 +0000";
layers = (
{
anchors = (
{
name = bottom;
pos = (95,0);
},
{
name = ogonek;
pos = (165,0);
},
{
name = top;
pos = (95,500);
}
);
layerId = m01;
shapes = (
{
closed = 1;
nodes = (
(165,500,l),
(25,500,l),
(25,0,l),
(165,0,l)
);
}
);
width = 190;
},
{
anchors = (
{
name = bottom;
pos = (95,0);
},
{
name = ogonek;
pos = (125,0);
},
{
name = top;
pos = (95,450);
}
);
backgroundImage = {
crop = (37.167,2.157,18.632,80.843);
imagePath = "../png/hijklmno.png";
locked = 1;
pos = (-379,-172);
scale = (10.1972,10.1972);
};
layerId = m002;
shapes = (
{
closed = 1;
nodes = (
(125,450,l),
(65,450,l),
(65,0,l),
(125,0,l)
);
}
);
width = 190;
}
);
unicode = 305;
},
{
glyphname = j;
kernLeft = j;
kernRight = j;
lastChange = "2025-09-26 14:11:13 +0000";
layers = (
{
background = {
hints = (
{
name = _corner.ROUND;
origin = (0,1);
scale = (0.3,0.3);
type = Corner;
},
{
name = _corner.ROUND;
origin = (0,5);
type = Corner;
}
);
shapes = (
{
closed = 1;
nodes = (
(33,530,l),
(33,-75,l),
(-37,-75,l),
(-37,-175,l),
(33,-175,l),
(173,-175,l),
(173,530,l)
);
},
{
closed = 1;
nodes = (
(173,680,l),
(33,680,l),
(33,580,l),
(173,580,l)
);
}
);
};
layerId = m01;
shapes = (
{
closed = 1;
nodes = (
(173,650,l),
(33,650,l),
(33,550,l),
(173,550,l)
);
},
{
ref = jdotless;
}
);
width = 198;
},
{
background = {
hints = (
{
name = _corner.ROUND;
scale = (0.3,0.3);
type = Corner;
},
{
name = _corner.ROUND;
type = Corner;
}
);
shapes = (
{
closed = 1;
nodes = (
(65,650,l),
(5,650,l),
(5,550,l),
(65,550,l)
);
}
);
};
layerId = m002;
shapes = (
{
closed = 1;
nodes = (
(65,600,l),
(5,600,l),
(5,530,l),
(65,530,l)
);
},
{
ref = jdotless;
}
);
width = 115;
}
);
metricLeft = "=h*-1.5";
metricRight = "=h";
unicode = 106;
},
{
glyphname = jdotless;
kernLeft = j;
kernRight = j;
lastChange = "2025-09-26 14:11:09 +0000";
layers = (
{
anchors = (
{
name = bottom;
pos = (99,-150);
},
{
name = top;
pos = (101,500);
}
);
hints = (
{
name = _corner.ROUND;
origin = (0,1);
scale = (0.3,0.3);
type = Corner;
},
{
name = _corner.ROUND;
origin = (0,4);
type = Corner;
}
);
layerId = m01;
shapes = (
{
closed = 1;
nodes = (
(33,500,l),
(33,-75,l),
(-37,-75,l),
(-37,-175,l),
(173,-175,l),
(173,500,l)
);
}
);
width = 198;
},
{
anchors = (
{
name = bottom;
pos = (58,-150);
},
{
name = top;
pos = (58,450);
}
);
backgroundImage = {
crop = (57.172,2.157,19.417,80.843);
imagePath = "../png/hijklmno.png";
locked = 1;
pos = (-651,-172);
scale = (10.1972,10.1972);
};
hints = (
{
name = _corner.ROUND;
origin = (0,1);
scale = (0.5,0.5);
type = Corner;
},
{
name = _corner.ROUND;
origin = (0,4);
type = Corner;
}
);
layerId = m002;
shapes = (
{
closed = 1;
nodes = (
(5,450,l),
(5,-125,l),
(-65,-125,l),
(-65,-175,l),
(65,-175,l),
(65,450,l)
);
}
);
width = 115;
}
);
metricLeft = "=j";
metricRight = "=h";
unicode = 567;
},
{
glyphname = k;
kernLeft = h;
kernRight = k;
lastChange = "2025-09-26 14:11:22 +0000";
layers = (
{
anchors = (
{
name = bottom;
pos = (205,0);
},
{
name = top;
pos = (205,775);
}
);
background = {
shapes = (
{
closed = 1;
nodes = (
(255,190,l),
(390,500,l),
(250,500,l),
(115,190,l)
);
},
{
closed = 1;
nodes = (
(390,0,l),
(267,286,l),
(127,286,l),
(250,0,l)
);
},
{
closed = 1;
nodes = (
(165,0,l),
(165,650,l),
(25,650,l),
(25,0,l)
);
}
);
};
layerId = m01;
shapes = (
{
closed = 1;
nodes = (
(267,218,l),
(390,500,l),
(250,500,l),
(127,218,l)
);
},
{
closed = 1;
nodes = (
(390,0,l),
(267,286,l),
(127,286,l),
(250,0,l)
);
},
{
closed = 1;
nodes = (
(165,0,l),
(165,650,l),
(25,650,l),
(25,0,l)
);
}
);
width = 409;
},
{
anchors = (
{
name = bottom;
pos = (207,0);
},
{
name = top;
pos = (207,775);
}
);
background = {
hints = (
{
name = _corner.ROUND;
scale = (1.08,1.08);
type = Corner;
},
{
name = _corner.ROUND;
scale = (1.08,1.08);
type = Corner;
},
{
name = _corner.ROUND;
scale = (1.08,1.08);
type = Corner;
},
{
name = _corner.ROUND;
scale = (0.7,0.7);
type = Corner;
},
{
name = _corner.ROUND;
scale = (0.7,0.7);
type = Corner;
},
{
name = _corner.ROUND;
scale = (1.08,1.08);
type = Corner;
},
{
name = _corner.ROUND;
options = 2;
scale = (-0.7,0.7);
type = Corner;
},
{
name = _corner.ROUND;
options = 2;
scale = (-0.7,0.7);
type = Corner;
}
);
shapes = (
{
closed = 1;
nodes = (
(50,0,l),
(110,0,l),
(110,650,l),
(50,650,l)
);
},
{
closed = 1;
nodes = (
(50,190,l),
(110,190,l),
(375,500,l),
(315,500,l)
);
},
{
closed = 1;
nodes = (
(132,286,l),
(315,0,l),
(375,0,l),
(192,286,l)
);
}
);
};
backgroundImage = {
crop = (79.531,2.157,40.109,80.843);
imagePath = "../png/hijklmno.png";
locked = 1;
pos = (-786,-172);
scale = (10.1972,10.1972);
};
layerId = m002;
shapes = (
{
closed = 1;
nodes = (
(110,140,l),
(375,450,l),
(315,450,l),
(50,140,l)
);
},
{
closed = 1;
nodes = (
(375,0,l),
(192,236,l),
(132,236,l),
(315,0,l)
);
},
{
closed = 1;
nodes = (
(110,0,l),
(110,650,l),
(50,650,l),
(50,0,l)
);
}
);
width = 413;
}
);
metricLeft = "=h";
metricRight = "=h*.75";
unicode = 107;
},
{
glyphname = l;
kernLeft = h;
kernRight = l;
lastChange = "2025-06-12 20:19:33 +0000";
layers = (
{
anchors = (
{
name = bottom;
pos = (95,0);
},
{
name = center;
pos = (95,250);
},
{
name = top;
pos = (95,775);
},
{
name = topright;
pos = (170,775);
}
);
layerId = m01;
shapes = (
{
closed = 1;
nodes = (
(165,650,l),
(25,650,l),
(25,0,l),
(165,0,l)
);
}
);
width = 190;
},
{
anchors = (
{
name = bottom;
pos = (80,0);
},
{
name = center;
pos = (80,250);
},
{
name = top;
pos = (80,775);
},
{
name = topright;
pos = (155,775);
}
);
backgroundImage = {
crop = (112.874,2.157,18.632,80.843);
imagePath = "../png/hijklmno.png";
locked = 1;
pos = (-1166,-172);
scale = (10.1972,10.1972);
};
layerId = m002;
shapes = (
{
closed = 1;
nodes = (
(110,650,l),
(50,650,l),
(50,0,l),
(110,0,l)
);
}
);
width = 160;
}
);
metricLeft = "=h";
metricRight = "=h";
unicode = 108;
},
{
glyphname = m;
kernLeft = n;
kernRight = n;
lastChange = "2025-09-26 14:11:28 +0000";
layers = (
{
anchors = (
{
name = bottom;
pos = (319,0);
},
{
name = top;
pos = (319,500);
}
);
background = {
hints = (
{
name = _corner.ROUND;
type = Corner;
},
{
name = _corner.ROUND;
options = 2;
scale = (-0.3,0.3);
type = Corner;
},
{
name = _corner.ROUND;
options = 2;
scale = (-0.3,0.3);
type = Corner;
},
{
name = _corner.ROUND;
type = Corner;
},
{
name = _corner.ROUND;
options = 2;
scale = (-0.3,0.3);
type = Corner;
},
{
name = _corner.ROUND;
options = 2;
scale = (-0.3,0.3);
type = Corner;
},
{
name = _corner.ROUND;
options = 2;
scale = (-0.3,0.3);
type = Corner;
},
{
name = _corner.ROUND;
options = 2;
scale = (-0.3,0.3);
type = Corner;
},
{
name = _corner.ROUND;
type = Corner;
},
{
name = _corner.ROUND;
scale = (0.3,0.3);
type = Corner;
},
{
name = _corner.ROUND;
options = 2;
scale = (-0.3,0.3);
type = Corner;
},
{
name = _corner.ROUND;
options = 2;
scale = (-0.3,0.3);
type = Corner;
},
{
name = _corner.ROUND;
options = 2;
scale = (-0.3,0.3);
type = Corner;
},
{
name = _corner.ROUND;
type = Corner;
},
{
name = _corner.ROUND;
scale = (0.3,0.3);
type = Corner;
},
{
name = _corner.ROUND;
options = 2;
scale = (-0.3,0.3);
type = Corner;
},
{
name = _segment.CUT;
options = 1;
scale = (-1,1);
type = Segment;
},
{
name = _corner.ROUND;
type = Corner;
},
{
name = _corner.ROUND;
options = 2;
scale = (-0.3,0.3);
type = Corner;
},
{
name = _corner.ROUND;
options = 2;
scale = (-0.3,0.3);
type = Corner;
},
{
name = _segment.CUT;
options = 1;
scale = (-1,1);
type = Segment;
},
{
name = _corner.ROUND;
type = Corner;
},
{
name = _corner.ROUND;
options = 2;
scale = (-0.3,0.3);
type = Corner;
},
{
name = _corner.ROUND;
options = 2;
scale = (-0.3,0.3);
type = Corner;
},
{
name = _corner.ROUND;
type = Corner;
},
{
name = _corner.ROUND;
options = 2;
scale = (-0.3,0.3);
type = Corner;
},
{
name = _corner.ROUND;
options = 2;
scale = (-0.3,0.3);
type = Corner;
},
{
name = _corner.ROUND;
options = 2;
scale = (-0.3,0.3);
type = Corner;
},
{
name = _corner.ROUND;
options = 2;
scale = (-0.3,0.3);
type = Corner;
},
{
name = _corner.ROUND;
type = Corner;
},
{
name = _segment.CUT;
options = 1;
scale = (-1,1);
type = Segment;
},
{
name = _corner.ROUND;
type = Corner;
},
{
name = _corner.ROUND;
options = 2;
scale = (-0.3,0.3);
type = Corner;
},
{
name = _corner.ROUND;
options = 2;
scale = (-0.3,0.3);
type = Corner;
},
{
name = _corner.ROUND;
options = 2;
scale = (-0.3,0.3);
type = Corner;
},
{
name = _corner.ROUND;
options = 2;
scale = (-0.3,0.3);
type = Corner;
},
{
name = _corner.ROUND;
type = Corner;
},
{
name = _corner.ROUND;
options = 2;
scale = (-0.3,0.3);
type = Corner;
},
{
name = _corner.ROUND;
options = 2;
scale = (-0.3,0.3);
type = Corner;
},
{
name = _corner.ROUND;
type = Corner;
},
{
name = _segment.CUT;
options = 1;
scale = (-1,1);
type = Segment;
},
{
name = _corner.ROUND;
scale = (0.3,0.3);
type = Corner;
},
{
name = _corner.ROUND;
scale = (0.3,0.3);
type = Corner;
},
{
name = _corner.ROUND;
type = Corner;
},
{
name = _corner.ROUND;
options = 2;
scale = (-0.3,0.3);
type = Corner;
},
{
name = _corner.ROUND;
options = 2;
scale = (-0.3,0.3);
type = Corner;
},
{
name = _corner.ROUND;
type = Corner;
},
{
name = _segment.CUT;
options = 1;
scale = (-1,1);
type = Segment;
},
{
name = _corner.ROUND;
scale = (0.3,0.3);
type = Corner;
},
{
name = _corner.ROUND;
scale = (0.3,0.3);
type = Corner;
},
{
name = _corner.ROUND;
type = Corner;
},
{
name = _corner.ROUND;
options = 2;
scale = (-0.3,0.3);
type = Corner;
},
{
name = _corner.ROUND;
options = 2;
scale = (-0.3,0.3);
type = Corner;
},
{
name = _corner.ROUND;
type = Corner;
},
{
name = _segment.CUT;
options = 1;
scale = (-1,1);
type = Segment;
},
{
name = _corner.ROUND;
scale = (0.3,0.3);
type = Corner;
},
{
name = _corner.ROUND;
scale = (0.3,0.3);
type = Corner;
},
{
name = _corner.ROUND;
type = Corner;
},
{
name = _corner.ROUND;
scale = (0.3,0.3);
type = Corner;
},
{
name = _corner.ROUND;
scale = (0.3,0.3);
type = Corner;
},
{
name = _corner.ROUND;
type = Corner;
},
{
name = _segment.CUT;
options = 1;
scale = (-1,1);
type = Segment;
},
{
name = _corner.ROUND;
type = Corner;
},
{
name = _corner.ROUND;
options = 2;
scale = (-0.3,0.3);
type = Corner;
},
{
name = _corner.ROUND;
options = 2;
scale = (-0.3,0.3);
type = Corner;
},
{
name = _corner.ROUND;
origin = (0,1);
scale = (0.3,0.3);
type = Corner;
},
{
name = _corner.ROUND;
origin = (0,2);
scale = (0.3,0.3);
type = Corner;
},
{
name = _corner.ROUND;
origin = (0,5);
type = Corner;
},
{
name = _segment.CUT;
options = 1;
origin = (0,7);
scale = (-1,1);
type = Segment;
},
{
name = _corner.ROUND;
origin = (1,1);
type = Corner;
},
{
name = _corner.ROUND;
options = 2;
origin = (1,8);
scale = (-0.3,0.3);
type = Corner;
},
{
name = _corner.ROUND;
options = 2;
origin = (1,9);
scale = (-0.3,0.3);
type = Corner;
}
);
shapes = (
{
closed = 1;
nodes = (
(165,0,l),
(165,400,l),
(250,400,l),
(250,0,l),
(390,0,l),
(390,500,l),
(250,500,l),
(165,500,l),
(25,500,l),
(25,0,l)
);
},
{
closed = 1;
nodes = (
(615,0,l),
(615,500,l),
(475,500,ls),
(420,500,o),
(378,473,o),
(353,441,c),
(353,353,l),
(390,353,l),
(390,400,l),
(475,400,l),
(475,0,l)
);
}
);
};
hints = (
{
name = _corner.ROUND;
origin = (1,1);
type = Corner;
},
{
name = _corner.ROUND;
options = 2;
origin = (1,8);
scale = (-0.3,0.3);
type = Corner;
},
{
name = _corner.ROUND;
options = 2;
origin = (1,9);
scale = (-0.3,0.3);
type = Corner;
},
{
name = _corner.ROUND;
origin = (0,1);
scale = (0.3,0.3);
type = Corner;
},
{
name = _corner.ROUND;
origin = (0,2);
scale = (0.3,0.3);
type = Corner;
},
{
name = _corner.ROUND;
origin = (0,5);
type = Corner;
},
{
name = _segment.CUT;
options = 1;
origin = (0,7);
scale = (-1,1);
type = Segment;
}
);
layerId = m01;
shapes = (
{
closed = 1;
nodes = (
(165,0,l),
(165,400,l),
(250,400,l),
(250,0,l),
(390,0,l),
(390,500,l),
(250,500,l),
(165,500,l),
(25,500,l),
(25,0,l)
);
},
{
closed = 1;
nodes = (
(615,0,l),
(615,500,l),
(475,500,ls),
(420,500,o),
(378,473,o),
(353,441,c),
(353,353,l),
(390,353,l),
(390,400,l),
(475,400,l),
(475,0,l)
);
}
);
width = 637;
},
{
anchors = (
{
name = bottom;
pos = (342,0);
},
{
name = top;
pos = (342,450);
}
);
backgroundImage = {
crop = (133.86,2.157,62.468,80.843);
imagePath = "../png/hijklmno.png";
locked = 1;
pos = (-1340,-172);
scale = (10.1972,10.1972);
};
hints = (
{
name = _corner.ROUND;
origin = (1,1);
type = Corner;
},
{
name = _corner.ROUND;
options = 2;
origin = (1,8);
scale = (-0.5,0.8);
type = Corner;
},
{
name = _corner.ROUND;
options = 2;
origin = (1,9);
scale = (-0.7,0.7);
type = Corner;
},
{
name = _corner.ROUND;
origin = (0,1);
scale = (0.8,0.5);
type = Corner;
},
{
name = _corner.ROUND;
origin = (0,2);
scale = (0.7,0.7);
type = Corner;
},
{
name = _corner.ROUND;
origin = (0,5);
type = Corner;
},
{
name = _segment.CUT;
options = 1;
origin = (0,7);
scale = (-1,1);
type = Segment;
}
);
layerId = m002;
shapes = (
{
closed = 1;
nodes = (
(110,0,l),
(110,400,l),
(315,400,l),
(315,0,l),
(375,0,l),
(375,450,l),
(235,450,l),
(110,450,l),
(50,450,l),
(50,0,l)
);
},
{
closed = 1;
nodes = (
(640,0,l),
(640,450,l),
(500,450,ls),
(369,450,o),
(338,374,o),
(338,361,c),
(338,313,l),
(375,313,l),
(375,400,l),
(580,400,l),
(580,0,l)
);
}
);
width = 684;
}
);
metricLeft = "=h";
metricRight = "=o";
unicode = 109;
},
{
glyphname = n;
kernLeft = n;
kernRight = n;
lastChange = "2025-09-26 14:11:35 +0000";
layers = (
{
anchors = (
{
name = bottom;
pos = (206,0);
},
{
name = top;
pos = (206,500);
}
);
background = {
hints = (
{
name = _corner.ROUND;
type = Corner;
},
{
name = _corner.ROUND;
options = 2;
scale = (-0.3,0.3);
type = Corner;
},
{
name = _corner.ROUND;
options = 2;
scale = (-0.3,0.3);
type = Corner;
},
{
name = _corner.ROUND;
type = Corner;
},
{
name = _corner.ROUND;
options = 2;
scale = (-0.3,0.3);
type = Corner;
},
{
name = _corner.ROUND;
options = 2;
scale = (-0.3,0.3);
type = Corner;
},
{
name = _corner.ROUND;
type = Corner;
},
{
name = _corner.ROUND;
options = 2;
scale = (-0.3,0.3);
type = Corner;
},
{
name = _corner.ROUND;
options = 2;
scale = (-0.3,0.3);
type = Corner;
},
{
name = _corner.ROUND;
type = Corner;
},
{
name = _corner.ROUND;
options = 2;
scale = (-0.3,0.3);
type = Corner;
},
{
name = _corner.ROUND;
options = 2;
scale = (-0.3,0.3);
type = Corner;
},
{
name = _corner.ROUND;
type = Corner;
},
{
name = _corner.ROUND;
options = 2;
scale = (-0.3,0.3);
type = Corner;
},
{
name = _corner.ROUND;
options = 2;
scale = (-0.3,0.3);
type = Corner;
},
{
name = _segment.CUT;
options = 1;
scale = (-1,1);
type = Segment;
},
{
name = _corner.ROUND;
scale = (0.3,0.3);
type = Corner;
},
{
name = _corner.ROUND;
scale = (0.3,0.3);
type = Corner;
},
{
name = _corner.ROUND;
type = Corner;
},
{
name = _segment.CUT;
options = 1;
scale = (-1,1);
type = Segment;
},
{
name = _corner.ROUND;
scale = (0.3,0.3);
type = Corner;
},
{
name = _corner.ROUND;
scale = (0.3,0.3);
type = Corner;
},
{
name = _corner.ROUND;
type = Corner;
},
{
name = _corner.ROUND;
origin = (0,1);
scale = (0.3,0.3);
type = Corner;
},
{
name = _corner.ROUND;
origin = (0,2);
scale = (0.3,0.3);
type = Corner;
},
{
name = _corner.ROUND;
origin = (0,5);
type = Corner;
},
{
name = _segment.CUT;
options = 1;
origin = (0,7);
scale = (-1,1);
type = Segment;
}
);
shapes = (
{
closed = 1;
nodes = (
(165,0,l),
(165,425,l),
(250,425,l),
(250,0,l),
(390,0,l),
(390,525,l),
(250,525,l),
(165,525,l),
(25,525,l),
(25,0,l)
);
}
);
};
hints = (
{
name = _segment.CUT;
options = 1;
origin = (0,7);
scale = (-1,1);
type = Segment;
},
{
name = _corner.ROUND;
origin = (0,1);
scale = (0.3,0.3);
type = Corner;
},
{
name = _corner.ROUND;
origin = (0,2);
scale = (0.3,0.3);
type = Corner;
},
{
name = _corner.ROUND;
origin = (0,5);
type = Corner;
}
);
layerId = m01;
shapes = (
{
closed = 1;
nodes = (
(165,0,l),
(165,400,l),
(250,400,l),
(250,0,l),
(390,0,l),
(390,500,l),
(250,500,l),
(165,500,l),
(25,500,l),
(25,0,l)
);
}
);
width = 412;
},
{
anchors = (
{
name = bottom;
pos = (230,0);
},
{
name = top;
pos = (230,450);
}
);
background = {
hints = (
{
name = _corner.ROUND;
type = Corner;
},
{
name = _corner.ROUND;
options = 2;
scale = (-0.3,0.3);
type = Corner;
},
{
name = _corner.ROUND;
options = 2;
scale = (-0.3,0.3);
type = Corner;
},
{
name = _corner.ROUND;
type = Corner;
},
{
name = _corner.ROUND;
options = 2;
scale = (-0.3,0.3);
type = Corner;
},
{
name = _corner.ROUND;
options = 2;
scale = (-0.3,0.3);
type = Corner;
},
{
name = _corner.ROUND;
type = Corner;
},
{
name = _corner.ROUND;
options = 2;
scale = (-0.3,0.3);
type = Corner;
},
{
name = _corner.ROUND;
options = 2;
scale = (-0.3,0.3);
type = Corner;
},
{
name = _corner.ROUND;
type = Corner;
},
{
name = _corner.ROUND;
options = 2;
scale = (-0.3,0.3);
type = Corner;
},
{
name = _corner.ROUND;
options = 2;
scale = (-0.3,0.3);
type = Corner;
},
{
name = _corner.ROUND;
type = Corner;
},
{
name = _corner.ROUND;
options = 2;
scale = (-0.3,0.3);
type = Corner;
},
{
name = _corner.ROUND;
options = 2;
scale = (-0.3,0.3);
type = Corner;
},
{
name = _segment.CUT;
options = 1;
scale = (-1,1);
type = Segment;
},
{
name = _corner.ROUND;
scale = (0.3,0.3);
type = Corner;
},
{
name = _corner.ROUND;
scale = (0.3,0.3);
type = Corner;
},
{
name = _corner.ROUND;
type = Corner;
},
{
name = _segment.CUT;
options = 1;
scale = (-1,1);
type = Segment;
},
{
name = _corner.ROUND;
scale = (0.3,0.3);
type = Corner;
},
{
name = _corner.ROUND;
scale = (0.3,0.3);
type = Corner;
},
{
name = _corner.ROUND;
type = Corner;
},
{
name = _corner.ROUND;
scale = (0.3,0.3);
type = Corner;
},
{
name = _corner.ROUND;
scale = (0.3,0.3);
type = Corner;
},
{
name = _corner.ROUND;
type = Corner;
},
{
name = _segment.CUT;
options = 1;
scale = (-1,1);
type = Segment;
},
{
name = _corner.ROUND;
origin = (0,1);
scale = (0.8,0.5);
type = Corner;
},
{
name = _corner.ROUND;
origin = (0,2);
scale = (0.7,0.7);
type = Corner;
},
{
name = _corner.ROUND;
origin = (0,5);
type = Corner;
},
{
name = _segment.CUT;
options = 1;
origin = (0,7);
scale = (-1,1);
type = Segment;
}
);
shapes = (
{
closed = 1;
nodes = (
(110,0,l),
(110,450,l),
(355,450,l),
(355,0,l),
(415,0,l),
(415,500,l),
(275,500,l),
(110,500,l),
(50,500,l),
(50,0,l)
);
}
);
};
backgroundImage = {
crop = (197.504,2.157,40.403,80.843);
imagePath = "../png/hijklmno.png";
locked = 1;
pos = (-1989,-172);
scale = (10.1972,10.1972);
};
hints = (
{
name = _segment.CUT;
options = 1;
origin = (0,7);
scale = (-1,1);
type = Segment;
},
{
name = _corner.ROUND;
origin = (0,1);
scale = (0.8,0.5);
type = Corner;
},
{
name = _corner.ROUND;
origin = (0,2);
scale = (0.7,0.7);
type = Corner;
},
{
name = _corner.ROUND;
origin = (0,5);
type = Corner;
}
);
layerId = m002;
shapes = (
{
closed = 1;
nodes = (
(110,0,l),
(110,400,l),
(355,400,l),
(355,0,l),
(415,0,l),
(415,450,l),
(275,450,l),
(110,450,l),
(50,450,l),
(50,0,l)
);
}
);
width = 459;
}
);
metricLeft = "=h";
metricRight = "=o";
unicode = 110;
},
{
glyphname = o;
kernLeft = o;
kernRight = o;
lastChange = "2025-09-26 14:13:08 +0000";
layers = (
{
anchors = (
{
name = bottom;
pos = (205,0);
},
{
name = center;
pos = (205,250);
},
{
name = ogonek;
pos = (368,10);
},
{
name = top;
pos = (205,500);
},
{
name = topright;
pos = (389,500);
}
);
hints = (
{
name = _corner.ROUND;
origin = (0,3);
type = Corner;
},
{
name = _corner.ROUND;
options = 2;
origin = (1,2);
scale = (-0.3,0.3);
type = Corner;
},
{
name = _corner.ROUND;
options = 2;
origin = (1,3);
scale = (-0.3,0.3);
type = Corner;
},
{
name = _corner.ROUND;
origin = (0,2);
type = Corner;
},
{
name = _corner.ROUND;
origin = (0,0);
type = Corner;
},
{
name = _corner.ROUND;
origin = (0,1);
type = Corner;
},
{
name = _corner.ROUND;
origin = (1,1);
scale = (0.3,0.3);
type = Corner;
},
{
name = _corner.ROUND;
origin = (1,0);
scale = (0.3,0.3);
type = Corner;
}
);
layerId = m01;
shapes = (
{
closed = 1;
nodes = (
(22,500,l),
(22,0,l),
(387,0,l),
(387,500,l)
);
},
{
closed = 1;
nodes = (
(247,100,l),
(162,100,l),
(162,400,l),
(247,400,l)
);
}
);
width = 409;
},
{
anchors = (
{
name = bottom;
pos = (227,0);
},
{
name = center;
pos = (227,225);
},
{
name = ogonek;
pos = (408,10);
},
{
name = top;
pos = (227,450);
},
{
name = topright;
pos = (433,450);
}
);
backgroundImage = {
crop = (237.123,2.157,37.877,80.843);
imagePath = "../png/hijklmno.png";
locked = 1;
pos = (-2396,-172);
scale = (10.1972,10.1972);
};
hints = (
{
name = _corner.ROUND;
origin = (0,3);
type = Corner;
},
{
name = _corner.ROUND;
options = 2;
origin = (1,2);
scale = (-0.7,0.7);
type = Corner;
},
{
name = _corner.ROUND;
options = 2;
origin = (1,3);
scale = (-0.7,0.7);
type = Corner;
},
{
name = _corner.ROUND;
origin = (0,2);
type = Corner;
},
{
name = _corner.ROUND;
origin = (0,0);
type = Corner;
},
{
name = _corner.ROUND;
origin = (0,1);
type = Corner;
},
{
name = _corner.ROUND;
origin = (1,1);
scale = (0.7,0.7);
type = Corner;
},
{
name = _corner.ROUND;
origin = (1,0);
scale = (0.7,0.7);
type = Corner;
}
);
layerId = m002;
shapes = (
{
closed = 1;
nodes = (
(44,450,l),
(44,0,l),
(409,0,l),
(409,450,l)
);
},
{
closed = 1;
nodes = (
(349,50,l),
(104,50,l),
(104,400,l),
(349,400,l)
);
}
);
width = 453;
}
);
unicode = 111;
},
{
glyphname = oe;
kernLeft = o;
kernRight = e;
lastChange = "2025-09-26 14:17:09 +0000";
layers = (
{
anchors = (
{
name = bottom;
pos = (317,0);
},
{
name = top;
pos = (317,500);
}
);
background = {
hints = (
{
name = _corner.ROUND;
origin = (0,0);
type = Corner;
},
{
name = _corner.ROUND;
origin = (0,1);
type = Corner;
},
{
name = _corner.ROUND;
origin = (0,2);
type = Corner;
},
{
name = _corner.ROUND;
origin = (0,3);
type = Corner;
},
{
name = _corner.ROUND;
origin = (1,0);
scale = (0.3,0.3);
type = Corner;
},
{
name = _corner.ROUND;
origin = (1,1);
scale = (0.3,0.3);
type = Corner;
},
{
name = _corner.ROUND;
options = 2;
origin = (1,2);
scale = (-0.3,0.3);
type = Corner;
},
{
name = _corner.ROUND;
options = 2;
origin = (1,3);
scale = (-0.3,0.3);
type = Corner;
},
{
name = _corner.ROUND;
origin = (2,0);
scale = (1.08,1.08);
type = Corner;
},
{
name = _corner.ROUND;
origin = (2,1);
scale = (1.08,1.08);
type = Corner;
},
{
name = _corner.ROUND;
origin = (2,2);
scale = (1.08,1.08);
type = Corner;
},
{
name = _corner.ROUND;
origin = (2,5);
scale = (0.3,0.3);
type = Corner;
},
{
name = _corner.ROUND;
origin = (2,6);
scale = (0.3,0.3);
type = Corner;
},
{
name = _corner.ROUND;
origin = (2,9);
scale = (1.08,1.08);
type = Corner;
},
{
name = _corner.ROUND;
options = 2;
origin = (3,2);
scale = (-0.3,0.3);
type = Corner;
},
{
name = _corner.ROUND;
options = 2;
origin = (3,3);
scale = (-0.3,0.3);
type = Corner;
}
);
shapes = (
{
closed = 1;
nodes = (
(22,500,l),
(22,0,l),
(387,0,l),
(387,500,l)
);
},
{
closed = 1;
nodes = (
(247,100,l),
(162,100,l),
(162,400,l),
(247,400,l)
);
},
{
closed = 1;
nodes = (
(247,500,l),
(247,0,l),
(612,0,l),
(612,159,l),
(472,159,l),
(472,100,l),
(387,100,l),
(387,216,l),
(612,216,l),
(612,500,l)
);
},
{
closed = 1;
nodes = (
(472,296,l),
(387,296,l),
(387,400,l),
(472,400,l)
);
}
);
};
hints = (
{
name = _corner.ROUND;
type = Corner;
},
{
name = _corner.ROUND;
options = 2;
scale = (-0.3,0.3);
type = Corner;
},
{
name = _corner.ROUND;
options = 2;
scale = (-0.3,0.3);
type = Corner;
},
{
name = _corner.ROUND;
type = Corner;
},
{
name = _corner.ROUND;
type = Corner;
},
{
name = _corner.ROUND;
type = Corner;
},
{
name = _corner.ROUND;
scale = (0.3,0.3);
type = Corner;
},
{
name = _corner.ROUND;
scale = (0.3,0.3);
type = Corner;
},
{
name = _corner.ROUND;
origin = (0,3);
type = Corner;
},
{
name = _corner.ROUND;
options = 2;
origin = (1,2);
scale = (-0.3,0.3);
type = Corner;
},
{
name = _corner.ROUND;
options = 2;
origin = (1,3);
scale = (-0.3,0.3);
type = Corner;
},
{
name = _corner.ROUND;
origin = (0,2);
type = Corner;
},
{
name = _corner.ROUND;
origin = (0,0);
type = Corner;
},
{
name = _corner.ROUND;
origin = (0,1);
type = Corner;
},
{
name = _corner.ROUND;
origin = (1,1);
scale = (0.3,0.3);
type = Corner;
},
{
name = _corner.ROUND;
origin = (1,0);
scale = (0.3,0.3);
type = Corner;
}
);
layerId = m01;
shapes = (
{
closed = 1;
nodes = (
(22,500,l),
(22,0,l),
(387,0,l),
(387,500,l)
);
},
{
closed = 1;
nodes = (
(247,100,l),
(162,100,l),
(162,400,l),
(247,400,l)
);
},
{
pos = (225,0);
ref = e;
}
);
width = 634;
},
{
anchors = (
{
name = bottom;
pos = (379,0);
},
{
name = top;
pos = (379,450);
}
);
background = {
hints = (
{
name = _corner.ROUND;
origin = (0,0);
type = Corner;
},
{
name = _corner.ROUND;
origin = (0,1);
type = Corner;
},
{
name = _corner.ROUND;
origin = (0,2);
type = Corner;
},
{
name = _corner.ROUND;
origin = (0,3);
type = Corner;
},
{
name = _corner.ROUND;
origin = (1,0);
scale = (0.5,0.5);
type = Corner;
},
{
name = _corner.ROUND;
origin = (1,1);
scale = (0.5,0.5);
type = Corner;
},
{
name = _corner.ROUND;
options = 2;
origin = (1,2);
scale = (-0.5,0.5);
type = Corner;
},
{
name = _corner.ROUND;
options = 2;
origin = (1,3);
scale = (-0.5,0.5);
type = Corner;
},
{
name = _corner.ROUND;
origin = (2,0);
scale = (1.08,1.08);
type = Corner;
},
{
name = _corner.ROUND;
origin = (2,1);
scale = (1.08,1.08);
type = Corner;
},
{
name = _corner.ROUND;
origin = (2,2);
scale = (1.08,1.08);
type = Corner;
},
{
name = _corner.ROUND;
origin = (2,5);
scale = (0.7,0.7);
type = Corner;
},
{
name = _corner.ROUND;
origin = (2,6);
scale = (0.7,0.7);
type = Corner;
},
{
name = _corner.ROUND;
origin = (2,9);
scale = (1.08,1.08);
type = Corner;
},
{
name = _corner.ROUND;
options = 2;
origin = (3,2);
scale = (-0.7,0.7);
type = Corner;
},
{
name = _corner.ROUND;
options = 2;
origin = (3,3);
scale = (-0.7,0.7);
type = Corner;
}
);
shapes = (
{
closed = 1;
nodes = (
(44,500,l),
(44,0,l),
(409,0,l),
(409,500,l)
);
},
{
closed = 1;
nodes = (
(349,50,l),
(104,50,l),
(104,450,l),
(349,450,l)
);
},
{
closed = 1;
nodes = (
(350,500,l),
(350,0,l),
(715,0,l),
(715,159,l),
(655,159,l),
(655,50,l),
(410,50,l),
(410,236,l),
(715,236,l),
(715,500,l)
);
},
{
closed = 1;
nodes = (
(655,286,l),
(410,286,l),
(410,450,l),
(655,450,l)
);
}
);
};
hints = (
{
name = _corner.ROUND;
type = Corner;
},
{
name = _corner.ROUND;
options = 2;
scale = (-0.3,0.3);
type = Corner;
},
{
name = _corner.ROUND;
options = 2;
scale = (-0.3,0.3);
type = Corner;
},
{
name = _corner.ROUND;
type = Corner;
},
{
name = _corner.ROUND;
type = Corner;
},
{
name = _corner.ROUND;
type = Corner;
},
{
name = _corner.ROUND;
scale = (0.3,0.3);
type = Corner;
},
{
name = _corner.ROUND;
scale = (0.3,0.3);
type = Corner;
},
{
name = _corner.ROUND;
origin = (0,3);
type = Corner;
},
{
name = _corner.ROUND;
options = 2;
origin = (1,2);
scale = (-0.7,0.7);
type = Corner;
},
{
name = _corner.ROUND;
options = 2;
origin = (1,3);
scale = (-0.7,0.7);
type = Corner;
},
{
name = _corner.ROUND;
origin = (0,2);
type = Corner;
},
{
name = _corner.ROUND;
origin = (0,0);
type = Corner;
},
{
name = _corner.ROUND;
origin = (0,1);
type = Corner;
},
{
name = _corner.ROUND;
origin = (1,1);
scale = (0.7,0.7);
type = Corner;
},
{
name = _corner.ROUND;
origin = (1,0);
scale = (0.7,0.7);
type = Corner;
}
);
layerId = m002;
shapes = (
{
closed = 1;
nodes = (
(44,450,l),
(44,0,l),
(409,0,l),
(409,450,l)
);
},
{
closed = 1;
nodes = (
(349,50,l),
(104,50,l),
(104,400,l),
(349,400,l)
);
},
{
pos = (305,0);
ref = e;
}
);
width = 758;
}
);
metricLeft = "=o";
metricRight = "=o";
unicode = 339;
},
{
glyphname = p;
kernLeft = p;
kernRight = o;
lastChange = "2025-09-26 14:13:08 +0000";
layers = (
{
anchors = (
{
name = bottom;
pos = (206,0);
},
{
name = top;
pos = (206,500);
}
);
hints = (
{
name = _segment.CUT;
origin = (0,3);
type = Segment;
},
{
name = _corner.ROUND;
origin = (0,4);
type = Corner;
},
{
name = _corner.ROUND;
origin = (0,5);
type = Corner;
},
{
name = _segment.CUT;
options = 1;
origin = (0,7);
scale = (-1,1);
type = Segment;
},
{
name = _corner.ROUND;
options = 2;
origin = (1,0);
scale = (-0.3,0.3);
type = Corner;
},
{
name = _corner.ROUND;
origin = (1,1);
scale = (0.3,0.3);
type = Corner;
},
{
name = _corner.ROUND;
origin = (1,2);
scale = (0.3,0.3);
type = Corner;
},
{
name = _corner.ROUND;
options = 2;
origin = (1,3);
scale = (-0.3,0.3);
type = Corner;
}
);
layerId = m01;
shapes = (
{
closed = 1;
nodes = (
(25,-150,l),
(165,-150,l),
(165,0,l),
(250,0,l),
(390,0,l),
(390,500,l),
(250,500,l),
(165,500,l),
(25,500,l)
);
},
{
closed = 1;
nodes = (
(250,400,l),
(250,100,l),
(165,100,l),
(165,400,l)
);
}
);
width = 412;
},
{
anchors = (
{
name = bottom;
pos = (230,0);
},
{
name = top;
pos = (230,450);
}
);
backgroundImage = {
crop = (0,1.959,39.479,81.041);
imagePath = "../png/pqrstuv.png";
locked = 1;
pos = (34,-170);
scale = (10.208,10.208);
};
hints = (
{
name = _segment.CUT;
origin = (0,3);
type = Segment;
},
{
name = _corner.ROUND;
origin = (0,4);
type = Corner;
},
{
name = _corner.ROUND;
origin = (0,5);
type = Corner;
},
{
name = _segment.CUT;
options = 1;
origin = (0,7);
scale = (-1,1);
type = Segment;
},
{
name = _corner.ROUND;
options = 2;
origin = (1,0);
scale = (-0.7,0.7);
type = Corner;
},
{
name = _corner.ROUND;
origin = (1,1);
scale = (0.7,0.7);
type = Corner;
},
{
name = _corner.ROUND;
origin = (1,2);
scale = (0.5,0.8);
type = Corner;
},
{
name = _corner.ROUND;
options = 2;
origin = (1,3);
scale = (-0.5,0.8);
type = Corner;
}
);
layerId = m002;
shapes = (
{
closed = 1;
nodes = (
(50,-150,l),
(110,-150,l),
(110,0,l),
(275,0,l),
(415,0,l),
(415,450,l),
(275,450,l),
(110,450,l),
(50,450,l)
);
},
{
closed = 1;
nodes = (
(355,400,l),
(355,50,l),
(110,50,l),
(110,400,l)
);
}
);
width = 459;
}
);
metricLeft = "=h";
metricRight = "=o";
unicode = 112;
},
{
glyphname = thorn;
kernLeft = h;
kernRight = o;
lastChange = "2025-09-26 14:13:08 +0000";
layers = (
{
anchors = (
{
name = bottom;
pos = (206,0);
},
{
name = top;
pos = (206,775);
}
);
hints = (
{
name = _corner.BASE;
type = Corner;
},
{
name = _corner.BASE;
scale = (1.08,1.08);
type = Corner;
},
{
name = _corner.BASE;
scale = (1.08,1.08);
type = Corner;
},
{
name = _corner.BASE;
type = Corner;
},
{
name = _corner.BASE;
scale = (0.3,0.3);
type = Corner;
},
{
name = _corner.BASE;
options = 2;
scale = (-0.3,0.3);
type = Corner;
},
{
name = _corner.BASE;
scale = (0.3,0.3);
type = Corner;
},
{
name = _corner.BASE;
options = 2;
scale = (-0.3,0.3);
type = Corner;
},
{
name = _corner.ROUND;
type = Corner;
},
{
name = _corner.ROUND;
type = Corner;
},
{
name = _corner.ROUND;
type = Corner;
},
{
name = _corner.ROUND;
type = Corner;
},
{
name = _corner.ROUND;
scale = (0.3,0.3);
type = Corner;
},
{
name = _corner.ROUND;
scale = (0.3,0.3);
type = Corner;
},
{
name = _corner.ROUND;
options = 2;
scale = (-0.3,0.3);
type = Corner;
},
{
name = _corner.ROUND;
options = 2;
scale = (-0.3,0.3);
type = Corner;
},
{
name = _corner.ROUND;
type = Corner;
},
{
name = _corner.ROUND;
type = Corner;
},
{
name = _corner.ROUND;
type = Corner;
},
{
name = _corner.ROUND;
type = Corner;
},
{
name = _corner.ROUND;
options = 2;
scale = (-0.3,0.3);
type = Corner;
},
{
name = _corner.ROUND;
scale = (0.3,0.3);
type = Corner;
},
{
name = _corner.ROUND;
scale = (0.3,0.3);
type = Corner;
},
{
name = _corner.ROUND;
options = 2;
scale = (-0.3,0.3);
type = Corner;
},
{
name = _segment.CUT;
type = Segment;
},
{
name = _corner.ROUND;
type = Corner;
},
{
name = _corner.ROUND;
type = Corner;
},
{
name = _corner.ROUND;
options = 2;
scale = (-0.3,0.3);
type = Corner;
},
{
name = _corner.ROUND;
scale = (0.3,0.3);
type = Corner;
},
{
name = _corner.ROUND;
scale = (0.3,0.3);
type = Corner;
},
{
name = _corner.ROUND;
options = 2;
scale = (-0.3,0.3);
type = Corner;
},
{
name = _segment.CUT;
origin = (0,2);
type = Segment;
},
{
name = _corner.ROUND;
origin = (0,3);
type = Corner;
},
{
name = _corner.ROUND;
origin = (0,4);
type = Corner;
},
{
name = _segment.CUT;
options = 1;
origin = (0,6);
scale = (-1,1);
type = Segment;
},
{
name = _corner.ROUND;
origin = (1,0);
scale = (0.3,0.3);
type = Corner;
},
{
name = _corner.ROUND;
origin = (1,1);
scale = (0.3,0.3);
type = Corner;
},
{
name = _corner.ROUND;
options = 2;
origin = (1,2);
scale = (-0.3,0.3);
type = Corner;
},
{
name = _corner.ROUND;
options = 2;
origin = (1,3);
scale = (-0.3,0.3);
type = Corner;
}
);
layerId = m01;
shapes = (
{
closed = 1;
nodes = (
(165,-150,l),
(165,0,l),
(250,0,l),
(390,0,l),
(390,500,l),
(250,500,l),
(165,500,l),
(165,650,l),
(25,650,l),
(25,-150,l)
);
},
{
closed = 1;
nodes = (
(165,400,l),
(250,400,l),
(250,100,l),
(165,100,l)
);
}
);
width = 412;
},
{
anchors = (
{
name = bottom;
pos = (206,0);
},
{
name = top;
pos = (206,775);
}
);
hints = (
{
name = _corner.BASE;
type = Corner;
},
{
name = _corner.BASE;
scale = (1.08,1.08);
type = Corner;
},
{
name = _corner.BASE;
scale = (1.08,1.08);
type = Corner;
},
{
name = _corner.BASE;
type = Corner;
},
{
name = _corner.BASE;
scale = (0.3,0.3);
type = Corner;
},
{
name = _corner.BASE;
options = 2;
scale = (-0.3,0.3);
type = Corner;
},
{
name = _corner.BASE;
scale = (0.3,0.3);
type = Corner;
},
{
name = _corner.BASE;
options = 2;
scale = (-0.3,0.3);
type = Corner;
},
{
name = _corner.ROUND;
type = Corner;
},
{
name = _corner.ROUND;
type = Corner;
},
{
name = _corner.ROUND;
type = Corner;
},
{
name = _corner.ROUND;
type = Corner;
},
{
name = _corner.ROUND;
scale = (0.3,0.3);
type = Corner;
},
{
name = _corner.ROUND;
scale = (0.3,0.3);
type = Corner;
},
{
name = _corner.ROUND;
options = 2;
scale = (-0.3,0.3);
type = Corner;
},
{
name = _corner.ROUND;
options = 2;
scale = (-0.3,0.3);
type = Corner;
},
{
name = _corner.ROUND;
type = Corner;
},
{
name = _corner.ROUND;
type = Corner;
},
{
name = _corner.ROUND;
type = Corner;
},
{
name = _corner.ROUND;
type = Corner;
},
{
name = _corner.ROUND;
options = 2;
scale = (-0.3,0.3);
type = Corner;
},
{
name = _corner.ROUND;
scale = (0.3,0.3);
type = Corner;
},
{
name = _corner.ROUND;
scale = (0.3,0.3);
type = Corner;
},
{
name = _corner.ROUND;
options = 2;
scale = (-0.3,0.3);
type = Corner;
},
{
name = _segment.CUT;
type = Segment;
},
{
name = _corner.ROUND;
type = Corner;
},
{
name = _corner.ROUND;
type = Corner;
},
{
name = _corner.ROUND;
options = 2;
scale = (-0.3,0.3);
type = Corner;
},
{
name = _corner.ROUND;
scale = (0.3,0.3);
type = Corner;
},
{
name = _corner.ROUND;
scale = (0.3,0.3);
type = Corner;
},
{
name = _corner.ROUND;
options = 2;
scale = (-0.3,0.3);
type = Corner;
},
{
name = _segment.CUT;
origin = (0,2);
type = Segment;
},
{
name = _corner.ROUND;
origin = (0,3);
type = Corner;
},
{
name = _corner.ROUND;
origin = (0,4);
type = Corner;
},
{
name = _segment.CUT;
options = 1;
origin = (0,6);
scale = (-1,1);
type = Segment;
},
{
name = _corner.ROUND;
origin = (1,0);
scale = (0.5,0.5);
type = Corner;
},
{
name = _corner.ROUND;
origin = (1,1);
scale = (0.5,0.5);
type = Corner;
},
{
name = _corner.ROUND;
options = 2;
origin = (1,2);
scale = (-0.5,0.5);
type = Corner;
},
{
name = _corner.ROUND;
options = 2;
origin = (1,3);
scale = (-0.5,0.5);
type = Corner;
}
);
layerId = m002;
shapes = (
{
closed = 1;
nodes = (
(85,-150,l),
(85,0,l),
(170,0,l),
(390,0,l),
(390,450,l),
(170,450,l),
(85,450,l),
(85,650,l),
(25,650,l),
(25,-150,l)
);
},
{
closed = 1;
nodes = (
(85,390,l),
(320,390,l),
(320,60,l),
(85,60,l)
);
}
);
width = 412;
}
);
unicode = 254;
},
{
glyphname = q;
kernLeft = o;
kernRight = q;
lastChange = "2025-09-26 14:13:08 +0000";
layers = (
{
anchors = (
{
name = bottom;
pos = (206,0);
},
{
name = top;
pos = (206,500);
}
);
background = {
hints = (
{
name = _segment.CUT;
type = Segment;
},
{
name = _corner.ROUND;
type = Corner;
},
{
name = _corner.ROUND;
type = Corner;
},
{
name = _segment.CUT;
options = 1;
scale = (-1,1);
type = Segment;
},
{
name = _corner.ROUND;
scale = (0.3,0.3);
type = Corner;
},
{
name = _corner.ROUND;
scale = (0.3,0.3);
type = Corner;
},
{
name = _corner.ROUND;
options = 2;
scale = (-0.3,0.3);
type = Corner;
},
{
name = _corner.ROUND;
options = 2;
scale = (-0.3,0.3);
type = Corner;
},
{
name = _segment.CUT;
origin = (0,1);
type = Segment;
},
{
name = _corner.ROUND;
origin = (0,2);
type = Corner;
},
{
name = _corner.ROUND;
origin = (0,3);
type = Corner;
},
{
name = _segment.CUT;
options = 1;
origin = (0,5);
scale = (-1,1);
type = Segment;
},
{
name = _corner.ROUND;
origin = (1,0);
scale = (0.3,0.3);
type = Corner;
},
{
name = _corner.ROUND;
origin = (1,1);
scale = (0.3,0.3);
type = Corner;
},
{
name = _corner.ROUND;
options = 2;
origin = (1,2);
scale = (-0.3,0.3);
type = Corner;
},
{
name = _corner.ROUND;
options = 2;
origin = (1,3);
scale = (-0.3,0.3);
type = Corner;
}
);
shapes = (
{
closed = 1;
nodes = (
(247,525,l),
(162,525,l),
(22,525,l),
(22,0,l),
(162,0,l),
(247,0,l),
(247,-175,l),
(387,-175,l),
(387,525,l)
);
},
{
closed = 1;
nodes = (
(247,100,l),
(162,100,l),
(162,425,l),
(247,425,l)
);
}
);
};
hints = (
{
name = _segment.CUT;
origin = (0,1);
type = Segment;
},
{
name = _corner.ROUND;
origin = (0,2);
type = Corner;
},
{
name = _corner.ROUND;
origin = (0,3);
type = Corner;
},
{
name = _segment.CUT;
options = 1;
origin = (0,5);
scale = (-1,1);
type = Segment;
},
{
name = _corner.ROUND;
origin = (1,0);
scale = (0.3,0.3);
type = Corner;
},
{
name = _corner.ROUND;
origin = (1,1);
scale = (0.3,0.3);
type = Corner;
},
{
name = _corner.ROUND;
options = 2;
origin = (1,2);
scale = (-0.3,0.3);
type = Corner;
},
{
name = _corner.ROUND;
options = 2;
origin = (1,3);
scale = (-0.3,0.3);
type = Corner;
}
);
layerId = m01;
shapes = (
{
closed = 1;
nodes = (
(247,500,l),
(162,500,l),
(22,500,l),
(22,0,l),
(162,0,l),
(247,0,l),
(247,-150,l),
(387,-150,l),
(387,500,l)
);
},
{
closed = 1;
nodes = (
(247,100,l),
(162,100,l),
(162,400,l),
(247,400,l)
);
}
);
width = 412;
},
{
anchors = (
{
name = bottom;
pos = (230,0);
},
{
name = top;
pos = (230,450);
}
);
backgroundImage = {
crop = (38.303,1.959,40.36,81.041);
imagePath = "../png/pqrstuv.png";
locked = 1;
pos = (-369,-170);
scale = (10.208,10.208);
};
hints = (
{
name = _segment.CUT;
origin = (0,1);
type = Segment;
},
{
name = _corner.ROUND;
origin = (0,2);
type = Corner;
},
{
name = _corner.ROUND;
origin = (0,3);
type = Corner;
},
{
name = _segment.CUT;
options = 1;
origin = (0,5);
scale = (-1,1);
type = Segment;
},
{
name = _corner.ROUND;
origin = (1,0);
scale = (0.8,0.5);
type = Corner;
},
{
name = _corner.ROUND;
origin = (1,1);
scale = (0.7,0.7);
type = Corner;
},
{
name = _corner.ROUND;
options = 2;
origin = (1,2);
scale = (-0.7,0.7);
type = Corner;
},
{
name = _corner.ROUND;
options = 2;
origin = (1,3);
scale = (-0.8,0.5);
type = Corner;
}
);
layerId = m002;
shapes = (
{
closed = 1;
nodes = (
(349,450,l),
(184,450,l),
(44,450,l),
(44,0,l),
(184,0,l),
(349,0,l),
(349,-150,l),
(409,-150,l),
(409,450,l)
);
},
{
closed = 1;
nodes = (
(349,50,l),
(104,50,l),
(104,400,l),
(349,400,l)
);
}
);
width = 459;
}
);
metricLeft = "=o";
metricRight = "=h";
unicode = 113;
},
{
glyphname = r;
kernLeft = n;
kernRight = r;
lastChange = "2025-09-26 14:13:08 +0000";
layers = (
{
anchors = (
{
name = bottom;
pos = (199,0);
},
{
name = top;
pos = (199,500);
}
);
hints = (
{
name = _corner.ROUND;
origin = (0,9);
type = Corner;
},
{
name = _corner.ROUND;
options = 2;
origin = (0,6);
scale = (-0.3,0.3);
type = Corner;
},
{
name = _corner.ROUND;
origin = (0,5);
scale = (0.3,0.3);
type = Corner;
},
{
name = _segment.CUT;
options = 1;
origin = (0,1);
scale = (-1,1);
type = Segment;
}
);
layerId = m01;
shapes = (
{
closed = 1;
nodes = (
(250,500,l),
(165,500,l),
(25,500,l),
(25,0,l),
(165,0,l),
(165,400,l),
(250,400,l),
(250,335,l),
(390,335,l),
(390,500,l)
);
}
);
width = 398;
},
{
anchors = (
{
name = bottom;
pos = (216,0);
},
{
name = top;
pos = (216,450);
}
);
backgroundImage = {
crop = (77.488,1.959,38.989,81.041);
imagePath = "../png/pqrstuv.png";
locked = 1;
pos = (-766,-170);
scale = (10.208,10.208);
};
hints = (
{
name = _corner.ROUND;
origin = (0,9);
type = Corner;
},
{
name = _corner.ROUND;
options = 2;
origin = (0,6);
scale = (-0.7,0.7);
type = Corner;
},
{
name = _corner.ROUND;
origin = (0,5);
scale = (0.8,0.5);
type = Corner;
},
{
name = _segment.CUT;
options = 1;
origin = (0,1);
scale = (-1,1);
type = Segment;
}
);
layerId = m002;
shapes = (
{
closed = 1;
nodes = (
(275,450,l),
(110,450,l),
(50,450,l),
(50,0,l),
(110,0,l),
(110,400,l),
(355,400,l),
(355,285,l),
(415,285,l),
(415,450,l)
);
}
);
width = 432;
}
);
metricLeft = "=h";
metricRight = "=h*.33";
unicode = 114;
},
{
glyphname = s;
kernLeft = s;
kernRight = s;
lastChange = "2025-09-26 14:13:12 +0000";
layers = (
{
anchors = (
{
name = bottom;
pos = (200,0);
},
{
name = top;
pos = (200,500);
}
);
background = {
hints = (
{
name = _corner.ROUND;
origin = (0,2);
scale = (0.3,0.3);
type = Corner;
},
{
name = _corner.ROUND;
options = 2;
origin = (0,3);
scale = (-0.3,0.3);
type = Corner;
},
{
name = _corner.ROUND;
origin = (0,6);
scale = (1.08,1.08);
type = Corner;
},
{
name = _corner.ROUND;
origin = (0,7);
scale = (1.08,1);
type = Corner;
},
{
name = _corner.ROUND;
options = 2;
origin = (0,12);
scale = (-0.3,0.3);
type = Corner;
},
{
name = _corner.ROUND;
origin = (0,13);
scale = (0.3,0.3);
type = Corner;
},
{
name = _corner.ROUND;
origin = (0,16);
type = Corner;
},
{
name = _corner.ROUND;
origin = (0,17);
type = Corner;
}
);
shapes = (
{
closed = 1;
nodes = (
(156,299,o),
(157,375,c),
(157,430,l),
(242,430,l),
(242,364,l),
(382,365,l),
(382,530,l),
(17,530,l),
(17,385,l),
(17,201,o),
(243,245,o),
(242,155,c),
(242,100,l),
(157,100,l),
(157,165,l),
(17,165,l),
(17,0,l),
(382,0,l),
(382,155,ls),
(382,335,o)
);
}
);
};
hints = (
{
name = _corner.ROUND;
origin = (0,2);
scale = (0.3,0.3);
type = Corner;
},
{
name = _corner.ROUND;
options = 2;
origin = (0,3);
scale = (-0.3,0.3);
type = Corner;
},
{
name = _corner.ROUND;
origin = (0,6);
type = Corner;
},
{
name = _corner.ROUND;
origin = (0,7);
type = Corner;
},
{
name = _corner.ROUND;
options = 2;
origin = (0,12);
scale = (-0.3,0.3);
type = Corner;
},
{
name = _corner.ROUND;
origin = (0,13);
scale = (0.3,0.3);
type = Corner;
},
{
name = _corner.ROUND;
origin = (0,16);
type = Corner;
},
{
name = _corner.ROUND;
origin = (0,17);
type = Corner;
}
);
layerId = m01;
shapes = (
{
closed = 1;
nodes = (
(157,265,o),
(157,355,c),
(157,400,l),
(242,400,l),
(242,335,l),
(382,335,l),
(382,500,l),
(17,500,l),
(17,355,l),
(17,175,o),
(242,235,o),
(242,145,c),
(242,100,l),
(157,100,l),
(157,165,l),
(17,165,l),
(17,0,l),
(382,0,l),
(382,145,ls),
(382,325,o)
);
}
);
width = 399;
},
{
anchors = (
{
name = bottom;
pos = (216,0);
},
{
name = top;
pos = (216,450);
}
);
background = {
hints = (
{
name = _corner.ROUND;
scale = (0.3,0.3);
type = Corner;
},
{
name = _corner.ROUND;
options = 2;
scale = (-0.3,0.3);
type = Corner;
},
{
name = _corner.ROUND;
scale = (1.08,1.08);
type = Corner;
},
{
name = _corner.ROUND;
scale = (1.08,1);
type = Corner;
},
{
name = _corner.ROUND;
options = 2;
scale = (-0.3,0.3);
type = Corner;
},
{
name = _corner.ROUND;
scale = (0.3,0.3);
type = Corner;
},
{
name = _corner.ROUND;
type = Corner;
},
{
name = _corner.ROUND;
type = Corner;
},
{
name = _corner.ROUND;
scale = (0.3,0.3);
type = Corner;
},
{
name = _corner.ROUND;
scale = (0.3,0.3);
type = Corner;
},
{
name = _corner.ROUND;
origin = (0,2);
scale = (0.7,0.7);
type = Corner;
},
{
name = _corner.ROUND;
options = 2;
origin = (0,3);
scale = (-0.7,0.7);
type = Corner;
},
{
name = _corner.ROUND;
origin = (0,6);
type = Corner;
},
{
name = _corner.ROUND;
origin = (0,7);
type = Corner;
},
{
name = _corner.ROUND;
options = 2;
origin = (0,12);
scale = (-0.7,0.7);
type = Corner;
},
{
name = _corner.ROUND;
origin = (0,13);
scale = (0.7,0.7);
type = Corner;
},
{
name = _corner.ROUND;
origin = (0,16);
type = Corner;
},
{
name = _corner.ROUND;
origin = (0,17);
type = Corner;
}
);
shapes = (
{
closed = 1;
nodes = (
(93,235,o),
(93,355,c),
(93,450,l),
(338,450,l),
(338,335,l),
(398,335,l),
(398,500,l),
(33,500,l),
(33,355,l),
(33,175,o),
(338,265,o),
(338,145,c),
(338,50,l),
(93,50,l),
(93,165,l),
(33,165,l),
(33,0,l),
(398,0,l),
(398,145,ls),
(398,325,o)
);
}
);
};
backgroundImage = {
crop = (114.518,1.959,39.087,81.041);
imagePath = "../png/pqrstuv.png";
locked = 1;
pos = (-1153,-170);
scale = (10.208,10.208);
};
hints = (
{
name = _corner.ROUND;
origin = (0,2);
scale = (0.5,0.5);
type = Corner;
},
{
name = _corner.ROUND;
options = 2;
origin = (0,3);
scale = (-0.5,0.5);
type = Corner;
},
{
name = _corner.ROUND;
origin = (0,6);
type = Corner;
},
{
name = _corner.ROUND;
origin = (0,7);
type = Corner;
},
{
name = _corner.ROUND;
options = 2;
origin = (0,12);
scale = (-0.5,0.5);
type = Corner;
},
{
name = _corner.ROUND;
origin = (0,13);
scale = (0.5,0.5);
type = Corner;
},
{
name = _corner.ROUND;
origin = (0,16);
type = Corner;
},
{
name = _corner.ROUND;
origin = (0,17);
type = Corner;
}
);
layerId = m002;
shapes = (
{
closed = 1;
nodes = (
(93,185,o),
(93,305,c),
(93,400,l),
(338,400,l),
(338,285,l),
(398,285,l),
(398,450,l),
(33,450,l),
(33,305,l),
(33,125,o),
(338,265,o),
(338,145,c),
(338,50,l),
(93,50,l),
(93,165,l),
(33,165,l),
(33,0,l),
(398,0,l),
(398,145,ls),
(398,325,o)
);
}
);
width = 431;
}
);
metricLeft = "=o*.75";
metricRight = "=o*.75";
unicode = 115;
},
{
glyphname = germandbls;
kernLeft = n;
kernRight = germandbls;
lastChange = "2025-07-07 19:39:16 +0000";
layers = (
{
anchors = (
{
name = bottom;
pos = (239,0);
},
{
name = top;
pos = (239,775);
}
);
hints = (
{
name = _corner.ROUND;
origin = (0,12);
scale = (1.08,1.08);
type = Corner;
},
{
name = _corner.ROUND;
origin = (0,15);
type = Corner;
},
{
name = _corner.ROUND;
origin = (0,5);
scale = (0.3,0.3);
type = Corner;
},
{
name = _corner.ROUND;
options = 2;
origin = (0,4);
scale = (-0.3,0.3);
type = Corner;
},
{
name = _corner.ROUND;
origin = (0,9);
scale = (0.3,0.3);
type = Corner;
},
{
name = _corner.ROUND;
options = 2;
origin = (0,8);
scale = (-0.3,0.3);
type = Corner;
},
{
name = _segment.DOUBLECUT;
origin = (0,14);
type = Segment;
},
{
name = _corner.ROUND;
origin = (0,0);
scale = (1.2,1.2);
type = Corner;
},
{
name = _corner.ROUND;
origin = (0,3);
scale = (0.3,0.3);
type = Corner;
}
);
layerId = m01;
shapes = (
{
closed = 1;
nodes = (
(25,600,l),
(25,0,l),
(165,0,l),
(165,500,l),
(315,500,l),
(315,350,l),
(245,350,l),
(245,250,l),
(315,250,l),
(315,100,l),
(215,100,l),
(215,0,l),
(455,0,l),
(455,206,l),
(455,400,l),
(455,600,l)
);
}
);
width = 477;
},
{
anchors = (
{
name = bottom;
pos = (264,0);
},
{
name = top;
pos = (264,775);
}
);
hints = (
{
name = _corner.ROUND;
origin = (0,12);
scale = (1.08,1.08);
type = Corner;
},
{
name = _corner.ROUND;
origin = (0,15);
type = Corner;
},
{
name = _corner.ROUND;
origin = (0,5);
scale = (0.5,0.5);
type = Corner;
},
{
name = _corner.ROUND;
options = 2;
origin = (0,4);
scale = (-0.5,0.5);
type = Corner;
},
{
name = _corner.ROUND;
origin = (0,9);
scale = (0.5,0.5);
type = Corner;
},
{
name = _corner.ROUND;
options = 2;
origin = (0,8);
scale = (-0.5,0.5);
type = Corner;
},
{
name = _segment.DOUBLECUT;
origin = (0,14);
scale = (0.8,0.8);
type = Segment;
},
{
name = _corner.ROUND;
origin = (0,0);
scale = (1.2,1.2);
type = Corner;
},
{
name = _corner.ROUND;
origin = (0,3);
scale = (0.8,0.8);
type = Corner;
}
);
layerId = m002;
shapes = (
{
closed = 1;
nodes = (
(50,600,l),
(50,0,l),
(120,0,l),
(120,550,l),
(410,550,l),
(410,325,l),
(220,325,l),
(220,275,l),
(410,275,l),
(410,50,l),
(190,50,l),
(190,0,l),
(480,0,l),
(480,206,l),
(480,400,l),
(480,600,l)
);
}
);
width = 524;
}
);
metricLeft = "=h";
metricRight = "=o";
unicode = 223;
},
{
glyphname = t;
kernLeft = t;
kernRight = t;
lastChange = "2025-09-26 14:13:22 +0000";
layers = (
{
anchors = (
{
name = bottom;
pos = (153,0);
},
{
name = center;
pos = (153,250);
},
{
name = top;
pos = (153,675);
},
{
name = topright;
pos = (286,775);
}
);
background = {
hints = (
{
name = _corner.ROUND;
origin = (0,0);
type = Corner;
},
{
name = _corner.ROUND;
origin = (0,3);
scale = (0.3,0.3);
type = Corner;
}
);
shapes = (
{
closed = 1;
nodes = (
(83,0,l),
(293,0,l),
(293,100,l),
(223,100,l),
(223,700,l),
(83,700,l)
);
},
{
closed = 1;
nodes = (
(13,425,l),
(293,425,l),
(293,525,l),
(13,525,l)
);
}
);
};
hints = (
{
name = _corner.ROUND;
origin = (0,7);
scale = (0.3,0.3);
type = Corner;
},
{
name = _corner.ROUND;
origin = (0,4);
type = Corner;
}
);
layerId = m01;
shapes = (
{
closed = 1;
nodes = (
(83,500,l),
(13,500,l),
(13,400,l),
(83,400,l),
(83,0,l),
(293,0,l),
(293,100,l),
(223,100,l),
(223,400,l),
(293,400,l),
(293,500,l),
(223,500,l),
(223,650,l),
(83,650,l)
);
}
);
width = 306;
},
{
anchors = (
{
name = bottom;
pos = (150,0);
},
{
name = center;
pos = (150,225);
},
{
name = top;
pos = (150,650);
},
{
name = topright;
pos = (280,775);
}
);
backgroundImage = {
crop = (151.939,1.959,29.976,81.041);
imagePath = "../png/pqrstuv.png";
locked = 1;
pos = (-1539,-170);
scale = (10.208,10.208);
};
hints = (
{
name = _corner.ROUND;
origin = (0,7);
scale = (0.5,0.7);
type = Corner;
},
{
name = _corner.ROUND;
origin = (0,4);
type = Corner;
}
);
layerId = m002;
shapes = (
{
closed = 1;
nodes = (
(95,450,l),
(25,450,l),
(25,400,l),
(95,400,l),
(95,0,l),
(275,0,l),
(275,50,l),
(155,50,l),
(155,400,l),
(275,400,l),
(275,450,l),
(155,450,l),
(155,650,l),
(95,650,l)
);
}
);
width = 300;
}
);
metricLeft = "=h*.5";
metricRight = "=h*.5";
unicode = 116;
},
{
glyphname = u;
kernLeft = u;
kernRight = u;
lastChange = "2025-09-26 14:12:43 +0000";
layers = (
{
anchors = (
{
name = bottom;
pos = (208,0);
},
{
name = ogonek;
pos = (374,10);
},
{
name = top;
pos = (208,500);
},
{
name = topright;
pos = (395,500);
}
);
background = {
hints = (
{
name = _corner.ROUND;
type = Corner;
},
{
name = _corner.ROUND;
options = 2;
scale = (-0.3,0.3);
type = Corner;
},
{
name = _corner.ROUND;
options = 2;
scale = (-0.3,0.3);
type = Corner;
},
{
name = _corner.ROUND;
type = Corner;
},
{
name = _corner.ROUND;
options = 2;
scale = (-0.3,0.3);
type = Corner;
},
{
name = _corner.ROUND;
options = 2;
scale = (-0.3,0.3);
type = Corner;
},
{
name = _segment.CUT;
options = 1;
origin = (0,1);
scale = (-1,1);
type = Segment;
},
{
name = _corner.ROUND;
options = 2;
origin = (0,5);
scale = (-0.3,0.3);
type = Corner;
},
{
name = _corner.ROUND;
options = 2;
origin = (0,6);
scale = (-0.3,0.3);
type = Corner;
},
{
name = _corner.ROUND;
origin = (0,9);
type = Corner;
}
);
shapes = (
{
closed = 1;
nodes = (
(167,0,l),
(250,0,l),
(390,0,l),
(390,530,l),
(250,530,l),
(250,100,l),
(165,100,l),
(165,530,l),
(25,530,l),
(25,0,l)
);
}
);
};
hints = (
{
name = _corner.ROUND;
origin = (0,9);
type = Corner;
},
{
name = _corner.ROUND;
options = 2;
origin = (0,5);
scale = (-0.3,0.3);
type = Corner;
},
{
name = _corner.ROUND;
options = 2;
origin = (0,6);
scale = (-0.3,0.3);
type = Corner;
},
{
name = _segment.CUT;
options = 1;
origin = (0,1);
scale = (-1,1);
type = Segment;
}
);
layerId = m01;
shapes = (
{
closed = 1;
nodes = (
(165,0,l),
(250,0,l),
(390,0,l),
(390,500,l),
(250,500,l),
(250,100,l),
(165,100,l),
(165,500,l),
(25,500,l),
(25,0,l)
);
}
);
width = 415;
},
{
anchors = (
{
name = bottom;
pos = (233,0);
},
{
name = ogonek;
pos = (419,10);
},
{
name = top;
pos = (233,450);
},
{
name = topright;
pos = (445,450);
}
);
backgroundImage = {
crop = (181.328,1.959,40.654,81.041);
imagePath = "../png/pqrstuv.png";
locked = 1;
pos = (-1826,-170);
scale = (10.208,10.208);
};
hints = (
{
name = _corner.ROUND;
origin = (0,9);
type = Corner;
},
{
name = _corner.ROUND;
options = 2;
origin = (0,5);
scale = (-0.5,0.8);
type = Corner;
},
{
name = _corner.ROUND;
options = 2;
origin = (0,6);
scale = (-0.7,0.7);
type = Corner;
},
{
name = _segment.CUT;
options = 1;
origin = (0,1);
scale = (-1,1);
type = Segment;
}
);
layerId = m002;
shapes = (
{
closed = 1;
nodes = (
(190,0,l),
(355,0,l),
(415,0,l),
(415,450,l),
(355,450,l),
(355,50,l),
(110,50,l),
(110,450,l),
(50,450,l),
(50,0,l)
);
}
);
width = 465;
}
);
metricLeft = "=h";
metricRight = "=h";
unicode = 117;
},
{
glyphname = v;
kernLeft = v;
kernRight = v;
lastChange = "2025-09-26 14:13:15 +0000";
layers = (
{
anchors = (
{
name = bottom;
pos = (196,0);
},
{
name = top;
pos = (196,500);
}
);
background = {
shapes = (
{
closed = 0;
nodes = (
(171,0,l),
(271,0,l)
);
}
);
};
layerId = m01;
shapes = (
{
closed = 1;
nodes = (
(6,500,l),
(121,0,l),
(221,0,l),
(146,500,l)
);
},
{
closed = 1;
nodes = (
(171,0,l),
(271,0,l),
(386,500,l),
(246,500,l)
);
}
);
width = 392;
},
{
anchors = (
{
name = bottom;
pos = (203,0);
},
{
name = top;
pos = (203,450);
}
);
background = {
shapes = (
{
closed = 0;
nodes = (
(176,0,l),
(276,0,l)
);
}
);
};
backgroundImage = {
crop = (221.493,1.959,36.507,81.041);
imagePath = "../png/pqrstuv.png";
locked = 1;
pos = (-2256,-170);
scale = (10.208,10.208);
};
layerId = m002;
shapes = (
{
closed = 1;
nodes = (
(228,0,l),
(73,450,l),
(13,450,l),
(168,0,l)
);
},
{
closed = 1;
nodes = (
(393,450,l),
(333,450,l),
(178,0,l),
(238,0,l)
);
}
);
width = 406;
}
);
metricLeft = "=h*.25";
metricRight = "=h*.25";
unicode = 118;
},
{
glyphname = w;
kernLeft = w;
kernRight = w;
lastChange = "2025-09-26 14:13:18 +0000";
layers = (
{
anchors = (
{
name = bottom;
pos = (311,0);
},
{
name = top;
pos = (311,500);
}
);
layerId = m01;
shapes = (
{
closed = 1;
nodes = (
(6,500,l),
(116,0,l),
(216,0,l),
(146,500,l)
);
},
{
closed = 1;
nodes = (
(166,0,l),
(266,0,l),
(336,500,l),
(246,500,l)
);
},
{
closed = 1;
nodes = (
(286,500,l),
(356,0,l),
(456,0,l),
(376,500,l)
);
},
{
closed = 1;
nodes = (
(406,0,l),
(506,0,l),
(616,500,l),
(476,500,l)
);
}
);
width = 622;
},
{
anchors = (
{
name = bottom;
pos = (363,0);
},
{
name = top;
pos = (363,450);
}
);
backgroundImage = {
crop = (38.52,1.839,60.199,78.161);
imagePath = "../png/vwxyz.png";
locked = 1;
pos = (-391,-169);
scale = (10.3323,10.3323);
};
layerId = m002;
shapes = (
{
closed = 1;
nodes = (
(228,0,l),
(73,450,l),
(13,450,l),
(168,0,l)
);
},
{
closed = 1;
nodes = (
(393,450,l),
(333,450,l),
(178,0,l),
(238,0,l)
);
},
{
closed = 1;
nodes = (
(548,0,l),
(393,450,l),
(333,450,l),
(488,0,l)
);
},
{
closed = 1;
nodes = (
(713,450,l),
(653,450,l),
(498,0,l),
(558,0,l)
);
}
);
width = 726;
}
);
metricLeft = "=h*.25";
metricRight = "=h*.25";
unicode = 119;
},
{
glyphname = x;
kernLeft = x;
kernRight = x;
lastChange = "2025-09-26 14:13:29 +0000";
layers = (
{
anchors = (
{
name = bottom;
pos = (189,0);
},
{
name = top;
pos = (189,500);
}
);
background = {
shapes = (
{
closed = 1;
nodes = (
(118,251,l),
(5,0,l),
(145,0,l),
(188,120,l),
(230,0,l),
(370,0,l),
(258,251,l),
(370,500,l),
(230,500,l),
(188,380,l),
(145,500,l),
(5,500,l)
);
}
);
};
layerId = m01;
shapes = (
{
closed = 1;
nodes = (
(241,0,l),
(371,0,l),
(136,500,l),
(6,500,l)
);
},
{
closed = 1;
nodes = (
(241,500,l),
(6,0,l),
(136,0,l),
(371,500,l)
);
}
);
width = 377;
},
{
anchors = (
{
name = bottom;
pos = (196,0);
},
{
name = top;
pos = (196,450);
}
);
background = {
shapes = (
{
closed = 1;
nodes = (
(308,0,l),
(378,0,l),
(83,500,l),
(13,500,l)
);
},
{
closed = 1;
nodes = (
(308,500,l),
(13,0,l),
(83,0,l),
(378,500,l)
);
}
);
};
backgroundImage = {
crop = (96.009,1.839,36.487,78.161);
imagePath = "../png/vwxyz.png";
locked = 1;
pos = (-978,-169);
scale = (10.3323,10.3323);
};
layerId = m002;
shapes = (
{
closed = 1;
nodes = (
(308,0,l),
(378,0,l),
(83,450,l),
(13,450,l)
);
},
{
closed = 1;
nodes = (
(308,450,l),
(13,0,l),
(83,0,l),
(378,450,l)
);
}
);
width = 391;
}
);
metricLeft = "=h*.25";
metricRight = "=h*.25";
unicode = 120;
},
{
glyphname = y;
kernLeft = y;
kernRight = y;
lastChange = "2025-09-26 14:13:35 +0000";
layers = (
{
anchors = (
{
name = bottom;
pos = (200,0);
},
{
name = top;
pos = (200,500);
}
);
hints = (
{
name = _corner.ROUND;
origin = (0,7);
scale = (0.3,0.4);
type = Corner;
},
{
name = _corner.ROUND;
origin = (0,10);
scale = (1.15,0.8);
type = Corner;
}
);
layerId = m01;
shapes = (
{
closed = 1;
nodes = (
(278,0,l),
(393,500,l),
(253,500,l),
(203,122,l),
(153,500,l),
(13,500,l),
(128,0,l),
(144,-50,l),
(13,-50,l),
(13,-150,l),
(230,-150,l)
);
}
);
width = 399;
},
{
anchors = (
{
name = bottom;
pos = (199,0);
},
{
name = top;
pos = (199,450);
}
);
backgroundImage = {
crop = (134.336,1.839,38.617,78.161);
imagePath = "../png/vwxyz.png";
locked = 1;
pos = (-1346,-169);
scale = (10.3323,10.3323);
};
hints = (
{
name = _corner.ROUND;
origin = (0,7);
scale = (0.5,0.6);
type = Corner;
},
{
name = _corner.ROUND;
origin = (0,10);
scale = (0.8,0.6);
type = Corner;
}
);
layerId = m002;
shapes = (
{
closed = 1;
nodes = (
(240,0,l),
(385,450,l),
(325,450,l),
(205,82,l),
(85,450,l),
(25,450,l),
(170,0,l),
(196,-100,l),
(55,-100,l),
(55,-150,l),
(196,-150,l)
);
}
);
width = 398;
}
);
metricLeft = "=h*.5";
metricRight = "=h*.25";
unicode = 121;
},
{
glyphname = z;
kernLeft = z;
kernRight = z;
lastChange = "2025-09-26 14:13:40 +0000";
layers = (
{
anchors = (
{
name = bottom;
pos = (180,0);
},
{
name = center;
pos = (180,250);
},
{
name = top;
pos = (180,500);
}
);
layerId = m01;
shapes = (
{
closed = 1;
nodes = (
(19,400,l),
(194,400,l),
(19,100,l),
(19,0,l),
(334,0,l),
(334,100,l),
(159,100,l),
(334,400,l),
(334,500,l),
(19,500,l)
);
}
);
width = 359;
},
{
anchors = (
{
name = bottom;
pos = (202,0);
},
{
name = center;
pos = (202,225);
},
{
name = top;
pos = (202,450);
}
);
backgroundImage = {
crop = (175.856,1.839,33.144,78.161);
imagePath = "../png/vwxyz.png";
locked = 1;
pos = (-1798,-169);
scale = (10.3323,10.3323);
};
layerId = m002;
shapes = (
{
closed = 1;
nodes = (
(38,400,l),
(293,400,l),
(38,50,l),
(38,0,l),
(353,0,l),
(353,50,l),
(98,50,l),
(353,400,l),
(353,450,l),
(38,450,l)
);
}
);
width = 403;
}
);
metricLeft = "=h*.75";
metricRight = "=h";
unicode = 122;
},
{
glyphname = zero;
kernLeft = zero;
kernRight = zero;
lastChange = "2025-07-07 14:59:31 +0000";
layers = (
{
hints = (
{
name = _corner.ROUND;
origin = (0,0);
type = Corner;
},
{
name = _corner.ROUND;
origin = (0,1);
type = Corner;
},
{
name = _corner.ROUND;
origin = (0,2);
type = Corner;
},
{
name = _corner.ROUND;
origin = (0,3);
type = Corner;
},
{
name = _corner.ROUND;
origin = (1,0);
scale = (0.3,0.3);
type = Corner;
},
{
name = _corner.ROUND;
origin = (1,1);
scale = (0.3,0.3);
type = Corner;
},
{
name = _corner.ROUND;
options = 2;
origin = (1,2);
scale = (-0.3,0.3);
type = Corner;
},
{
name = _corner.ROUND;
options = 2;
origin = (1,3);
scale = (-0.3,0.3);
type = Corner;
}
);
layerId = m01;
shapes = (
{
closed = 1;
nodes = (
(22,0,l),
(412,0,l),
(412,650,l),
(22,650,l)
);
},
{
closed = 1;
nodes = (
(262,110,l),
(172,110,l),
(172,540,l),
(262,540,l)
);
}
);
width = 434;
},
{
backgroundImage = {
crop = (2.604,0,41.864,80);
imagePath = "../png/0123456789.png";
locked = 1;
pos = (-5,-120);
scale = (10.3668,10.3668);
};
hints = (
{
name = _corner.ROUND;
origin = (0,0);
scale = (0.8,0.8);
type = Corner;
},
{
name = _corner.ROUND;
origin = (0,1);
scale = (0.8,0.8);
type = Corner;
},
{
name = _corner.ROUND;
origin = (0,2);
scale = (0.8,0.8);
type = Corner;
},
{
name = _corner.ROUND;
origin = (0,3);
scale = (0.8,0.8);
type = Corner;
},
{
name = _corner.ROUND;
origin = (1,0);
scale = (0.4,0.4);
type = Corner;
},
{
name = _corner.ROUND;
origin = (1,1);
scale = (0.4,0.4);
type = Corner;
},
{
name = _corner.ROUND;
options = 2;
origin = (1,2);
scale = (-0.4,0.4);
type = Corner;
},
{
name = _corner.ROUND;
options = 2;
origin = (1,3);
scale = (-0.4,0.4);
type = Corner;
}
);
layerId = m002;
shapes = (
{
closed = 1;
nodes = (
(44,0,l),
(434,0,l),
(434,650,l),
(44,650,l)
);
},
{
closed = 1;
nodes = (
(364,60,l),
(114,60,l),
(114,590,l),
(364,590,l)
);
}
);
width = 478;
}
);
metricLeft = "=O";
metricRight = "=O";
unicode = 48;
},
{
glyphname = one;
kernLeft = one;
kernRight = one;
lastChange = "2025-07-16 20:17:12 +0000";
layers = (
{
layerId = m01;
shapes = (
{
closed = 1;
nodes = (
(282,650,l),
(132,650,l),
(132,0,l),
(282,0,l)
);
},
{
closed = 1;
nodes = (
(84,446,l),
(210,572,l),
(132,650,l),
(6,524,l)
);
}
);
width = 313;
},
{
backgroundImage = {
crop = (45.047,0,30.192,80);
imagePath = "../png/0123456789.png";
locked = 1;
pos = (-542,-120);
scale = (10.3668,10.3668);
};
layerId = m002;
shapes = (
{
closed = 1;
nodes = (
(207,650,l),
(137,650,l),
(137,0,l),
(207,0,l)
);
},
{
closed = 1;
nodes = (
(54,481,l),
(180,607,l),
(137,650,l),
(11,524,l)
);
}
);
width = 270;
}
);
metricLeft = "=O*0.25";
metricRight = "=H*1.25";
unicode = 49;
},
{
glyphname = two;
kernLeft = two;
kernRight = two;
lastChange = "2025-07-07 15:20:58 +0000";
layers = (
{
hints = (
{
name = _corner.ROUND;
origin = (0,15);
scale = (0.3,0.3);
type = Corner;
},
{
name = _corner.ROUND;
options = 2;
origin = (0,14);
scale = (-0.3,0.3);
type = Corner;
},
{
name = _corner.ROUND;
origin = (0,11);
scale = (1.08,1.08);
type = Corner;
},
{
name = _corner.ROUND;
origin = (0,10);
type = Corner;
}
);
layerId = m01;
shapes = (
{
closed = 1;
nodes = (
(262,299,o),
(22,321,o),
(22,130,c),
(22,0,l),
(412,0,l),
(412,130,l),
(172,130,l),
(172,251,o),
(412,222,o),
(412,375,c),
(412,650,l),
(22,650,l),
(22,395,l),
(172,395,l),
(172,540,l),
(262,540,l),
(262,395,l)
);
}
);
width = 434;
},
{
backgroundImage = {
crop = (75.915,0,41.864,80);
imagePath = "../png/0123456789.png";
locked = 1;
pos = (-765,-120);
scale = (10.3668,10.3668);
};
hints = (
{
name = _corner.ROUND;
origin = (0,15);
scale = (0.5,0.5);
type = Corner;
},
{
name = _corner.ROUND;
options = 2;
origin = (0,14);
scale = (-0.5,0.5);
type = Corner;
},
{
name = _corner.ROUND;
origin = (0,11);
scale = (1.08,1.08);
type = Corner;
},
{
name = _corner.ROUND;
origin = (0,10);
type = Corner;
}
);
layerId = m002;
shapes = (
{
closed = 1;
nodes = (
(364,279,o),
(44,261,o),
(44,70,c),
(44,0,l),
(434,0,l),
(434,70,l),
(114,70,l),
(114,221,o),
(434,242,o),
(434,375,c),
(434,650,l),
(44,650,l),
(44,395,l),
(114,395,l),
(114,590,l),
(364,590,l),
(364,395,l)
);
}
);
width = 478;
}
);
metricLeft = "=O";
metricRight = "=O";
unicode = 50;
},
{
glyphname = three;
kernLeft = three;
kernRight = three;
lastChange = "2025-07-16 20:19:52 +0000";
layers = (
{
background = {
hints = (
{
name = _corner.ROUND;
type = Corner;
},
{
name = _corner.ROUND;
scale = (1.08,1.08);
type = Corner;
},
{
name = _segment.DOUBLECUT;
type = Segment;
},
{
name = _corner.ROUND;
type = Corner;
},
{
name = _corner.ROUND;
type = Corner;
},
{
name = _corner.ROUND;
scale = (0.3,0.3);
type = Corner;
},
{
name = _corner.ROUND;
options = 2;
scale = (-0.3,0.3);
type = Corner;
},
{
name = _corner.ROUND;
scale = (0.3,0.3);
type = Corner;
},
{
name = _corner.ROUND;
options = 2;
scale = (-0.3,0.3);
type = Corner;
},
{
name = _corner.ROUND;
scale = (0.3,0.3);
type = Corner;
},
{
name = _corner.ROUND;
scale = (0.3,0.3);
type = Corner;
},
{
name = _corner.ROUND;
type = Corner;
},
{
name = _corner.ROUND;
scale = (1.08,1.08);
type = Corner;
},
{
name = _segment.DOUBLECUT;
type = Segment;
},
{
name = _corner.ROUND;
type = Corner;
},
{
name = _corner.ROUND;
type = Corner;
},
{
name = _corner.ROUND;
scale = (0.3,0.3);
type = Corner;
},
{
name = _corner.ROUND;
options = 2;
scale = (-0.3,0.3);
type = Corner;
},
{
name = _corner.ROUND;
scale = (0.3,0.3);
type = Corner;
},
{
name = _corner.ROUND;
options = 2;
scale = (-0.3,0.3);
type = Corner;
},
{
name = _corner.ROUND;
scale = (0.3,0.3);
type = Corner;
},
{
name = _corner.ROUND;
scale = (0.3,0.3);
type = Corner;
},
{
name = _corner.ROUND;
type = Corner;
},
{
name = _corner.ROUND;
scale = (1.08,1.08);
type = Corner;
},
{
name = _segment.DOUBLECUT;
type = Segment;
},
{
name = _corner.ROUND;
type = Corner;
},
{
name = _corner.ROUND;
type = Corner;
},
{
name = _corner.ROUND;
scale = (0.3,0.3);
type = Corner;
},
{
name = _corner.ROUND;
options = 2;
scale = (-0.3,0.3);
type = Corner;
},
{
name = _corner.ROUND;
scale = (0.3,0.3);
type = Corner;
},
{
name = _corner.ROUND;
options = 2;
scale = (-0.3,0.3);
type = Corner;
},
{
name = _corner.ROUND;
scale = (0.3,0.3);
type = Corner;
},
{
name = _corner.ROUND;
scale = (0.3,0.3);
type = Corner;
},
{
name = _corner.ROUND;
origin = (0,1);
type = Corner;
},
{
name = _corner.ROUND;
origin = (0,2);
scale = (1.08,1.08);
type = Corner;
},
{
name = _segment.DOUBLECUT;
origin = (0,4);
type = Segment;
},
{
name = _corner.ROUND;
origin = (0,5);
type = Corner;
},
{
name = _corner.ROUND;
origin = (0,6);
type = Corner;
},
{
name = _corner.ROUND;
origin = (0,9);
scale = (0.3,0.3);
type = Corner;
},
{
name = _corner.ROUND;
options = 2;
origin = (0,10);
scale = (-0.3,0.3);
type = Corner;
},
{
name = _corner.ROUND;
origin = (0,11);
scale = (0.3,0.3);
type = Corner;
},
{
name = _corner.ROUND;
options = 2;
origin = (0,14);
scale = (-0.3,0.3);
type = Corner;
},
{
name = _corner.ROUND;
origin = (0,15);
scale = (0.3,0.3);
type = Corner;
},
{
name = _corner.ROUND;
origin = (0,16);
scale = (0.3,0.3);
type = Corner;
}
);
shapes = (
{
closed = 1;
nodes = (
(22,200,l),
(22,0,l),
(412,0,l),
(412,250,l),
(412,400,l),
(412,650,l),
(22,650,l),
(22,450,l),
(172,450,l),
(172,540,l),
(262,540,l),
(262,380,l),
(157,380,l),
(157,270,l),
(262,270,l),
(262,110,l),
(172,110,l),
(172,200,l)
);
}
);
};
hints = (
{
name = _corner.ROUND;
origin = (0,11);
scale = (0.3,0.3);
type = Corner;
},
{
name = _corner.ROUND;
options = 2;
origin = (0,10);
scale = (-0.3,0.3);
type = Corner;
},
{
name = _corner.ROUND;
origin = (0,2);
scale = (1.08,1.08);
type = Corner;
},
{
name = _corner.ROUND;
origin = (0,15);
scale = (0.3,0.3);
type = Corner;
},
{
name = _corner.ROUND;
options = 2;
origin = (0,14);
scale = (-0.3,0.3);
type = Corner;
},
{
name = _corner.ROUND;
origin = (0,6);
type = Corner;
},
{
name = _corner.ROUND;
origin = (0,1);
type = Corner;
},
{
name = _corner.ROUND;
origin = (0,9);
scale = (0.3,0.3);
type = Corner;
},
{
name = _corner.ROUND;
origin = (0,16);
scale = (0.3,0.3);
type = Corner;
},
{
name = _segment.DOUBLECUT;
origin = (0,4);
type = Segment;
},
{
name = _corner.ROUND;
origin = (0,5);
type = Corner;
}
);
layerId = m01;
shapes = (
{
closed = 1;
nodes = (
(22,200,l),
(22,0,l),
(412,0,l),
(412,250,l),
(412,400,l),
(412,650,l),
(22,650,l),
(22,450,l),
(172,450,l),
(172,540,l),
(262,540,l),
(262,380,l),
(157,380,l),
(157,270,l),
(262,270,l),
(262,110,l),
(172,110,l),
(172,200,l)
);
}
);
width = 434;
},
{
background = {
hints = (
{
name = _corner.ROUND;
origin = (0,1);
type = Corner;
},
{
name = _corner.ROUND;
origin = (0,2);
scale = (1.08,1.08);
type = Corner;
},
{
name = _segment.DOUBLECUT;
origin = (0,4);
scale = (0.8,0.8);
type = Segment;
},
{
name = _corner.ROUND;
origin = (0,5);
type = Corner;
},
{
name = _corner.ROUND;
origin = (0,6);
type = Corner;
},
{
name = _corner.ROUND;
origin = (0,9);
scale = (0.5,0.5);
type = Corner;
},
{
name = _corner.ROUND;
options = 2;
origin = (0,10);
scale = (-0.5,0.5);
type = Corner;
},
{
name = _corner.ROUND;
origin = (0,11);
scale = (0.3,0.3);
type = Corner;
},
{
name = _corner.ROUND;
options = 2;
origin = (0,14);
scale = (-0.3,0.3);
type = Corner;
},
{
name = _corner.ROUND;
origin = (0,15);
scale = (0.5,0.5);
type = Corner;
},
{
name = _corner.ROUND;
origin = (0,16);
scale = (0.5,0.5);
type = Corner;
}
);
shapes = (
{
closed = 1;
nodes = (
(44,200,l),
(44,0,l),
(434,0,l),
(434,250,l),
(434,400,l),
(434,650,l),
(44,650,l),
(44,450,l),
(114,450,l),
(114,590,l),
(364,590,l),
(364,355,l),
(179,355,l),
(179,295,l),
(364,295,l),
(364,60,l),
(114,60,l),
(114,200,l)
);
}
);
};
backgroundImage = {
crop = (118.358,0,41.864,80);
imagePath = "../png/0123456789.png";
locked = 1;
pos = (-1205,-120);
scale = (10.3668,10.3668);
};
hints = (
{
name = _corner.ROUND;
origin = (0,11);
scale = (0.3,0.3);
type = Corner;
},
{
name = _corner.ROUND;
options = 2;
origin = (0,10);
scale = (-0.5,0.5);
type = Corner;
},
{
name = _corner.ROUND;
origin = (0,2);
scale = (1.08,1.08);
type = Corner;
},
{
name = _corner.ROUND;
origin = (0,15);
scale = (0.5,0.5);
type = Corner;
},
{
name = _corner.ROUND;
options = 2;
origin = (0,14);
scale = (-0.3,0.3);
type = Corner;
},
{
name = _corner.ROUND;
origin = (0,6);
type = Corner;
},
{
name = _corner.ROUND;
origin = (0,1);
type = Corner;
},
{
name = _corner.ROUND;
origin = (0,9);
scale = (0.5,0.5);
type = Corner;
},
{
name = _corner.ROUND;
origin = (0,16);
scale = (0.5,0.5);
type = Corner;
},
{
name = _segment.DOUBLECUT;
origin = (0,4);
scale = (0.8,0.8);
type = Segment;
},
{
name = _corner.ROUND;
origin = (0,5);
type = Corner;
}
);
layerId = m002;
shapes = (
{
closed = 1;
nodes = (
(44,200,l),
(44,0,l),
(434,0,l),
(434,250,l),
(434,400,l),
(434,650,l),
(44,650,l),
(44,450,l),
(114,450,l),
(114,590,l),
(364,590,l),
(364,355,l),
(179,355,l),
(179,295,l),
(364,295,l),
(364,60,l),
(114,60,l),
(114,200,l)
);
}
);
width = 478;
}
);
metricLeft = "=O";
metricRight = "=O";
unicode = 51;
},
{
glyphname = four;
kernLeft = four;
kernRight = four;
lastChange = "2025-07-07 15:25:51 +0000";
layers = (
{
background = {
shapes = (
{
closed = 1;
nodes = (
(372,700,l),
(222,700,l),
(222,0,l),
(372,0,l)
);
},
{
closed = 1;
nodes = (
(22,163,l),
(412,163,l),
(412,273,l),
(22,273,l)
);
}
);
};
layerId = m01;
shapes = (
{
closed = 1;
nodes = (
(372,650,l),
(222,650,l),
(222,0,l),
(372,0,l)
);
},
{
closed = 1;
nodes = (
(22,162,l),
(412,162,l),
(412,272,l),
(143,272,l),
(322,604,l),
(222,650,l),
(22,272,l)
);
}
);
width = 434;
},
{
background = {
shapes = (
{
closed = 1;
nodes = (
(394,700,l),
(244,700,l),
(244,0,l),
(394,0,l)
);
},
{
closed = 1;
nodes = (
(44,163,l),
(434,163,l),
(434,273,l),
(44,273,l)
);
}
);
};
backgroundImage = {
crop = (159.837,0,41.864,80);
imagePath = "../png/0123456789.png";
locked = 1;
pos = (-1635,-120);
scale = (10.3668,10.3668);
};
layerId = m002;
shapes = (
{
closed = 1;
nodes = (
(394,650,l),
(324,650,l),
(324,0,l),
(394,0,l)
);
},
{
closed = 1;
nodes = (
(44,162,l),
(434,162,l),
(434,222,l),
(114,222,l),
(394,650,l),
(324,650,l),
(44,222,l)
);
}
);
width = 478;
}
);
metricLeft = "=O";
metricRight = "=O";
unicode = 52;
},
{
glyphname = five;
kernLeft = five;
kernRight = five;
lastChange = "2025-07-07 15:29:24 +0000";
layers = (
{
background = {
hints = (
{
name = _corner.ROUND;
type = Corner;
},
{
name = _corner.ROUND;
type = Corner;
},
{
name = _segment.CUT;
options = 1;
scale = (-1,1);
type = Segment;
},
{
name = _corner.ROUND;
type = Corner;
},
{
name = _corner.ROUND;
scale = (0.3,0.3);
type = Corner;
},
{
name = _corner.ROUND;
scale = (0.3,0.3);
type = Corner;
},
{
name = _corner.ROUND;
options = 2;
scale = (-0.3,0.3);
type = Corner;
},
{
name = _corner.ROUND;
options = 2;
scale = (-0.3,0.3);
type = Corner;
},
{
name = _corner.ROUND;
type = Corner;
},
{
name = _corner.ROUND;
type = Corner;
},
{
name = _segment.CUT;
options = 1;
scale = (-1,1);
type = Segment;
},
{
name = _corner.ROUND;
type = Corner;
},
{
name = _corner.ROUND;
scale = (0.3,0.3);
type = Corner;
},
{
name = _corner.ROUND;
scale = (0.3,0.3);
type = Corner;
},
{
name = _corner.ROUND;
options = 2;
scale = (-0.3,0.3);
type = Corner;
},
{
name = _corner.ROUND;
options = 2;
scale = (-0.3,0.3);
type = Corner;
},
{
name = _corner.ROUND;
type = Corner;
},
{
name = _corner.ROUND;
type = Corner;
},
{
name = _segment.CUT;
options = 1;
scale = (-1,1);
type = Segment;
},
{
name = _corner.ROUND;
type = Corner;
},
{
name = _corner.ROUND;
scale = (0.3,0.3);
type = Corner;
},
{
name = _corner.ROUND;
scale = (0.3,0.3);
type = Corner;
},
{
name = _corner.ROUND;
options = 2;
scale = (-0.3,0.3);
type = Corner;
},
{
name = _corner.ROUND;
options = 2;
scale = (-0.3,0.3);
type = Corner;
},
{
name = _corner.ROUND;
type = Corner;
},
{
name = _corner.ROUND;
type = Corner;
},
{
name = _corner.ROUND;
type = Corner;
},
{
name = _segment.CUT;
options = 1;
scale = (-1,1);
type = Segment;
},
{
name = _corner.ROUND;
scale = (0.3,0.3);
type = Corner;
},
{
name = _corner.ROUND;
scale = (0.3,0.3);
type = Corner;
},
{
name = _corner.ROUND;
options = 2;
scale = (-0.3,0.3);
type = Corner;
},
{
name = _corner.ROUND;
options = 2;
scale = (-0.3,0.3);
type = Corner;
},
{
name = _corner.ROUND;
origin = (1,1);
type = Corner;
},
{
name = _corner.ROUND;
origin = (1,2);
type = Corner;
},
{
name = _corner.ROUND;
origin = (1,3);
type = Corner;
},
{
name = _segment.CUT;
options = 1;
origin = (1,5);
scale = (-1,1);
type = Segment;
},
{
name = _corner.ROUND;
origin = (1,12);
scale = (0.3,0.3);
type = Corner;
},
{
name = _corner.ROUND;
origin = (1,13);
scale = (0.3,0.3);
type = Corner;
},
{
name = _corner.ROUND;
options = 2;
origin = (1,14);
scale = (-0.3,0.3);
type = Corner;
},
{
name = _corner.ROUND;
options = 2;
origin = (1,15);
scale = (-0.3,0.3);
type = Corner;
}
);
shapes = (
{
closed = 0;
nodes = (
(22,200,l),
(172,200,l)
);
},
{
closed = 1;
nodes = (
(22,200,l),
(22,0,l),
(412,0,l),
(412,520,l),
(262,520,l),
(172,520,l),
(172,590,l),
(387,590,l),
(387,700,l),
(22,700,l),
(22,368,l),
(172,368,l),
(172,410,l),
(262,410,l),
(262,110,l),
(172,110,l),
(172,200,l)
);
}
);
};
hints = (
{
name = _corner.ROUND;
origin = (0,1);
type = Corner;
},
{
name = _corner.ROUND;
origin = (0,2);
type = Corner;
},
{
name = _corner.ROUND;
origin = (0,3);
type = Corner;
},
{
name = _segment.CUT;
options = 1;
origin = (0,5);
scale = (-1,1);
type = Segment;
},
{
name = _corner.ROUND;
origin = (0,12);
scale = (0.3,0.3);
type = Corner;
},
{
name = _corner.ROUND;
origin = (0,13);
scale = (0.3,0.3);
type = Corner;
},
{
name = _corner.ROUND;
options = 2;
origin = (0,14);
scale = (-0.3,0.3);
type = Corner;
},
{
name = _corner.ROUND;
options = 2;
origin = (0,15);
scale = (-0.3,0.3);
type = Corner;
}
);
layerId = m01;
shapes = (
{
closed = 1;
nodes = (
(22,200,l),
(22,0,l),
(412,0,l),
(412,460,l),
(262,460,l),
(172,460,l),
(172,540,l),
(387,540,l),
(387,650,l),
(22,650,l),
(22,308,l),
(172,308,l),
(172,350,l),
(262,350,l),
(262,110,l),
(172,110,l),
(172,200,l)
);
}
);
width = 434;
},
{
backgroundImage = {
crop = (203.244,0,41.864,80);
imagePath = "../png/0123456789.png";
locked = 1;
pos = (-2085,-120);
scale = (10.3668,10.3668);
};
hints = (
{
name = _corner.ROUND;
origin = (0,1);
type = Corner;
},
{
name = _corner.ROUND;
origin = (0,2);
type = Corner;
},
{
name = _corner.ROUND;
origin = (0,3);
type = Corner;
},
{
name = _segment.CUT;
options = 1;
origin = (0,5);
scale = (-1,1);
type = Segment;
},
{
name = _corner.ROUND;
origin = (0,12);
scale = (0.8,0.5);
type = Corner;
},
{
name = _corner.ROUND;
origin = (0,13);
scale = (0.5,0.5);
type = Corner;
},
{
name = _corner.ROUND;
options = 2;
origin = (0,14);
scale = (-0.5,0.5);
type = Corner;
},
{
name = _corner.ROUND;
options = 2;
origin = (0,15);
scale = (-0.5,0.5);
type = Corner;
}
);
layerId = m002;
shapes = (
{
closed = 1;
nodes = (
(44,200,l),
(44,0,l),
(434,0,l),
(434,460,l),
(284,460,l),
(114,460,l),
(114,590,l),
(409,590,l),
(409,650,l),
(44,650,l),
(44,308,l),
(114,308,l),
(114,400,l),
(364,400,l),
(364,60,l),
(114,60,l),
(114,200,l)
);
}
);
width = 478;
}
);
metricLeft = "=O";
metricRight = "=O";
unicode = 53;
},
{
glyphname = six;
kernLeft = six;
kernRight = six;
lastChange = "2025-07-07 15:31:11 +0000";
layers = (
{
background = {
hints = (
{
name = _corner.ROUND;
type = Corner;
},
{
name = _corner.ROUND;
type = Corner;
},
{
name = _segment.CUT;
options = 1;
scale = (-1,1);
type = Segment;
},
{
name = _corner.ROUND;
type = Corner;
},
{
name = _corner.ROUND;
scale = (0.3,0.3);
type = Corner;
},
{
name = _corner.ROUND;
scale = (0.3,0.3);
type = Corner;
},
{
name = _corner.ROUND;
options = 2;
scale = (-0.3,0.3);
type = Corner;
},
{
name = _corner.ROUND;
options = 2;
scale = (-0.3,0.3);
type = Corner;
},
{
name = _corner.ROUND;
scale = (0.3,0.3);
type = Corner;
},
{
name = _corner.ROUND;
scale = (0.3,0.3);
type = Corner;
},
{
name = _segment.CUT;
scale = (-1,-1);
type = Segment;
},
{
name = _corner.ROUND;
type = Corner;
},
{
name = _corner.ROUND;
type = Corner;
},
{
name = _corner.ROUND;
type = Corner;
},
{
name = _corner.ROUND;
type = Corner;
},
{
name = _corner.ROUND;
type = Corner;
},
{
name = _corner.ROUND;
options = 2;
scale = (-0.3,0.3);
type = Corner;
},
{
name = _corner.ROUND;
scale = (0.3,0.3);
type = Corner;
},
{
name = _corner.ROUND;
scale = (0.3,0.3);
type = Corner;
},
{
name = _corner.ROUND;
options = 2;
scale = (-0.3,0.3);
type = Corner;
},
{
name = _corner.ROUND;
scale = (0.3,0.3);
type = Corner;
},
{
name = _corner.ROUND;
scale = (0.3,0.3);
type = Corner;
},
{
name = _segment.CUT;
scale = (-1,-1);
type = Segment;
},
{
name = _corner.ROUND;
type = Corner;
},
{
name = _corner.ROUND;
type = Corner;
},
{
name = _corner.ROUND;
type = Corner;
},
{
name = _corner.ROUND;
type = Corner;
},
{
name = _corner.ROUND;
type = Corner;
},
{
name = _corner.ROUND;
options = 2;
scale = (-0.3,0.3);
type = Corner;
},
{
name = _corner.ROUND;
scale = (0.3,0.3);
type = Corner;
},
{
name = _corner.ROUND;
scale = (0.3,0.3);
type = Corner;
},
{
name = _corner.ROUND;
options = 2;
scale = (-0.3,0.3);
type = Corner;
},
{
name = _corner.ROUND;
scale = (0.3,0.3);
type = Corner;
},
{
name = _corner.ROUND;
scale = (0.3,0.3);
type = Corner;
},
{
name = _segment.CUT;
scale = (-1,-1);
type = Segment;
},
{
name = _corner.ROUND;
type = Corner;
},
{
name = _corner.ROUND;
type = Corner;
},
{
name = _corner.ROUND;
type = Corner;
},
{
name = _corner.ROUND;
type = Corner;
},
{
name = _corner.ROUND;
type = Corner;
},
{
name = _corner.ROUND;
options = 2;
scale = (-0.3,0.3);
type = Corner;
},
{
name = _corner.ROUND;
scale = (0.3,0.3);
type = Corner;
},
{
name = _corner.ROUND;
scale = (0.3,0.3);
type = Corner;
},
{
name = _corner.ROUND;
options = 2;
scale = (-0.3,0.3);
type = Corner;
},
{
name = _corner.ROUND;
origin = (0,0);
scale = (0.3,0.3);
type = Corner;
},
{
name = _corner.ROUND;
origin = (0,1);
scale = (0.3,0.3);
type = Corner;
},
{
name = _segment.CUT;
origin = (0,3);
scale = (-1,-1);
type = Segment;
},
{
name = _corner.ROUND;
origin = (0,4);
type = Corner;
},
{
name = _corner.ROUND;
origin = (0,5);
type = Corner;
},
{
name = _corner.ROUND;
origin = (0,6);
type = Corner;
},
{
name = _corner.ROUND;
origin = (0,7);
type = Corner;
},
{
name = _corner.ROUND;
origin = (0,8);
type = Corner;
},
{
name = _corner.ROUND;
options = 2;
origin = (1,0);
scale = (-0.3,0.3);
type = Corner;
},
{
name = _corner.ROUND;
origin = (1,1);
scale = (0.3,0.3);
type = Corner;
},
{
name = _corner.ROUND;
origin = (1,2);
scale = (0.3,0.3);
type = Corner;
},
{
name = _corner.ROUND;
options = 2;
origin = (1,3);
scale = (-0.3,0.3);
type = Corner;
}
);
shapes = (
{
closed = 1;
nodes = (
(262,540,l),
(172,540,l),
(172,455,l),
(262,455,l),
(412,455,l),
(412,0,l),
(22,0,l),
(22,650,l),
(412,650,l),
(412,496,l),
(262,496,l)
);
},
{
closed = 1;
nodes = (
(262,110,l),
(262,345,l),
(172,345,l),
(172,110,l)
);
}
);
};
hints = (
{
name = _corner.ROUND;
origin = (0,5);
type = Corner;
},
{
name = _corner.ROUND;
origin = (0,4);
type = Corner;
},
{
name = _corner.ROUND;
origin = (0,6);
type = Corner;
},
{
name = _corner.ROUND;
origin = (1,2);
scale = (0.3,0.3);
type = Corner;
},
{
name = _corner.ROUND;
origin = (1,1);
scale = (0.3,0.3);
type = Corner;
},
{
name = _corner.ROUND;
options = 2;
origin = (1,0);
scale = (-0.3,0.3);
type = Corner;
},
{
name = _corner.ROUND;
options = 2;
origin = (1,3);
scale = (-0.3,0.3);
type = Corner;
},
{
name = _corner.ROUND;
origin = (0,7);
type = Corner;
},
{
name = _corner.ROUND;
origin = (0,8);
type = Corner;
},
{
name = _corner.ROUND;
origin = (0,0);
scale = (0.3,0.3);
type = Corner;
},
{
name = _corner.ROUND;
origin = (0,1);
scale = (0.3,0.3);
type = Corner;
},
{
name = _segment.CUT;
origin = (0,3);
scale = (-1,-1);
type = Segment;
}
);
layerId = m01;
shapes = (
{
closed = 1;
nodes = (
(262,540,l),
(172,540,l),
(172,455,l),
(262,455,l),
(412,455,l),
(412,0,l),
(22,0,l),
(22,650,l),
(412,650,l),
(412,496,l),
(262,496,l)
);
},
{
closed = 1;
nodes = (
(262,110,l),
(262,345,l),
(172,345,l),
(172,110,l)
);
}
);
width = 434;
},
{
backgroundImage = {
crop = (245.687,0,41.864,80);
imagePath = "../png/0123456789.png";
locked = 1;
pos = (-2525,-120);
scale = (10.3668,10.3668);
};
hints = (
{
name = _corner.ROUND;
origin = (0,5);
type = Corner;
},
{
name = _corner.ROUND;
origin = (0,4);
type = Corner;
},
{
name = _corner.ROUND;
origin = (0,6);
type = Corner;
},
{
name = _corner.ROUND;
origin = (1,2);
scale = (0.5,0.8);
type = Corner;
},
{
name = _corner.ROUND;
origin = (1,1);
scale = (0.5,0.5);
type = Corner;
},
{
name = _corner.ROUND;
options = 2;
origin = (1,0);
scale = (-0.5,0.5);
type = Corner;
},
{
name = _corner.ROUND;
options = 2;
origin = (1,3);
scale = (-0.5,0.5);
type = Corner;
},
{
name = _corner.ROUND;
origin = (0,7);
type = Corner;
},
{
name = _corner.ROUND;
origin = (0,8);
type = Corner;
},
{
name = _corner.ROUND;
origin = (0,0);
scale = (0.5,0.5);
type = Corner;
},
{
name = _corner.ROUND;
origin = (0,1);
scale = (0.5,0.5);
type = Corner;
},
{
name = _segment.CUT;
origin = (0,3);
scale = (-1,-1);
type = Segment;
}
);
layerId = m002;
shapes = (
{
closed = 1;
nodes = (
(364,590,l),
(114,590,l),
(114,455,l),
(284,455,l),
(434,455,l),
(434,0,l),
(44,0,l),
(44,650,l),
(434,650,l),
(434,496,l),
(364,496,l)
);
},
{
closed = 1;
nodes = (
(364,60,l),
(364,395,l),
(114,395,l),
(114,60,l)
);
}
);
width = 478;
}
);
metricLeft = "=O";
metricRight = "=O";
unicode = 54;
},
{
glyphname = seven;
kernLeft = seven;
kernRight = seven;
lastChange = "2025-07-07 15:32:08 +0000";
layers = (
{
layerId = m01;
shapes = (
{
closed = 1;
nodes = (
(377,540,l),
(377,650,l),
(17,650,l),
(17,540,l),
(227,540,l),
(67,0,l),
(217,0,l)
);
}
);
width = 394;
},
{
backgroundImage = {
crop = (290.06,0,38.006,80);
imagePath = "../png/0123456789.png";
locked = 1;
pos = (-2991,-120);
scale = (10.3668,10.3668);
};
layerId = m002;
shapes = (
{
closed = 1;
nodes = (
(393,590,l),
(393,650,l),
(33,650,l),
(33,590,l),
(323,590,l),
(163,0,l),
(233,0,l)
);
}
);
width = 426;
}
);
metricLeft = "=O*.75";
metricRight = "=O*.75";
unicode = 55;
},
{
glyphname = eight;
kernLeft = eight;
kernRight = eight;
lastChange = "2025-07-07 15:34:34 +0000";
layers = (
{
hints = (
{
name = _corner.ROUND;
origin = (0,7);
type = Corner;
},
{
name = _corner.ROUND;
origin = (0,0);
type = Corner;
},
{
name = _segment.DOUBLECUT;
origin = (0,2);
type = Segment;
},
{
name = _corner.ROUND;
origin = (2,0);
scale = (0.3,0.3);
type = Corner;
},
{
name = _corner.ROUND;
options = 2;
origin = (2,1);
scale = (-0.3,0.3);
type = Corner;
},
{
name = _corner.ROUND;
origin = (2,2);
scale = (0.3,0.3);
type = Corner;
},
{
name = _corner.ROUND;
options = 2;
origin = (1,1);
scale = (-0.3,0.3);
type = Corner;
},
{
name = _corner.ROUND;
origin = (1,2);
scale = (0.3,0.3);
type = Corner;
},
{
name = _corner.ROUND;
origin = (1,3);
scale = (0.3,0.3);
type = Corner;
},
{
name = _corner.ROUND;
origin = (2,0);
scale = (0.3,0.3);
type = Corner;
},
{
name = _corner.ROUND;
origin = (2,3);
scale = (0.3,0.3);
type = Corner;
},
{
name = _corner.ROUND;
origin = (1,0);
scale = (0.3,0.3);
type = Corner;
},
{
name = _segment.DOUBLECUT;
origin = (0,6);
type = Segment;
},
{
name = _corner.ROUND;
origin = (0,4);
type = Corner;
},
{
name = _corner.ROUND;
origin = (0,3);
type = Corner;
}
);
layerId = m01;
shapes = (
{
closed = 1;
nodes = (
(412,0,l),
(412,230,l),
(412,420,l),
(412,650,l),
(22,650,l),
(22,420,l),
(22,230,l),
(22,0,l)
);
},
{
closed = 1;
nodes = (
(172,270,l),
(262,270,l),
(262,110,l),
(172,110,l)
);
},
{
closed = 1;
nodes = (
(172,540,l),
(262,540,l),
(262,380,l),
(172,380,l)
);
}
);
width = 434;
},
{
backgroundImage = {
crop = (326.715,0,41.864,80);
imagePath = "../png/0123456789.png";
locked = 1;
pos = (-3365,-120);
scale = (10.3668,10.3668);
};
hints = (
{
name = _corner.ROUND;
origin = (0,7);
type = Corner;
},
{
name = _corner.ROUND;
origin = (0,0);
type = Corner;
},
{
name = _segment.DOUBLECUT;
origin = (0,2);
scale = (0.8,0.8);
type = Segment;
},
{
name = _corner.ROUND;
origin = (2,0);
scale = (0.5,0.5);
type = Corner;
},
{
name = _corner.ROUND;
options = 2;
origin = (2,1);
scale = (-0.5,0.5);
type = Corner;
},
{
name = _corner.ROUND;
origin = (2,2);
scale = (0.5,0.5);
type = Corner;
},
{
name = _corner.ROUND;
options = 2;
origin = (1,1);
scale = (-0.5,0.5);
type = Corner;
},
{
name = _corner.ROUND;
origin = (1,2);
scale = (0.5,0.5);
type = Corner;
},
{
name = _corner.ROUND;
origin = (1,3);
scale = (0.5,0.5);
type = Corner;
},
{
name = _corner.ROUND;
origin = (2,0);
scale = (0.3,0.3);
type = Corner;
},
{
name = _corner.ROUND;
origin = (2,3);
scale = (0.5,0.5);
type = Corner;
},
{
name = _corner.ROUND;
origin = (1,0);
scale = (0.5,0.5);
type = Corner;
},
{
name = _segment.DOUBLECUT;
origin = (0,6);
scale = (0.8,0.8);
type = Segment;
},
{
name = _corner.ROUND;
origin = (0,4);
type = Corner;
},
{
name = _corner.ROUND;
origin = (0,3);
type = Corner;
}
);
layerId = m002;
shapes = (
{
closed = 1;
nodes = (
(434,0,l),
(434,230,l),
(434,420,l),
(434,650,l),
(44,650,l),
(44,420,l),
(44,230,l),
(44,0,l)
);
},
{
closed = 1;
nodes = (
(114,295,l),
(364,295,l),
(364,60,l),
(114,60,l)
);
},
{
closed = 1;
nodes = (
(114,590,l),
(364,590,l),
(364,355,l),
(114,355,l)
);
}
);
width = 478;
}
);
metricLeft = "=O";
metricRight = "=O";
unicode = 56;
},
{
glyphname = nine;
kernLeft = nine;
kernRight = nine;
lastChange = "2025-07-07 15:38:12 +0000";
layers = (
{
hints = (
{
name = _corner.ROUND;
origin = (0,0);
scale = (0.3,0.3);
type = Corner;
},
{
name = _corner.ROUND;
origin = (0,1);
scale = (0.3,0.3);
type = Corner;
},
{
name = _segment.CUT;
origin = (0,3);
scale = (-1,-1);
type = Segment;
},
{
name = _corner.ROUND;
origin = (0,4);
type = Corner;
},
{
name = _corner.ROUND;
origin = (0,5);
type = Corner;
},
{
name = _corner.ROUND;
origin = (0,6);
type = Corner;
},
{
name = _corner.ROUND;
origin = (0,7);
type = Corner;
},
{
name = _corner.ROUND;
origin = (0,8);
type = Corner;
},
{
name = _corner.ROUND;
options = 2;
origin = (1,0);
scale = (-0.3,0.3);
type = Corner;
},
{
name = _corner.ROUND;
origin = (1,1);
scale = (0.3,0.3);
type = Corner;
},
{
name = _corner.ROUND;
origin = (1,2);
scale = (0.3,0.3);
type = Corner;
},
{
name = _corner.ROUND;
options = 2;
origin = (1,3);
scale = (-0.3,0.3);
type = Corner;
}
);
layerId = m01;
shapes = (
{
closed = 1;
nodes = (
(172,110,l),
(262,110,l),
(262,195,l),
(162,195,l),
(22,195,l),
(22,650,l),
(412,650,l),
(412,0,l),
(22,0,l),
(22,154,l),
(172,154,l)
);
},
{
closed = 1;
nodes = (
(172,540,l),
(172,305,l),
(262,305,l),
(262,540,l)
);
}
);
width = 434;
},
{
backgroundImage = {
crop = (369.158,0,39.842,80);
imagePath = "../png/0123456789.png";
locked = 1;
pos = (-3805,-120);
scale = (10.3668,10.3668);
};
hints = (
{
name = _corner.ROUND;
origin = (0,0);
scale = (0.5,0.5);
type = Corner;
},
{
name = _corner.ROUND;
origin = (0,1);
scale = (0.5,0.5);
type = Corner;
},
{
name = _segment.CUT;
origin = (0,3);
scale = (-1,-1);
type = Segment;
},
{
name = _corner.ROUND;
origin = (0,4);
type = Corner;
},
{
name = _corner.ROUND;
origin = (0,5);
type = Corner;
},
{
name = _corner.ROUND;
origin = (0,6);
type = Corner;
},
{
name = _corner.ROUND;
origin = (0,7);
type = Corner;
},
{
name = _corner.ROUND;
origin = (0,8);
type = Corner;
},
{
name = _corner.ROUND;
options = 2;
origin = (1,0);
scale = (-0.5,0.5);
type = Corner;
},
{
name = _corner.ROUND;
origin = (1,1);
scale = (0.5,0.5);
type = Corner;
},
{
name = _corner.ROUND;
origin = (1,2);
scale = (0.5,0.8);
type = Corner;
},
{
name = _corner.ROUND;
options = 2;
origin = (1,3);
scale = (-0.5,0.5);
type = Corner;
}
);
layerId = m002;
shapes = (
{
closed = 1;
nodes = (
(114,60,l),
(364,60,l),
(364,195,l),
(184,195,l),
(44,195,l),
(44,650,l),
(434,650,l),
(434,0,l),
(44,0,l),
(44,154,l),
(114,154,l)
);
},
{
closed = 1;
nodes = (
(114,590,l),
(114,255,l),
(364,255,l),
(364,590,l)
);
}
);
width = 478;
}
);
metricLeft = "=O";
metricRight = "=O";
unicode = 57;
},
{
glyphname = .notdef;
lastChange = "2025-07-07 15:41:49 +0000";
layers = (
{
hints = (
{
name = _corner.ROUND;
origin = (0,0);
scale = (0.3,0.3);
type = Corner;
},
{
name = _corner.ROUND;
origin = (0,1);
scale = (0.3,0.3);
type = Corner;
},
{
name = _corner.ROUND;
origin = (0,2);
scale = (0.3,0.3);
type = Corner;
},
{
name = _corner.ROUND;
origin = (0,3);
scale = (0.3,0.3);
type = Corner;
}
);
layerId = m01;
shapes = (
{
closed = 1;
nodes = (
(25,225,l),
(325,225,l),
(325,525,l),
(25,525,l)
);
}
);
width = 350;
},
{
hints = (
{
name = _corner.ROUND;
origin = (0,0);
scale = (0.3,0.3);
type = Corner;
},
{
name = _corner.ROUND;
origin = (0,1);
scale = (0.3,0.3);
type = Corner;
},
{
name = _corner.ROUND;
origin = (0,2);
scale = (0.3,0.3);
type = Corner;
},
{
name = _corner.ROUND;
origin = (0,3);
scale = (0.3,0.3);
type = Corner;
}
);
layerId = m002;
shapes = (
{
closed = 1;
nodes = (
(50,275,l),
(250,275,l),
(250,475,l),
(50,475,l)
);
}
);
width = 300;
}
);
metricLeft = "=H";
metricRight = "=H";
},
{
glyphname = period;
kernLeft = period;
kernRight = period;
lastChange = "2025-07-07 17:25:45 +0000";
layers = (
{
layerId = m01;
shapes = (
{
closed = 1;
nodes = (
(181,150,l),
(31,150,l),
(31,0,l),
(181,0,l)
);
}
);
width = 212;
},
{
layerId = m002;
shapes = (
{
closed = 1;
nodes = (
(133,80,l),
(63,80,l),
(63,0,l),
(133,0,l)
);
}
);
width = 196;
}
);
metricLeft = "=h*1.25";
metricRight = "=h*1.25";
unicode = 46;
},
{
glyphname = comma;
kernLeft = period;
kernRight = period;
lastChange = "2025-07-16 20:20:37 +0000";
layers = (
{
background = {
hints = (
{
name = _corner.ROUND;
origin = (0,1);
scale = (0.3,0.3);
type = Corner;
},
{
name = _corner.ROUND;
origin = (0,4);
type = Corner;
}
);
shapes = (
{
closed = 1;
nodes = (
(31,50,l),
(31,-40,l),
(-39,-40,l),
(-39,-150,l),
(141,-150,l),
(141,50,l)
);
},
{
closed = 1;
nodes = (
(141,110,l),
(31,110,l),
(31,0,l),
(141,0,l)
);
}
);
};
hints = (
{
name = _corner.ROUND;
origin = (0,3);
scale = (0.3,0.3);
type = Corner;
},
{
name = _corner.ROUND;
origin = (0,6);
scale = (0.7,0.7);
type = Corner;
}
);
layerId = m01;
shapes = (
{
closed = 1;
nodes = (
(31,150,l),
(31,0,l),
(110,0,l),
(110,-55,l),
(51,-55,l),
(51,-110,l),
(181,-110,l),
(181,150,l)
);
}
);
width = 212;
},
{
hints = (
{
name = _corner.ROUND;
origin = (0,3);
scale = (0.2,0.2);
type = Corner;
},
{
name = _corner.ROUND;
origin = (0,6);
scale = (0.5,0.5);
type = Corner;
}
);
layerId = m002;
shapes = (
{
closed = 1;
nodes = (
(73,80,l),
(73,0,l),
(103,0,l),
(103,-45,l),
(63,-45,l),
(63,-80,l),
(143,-80,l),
(143,80,l)
);
}
);
width = 206;
}
);
metricLeft = "=h*1.25";
metricRight = "=h*1.25";
unicode = 44;
},
{
glyphname = exclam;
kernLeft = exclam;
kernRight = exclam;
lastChange = "2025-07-07 15:56:27 +0000";
layers = (
{
layerId = m01;
shapes = (
{
closed = 1;
nodes = (
(36,650,l),
(36,200,l),
(176,200,l),
(176,650,l)
);
},
{
ref = period;
}
);
width = 212;
},
{
layerId = m002;
shapes = (
{
closed = 1;
nodes = (
(63,650,l),
(63,200,l),
(133,200,l),
(133,650,l)
);
},
{
ref = period;
}
);
width = 196;
}
);
metricLeft = "=h*1.25";
metricRight = "=h*1.25";
unicode = 33;
},
{
glyphname = question;
kernLeft = question;
kernRight = question;
lastChange = "2025-07-07 16:00:42 +0000";
layers = (
{
guides = (
{
angle = 90;
pos = (217,75);
}
);
hints = (
{
name = _corner.ROUND;
origin = (0,7);
type = Corner;
},
{
name = _corner.ROUND;
origin = (0,8);
scale = (1.08,1.08);
type = Corner;
},
{
name = _corner.ROUND;
options = 2;
origin = (0,11);
scale = (-0.3,0.3);
type = Corner;
},
{
name = _corner.ROUND;
origin = (0,12);
scale = (0.3,0.3);
type = Corner;
}
);
layerId = m01;
shapes = (
{
closed = 1;
nodes = (
(262,329,o),
(147,391,o),
(147,200,c),
(287,200,l),
(287,351,o),
(412,289,o),
(412,455,c),
(412,650,l),
(22,650,l),
(22,455,l),
(172,455,l),
(172,540,l),
(262,540,l),
(262,455,l)
);
},
{
closed = 1;
nodes = (
(292,150,l),
(142,150,l),
(142,0,l),
(292,0,l)
);
}
);
width = 434;
},
{
guides = (
{
angle = 90;
pos = (239,75);
}
);
hints = (
{
name = _corner.ROUND;
origin = (0,7);
type = Corner;
},
{
name = _corner.ROUND;
origin = (0,8);
scale = (1.08,1.08);
type = Corner;
},
{
name = _corner.ROUND;
options = 2;
origin = (0,11);
scale = (-0.5,0.5);
type = Corner;
},
{
name = _corner.ROUND;
origin = (0,12);
scale = (0.5,0.5);
type = Corner;
}
);
layerId = m002;
shapes = (
{
closed = 1;
nodes = (
(364,329,o),
(209,391,o),
(209,200,c),
(269,200,l),
(269,351,o),
(434,289,o),
(434,455,c),
(434,650,l),
(44,650,l),
(44,455,l),
(114,455,l),
(114,590,l),
(364,590,l),
(364,455,l)
);
},
{
closed = 1;
nodes = (
(274,70,l),
(204,70,l),
(204,0,l),
(274,0,l)
);
}
);
width = 478;
}
);
metricLeft = "=O";
metricRight = "=O";
unicode = 63;
},
{
glyphname = bullet;
kernLeft = bullet;
kernRight = bullet;
lastChange = "2025-07-07 16:16:41 +0000";
layers = (
{
hints = (
{
name = _corner.ROUND;
origin = (0,3);
scale = (0.3,0.3);
type = Corner;
},
{
name = _corner.ROUND;
origin = (0,0);
scale = (0.3,0.3);
type = Corner;
},
{
name = _corner.ROUND;
origin = (0,1);
scale = (0.3,0.3);
type = Corner;
},
{
name = _corner.ROUND;
origin = (0,2);
scale = (0.3,0.3);
type = Corner;
}
);
layerId = m01;
shapes = (
{
closed = 1;
nodes = (
(25,175,l),
(175,175,l),
(175,325,l),
(25,325,l)
);
}
);
width = 200;
},
{
hints = (
{
name = _corner.ROUND;
origin = (0,3);
scale = (0.2,0.2);
type = Corner;
},
{
name = _corner.ROUND;
origin = (0,0);
scale = (0.2,0.2);
type = Corner;
},
{
name = _corner.ROUND;
origin = (0,1);
scale = (0.2,0.2);
type = Corner;
},
{
name = _corner.ROUND;
origin = (0,2);
scale = (0.2,0.2);
type = Corner;
}
);
layerId = m002;
shapes = (
{
closed = 1;
nodes = (
(50,255,l),
(120,255,l),
(120,325,l),
(50,325,l)
);
}
);
width = 170;
}
);
metricLeft = "=h";
metricRight = "=h";
unicode = 8226;
},
{
glyphname = asterisk;
kernLeft = asterisk;
kernRight = asterisk;
lastChange = "2025-07-16 20:23:50 +0000";
layers = (
{
layerId = m01;
shapes = (
{
closed = 1;
nodes = (
(163,650,l),
(163,285,l),
(243,285,l),
(243,650,l)
);
},
{
closed = 1;
nodes = (
(341,593,l),
(25,411,l),
(65,342,l),
(381,524,l)
);
},
{
closed = 1;
nodes = (
(25,524,l),
(341,342,l),
(381,411,l),
(65,593,l)
);
}
);
width = 406;
},
{
layerId = m002;
shapes = (
{
closed = 1;
nodes = (
(193,650,l),
(193,285,l),
(253,285,l),
(253,650,l)
);
},
{
closed = 1;
nodes = (
(50,402,l),
(80,350,l),
(396,533,l),
(366,585,l)
);
},
{
closed = 1;
nodes = (
(396,402,l),
(80,585,l),
(50,533,l),
(366,350,l)
);
}
);
width = 446;
}
);
metricLeft = "=h";
metricRight = "=h";
unicode = 42;
},
{
glyphname = numbersign;
kernLeft = numbersign;
kernRight = numbersign;
lastChange = "2025-07-07 16:32:01 +0000";
layers = (
{
layerId = m01;
shapes = (
{
closed = 1;
nodes = (
(285,650,l),
(115,0,l),
(225,0,l),
(395,650,l)
);
},
{
closed = 1;
nodes = (
(485,650,l),
(309,0,l),
(419,0,l),
(595,650,l)
);
},
{
closed = 1;
nodes = (
(665,480,l),
(105,480,l),
(75,370,l),
(635,370,l)
);
},
{
closed = 1;
nodes = (
(615,280,l),
(55,280,l),
(25,170,l),
(585,170,l)
);
}
);
width = 690;
},
{
layerId = m002;
shapes = (
{
closed = 1;
nodes = (
(310,650,l),
(140,0,l),
(200,0,l),
(370,650,l)
);
},
{
closed = 1;
nodes = (
(560,650,l),
(384,0,l),
(444,0,l),
(620,650,l)
);
},
{
closed = 1;
nodes = (
(690,480,l),
(130,480,l),
(110,420,l),
(670,420,l)
);
},
{
closed = 1;
nodes = (
(630,230,l),
(70,230,l),
(50,170,l),
(610,170,l)
);
}
);
width = 740;
}
);
metricLeft = "=H";
metricRight = "=H";
unicode = 35;
},
{
glyphname = slash;
kernLeft = slash;
kernRight = slash;
lastChange = "2025-07-16 20:24:12 +0000";
layers = (
{
layerId = m01;
shapes = (
{
closed = 1;
nodes = (
(122,-27,l),
(322,670,l),
(222,670,l),
(22,-27,l)
);
}
);
width = 344;
},
{
layerId = m002;
shapes = (
{
closed = 1;
nodes = (
(114,-27,l),
(314,670,l),
(244,670,l),
(44,-27,l)
);
}
);
width = 358;
}
);
metricLeft = "=o";
metricRight = "=o";
unicode = 47;
},
{
glyphname = hyphen;
kernLeft = hyphen;
kernRight = hyphen;
lastChange = "2025-07-07 17:44:46 +0000";
layers = (
{
layerId = m01;
shapes = (
{
closed = 1;
nodes = (
(331,300,l),
(31,300,l),
(31,200,l),
(331,200,l)
);
}
);
width = 362;
},
{
layerId = m002;
shapes = (
{
closed = 1;
nodes = (
(333,280,l),
(63,280,l),
(63,220,l),
(333,220,l)
);
}
);
width = 396;
}
);
metricLeft = "=h*1.25";
metricRight = "=h*1.25";
unicode = 45;
},
{
glyphname = endash;
kernLeft = hyphen;
kernRight = hyphen;
lastChange = "2025-07-07 17:49:01 +0000";
layers = (
{
layerId = m01;
shapes = (
{
closed = 1;
nodes = (
(486,300,l),
(31,300,l),
(31,200,l),
(486,200,l)
);
}
);
width = 517;
},
{
layerId = m002;
shapes = (
{
closed = 1;
nodes = (
(502,280,l),
(62,280,l),
(62,220,l),
(502,220,l)
);
}
);
width = 565;
}
);
metricLeft = "=h*1.25";
metricRight = "=h*1.25";
unicode = 8211;
},
{
glyphname = emdash;
kernLeft = hyphen;
kernRight = hyphen;
lastChange = "2025-07-07 17:50:05 +0000";
layers = (
{
layerId = m01;
shapes = (
{
closed = 1;
nodes = (
(611,300,l),
(31,300,l),
(31,200,l),
(611,200,l)
);
}
);
width = 642;
},
{
layerId = m002;
shapes = (
{
closed = 1;
nodes = (
(612,280,l),
(62,280,l),
(62,220,l),
(612,220,l)
);
}
);
width = 675;
}
);
metricLeft = "=h*1.25";
metricRight = "=h*1.25";
unicode = 8212;
},
{
glyphname = underscore;
kernLeft = underscore;
kernRight = underscore;
lastChange = "2025-07-07 17:49:14 +0000";
layers = (
{
layerId = m01;
shapes = (
{
closed = 1;
nodes = (
(486,-40,l),
(31,-40,l),
(31,-140,l),
(486,-140,l)
);
}
);
width = 517;
},
{
layerId = m002;
shapes = (
{
closed = 1;
nodes = (
(503,-60,l),
(63,-60,l),
(63,-120,l),
(503,-120,l)
);
}
);
width = 566;
}
);
metricLeft = "=h*1.25";
metricRight = "=h*1.25";
unicode = 95;
},
{
glyphname = parenleft;
kernLeft = parenleft;
kernRight = parenleft;
lastChange = "2025-07-07 16:04:43 +0000";
layers = (
{
hints = (
{
name = _corner.ROUND;
origin = (0,3);
scale = (0.3,0.3);
type = Corner;
},
{
name = _corner.ROUND;
options = 2;
origin = (0,4);
scale = (-0.3,0.3);
type = Corner;
},
{
name = _corner.ROUND;
origin = (0,7);
type = Corner;
},
{
name = _corner.ROUND;
origin = (0,0);
type = Corner;
}
);
layerId = m01;
shapes = (
{
closed = 1;
nodes = (
(25,-150,l),
(175,-150,l),
(175,-95,l),
(135,-95,l),
(135,595,l),
(175,595,l),
(175,650,l),
(25,650,l)
);
}
);
width = 202;
},
{
hints = (
{
name = _corner.ROUND;
origin = (0,3);
scale = (0.5,0.5);
type = Corner;
},
{
name = _corner.ROUND;
options = 2;
origin = (0,4);
scale = (-0.5,0.5);
type = Corner;
},
{
name = _corner.ROUND;
origin = (0,7);
type = Corner;
},
{
name = _corner.ROUND;
origin = (0,0);
type = Corner;
}
);
layerId = m002;
shapes = (
{
closed = 1;
nodes = (
(50,-150,l),
(200,-150,l),
(200,-95,l),
(120,-95,l),
(120,595,l),
(200,595,l),
(200,650,l),
(50,650,l)
);
}
);
width = 250;
}
);
metricLeft = "=H";
metricRight = "=H";
unicode = 40;
},
{
glyphname = braceleft;
kernLeft = braceleft;
kernRight = braceleft;
lastChange = "2025-07-07 16:11:53 +0000";
layers = (
{
hints = (
{
name = _corner.ROUND;
origin = (0,2);
type = Corner;
},
{
name = _corner.ROUND;
origin = (0,5);
scale = (0.3,0.3);
type = Corner;
},
{
name = _corner.ROUND;
options = 2;
origin = (0,8);
scale = (-0.3,0.3);
type = Corner;
},
{
name = _corner.ROUND;
origin = (0,11);
type = Corner;
},
{
name = _segment.DOUBLECUT;
origin = (0,1);
scale = (1,-1);
type = Segment;
},
{
name = _segment.DOUBLECUT;
origin = (0,7);
type = Segment;
}
);
layerId = m01;
shapes = (
{
closed = 1;
nodes = (
(91,413,l),
(91,88,l),
(91,-150,l),
(241,-150,l),
(241,-95,l),
(201,-95,l),
(201,158,l),
(201,343,l),
(201,595,l),
(241,595,l),
(241,650,l),
(91,650,l)
);
}
);
width = 268;
},
{
hints = (
{
name = _corner.ROUND;
origin = (0,2);
scale = (0.8,0.8);
type = Corner;
},
{
name = _corner.ROUND;
origin = (0,5);
scale = (0.3,0.3);
type = Corner;
},
{
name = _corner.ROUND;
options = 2;
origin = (0,8);
scale = (-0.3,0.3);
type = Corner;
},
{
name = _corner.ROUND;
origin = (0,11);
scale = (0.8,0.8);
type = Corner;
},
{
name = _segment.DOUBLECUT;
origin = (0,1);
scale = (0.8,-0.8);
type = Segment;
},
{
name = _segment.DOUBLECUT;
origin = (0,7);
scale = (0.8,0.8);
type = Segment;
}
);
layerId = m002;
shapes = (
{
closed = 1;
nodes = (
(103,413,l),
(103,88,l),
(103,-150,l),
(213,-150,l),
(213,-95,l),
(173,-95,l),
(173,158,l),
(173,343,l),
(173,595,l),
(213,595,l),
(213,650,l),
(103,650,l)
);
}
);
width = 265;
}
);
metricLeft = "=H";
metricRight = "=H";
unicode = 123;
},
{
glyphname = bracketleft;
kernLeft = bracketleft;
kernRight = bracketleft;
lastChange = "2025-07-07 16:06:25 +0000";
layers = (
{
layerId = m01;
shapes = (
{
closed = 1;
nodes = (
(25,-150,l),
(175,-150,l),
(175,-95,l),
(135,-95,l),
(135,595,l),
(175,595,l),
(175,650,l),
(25,650,l)
);
}
);
width = 200;
},
{
layerId = m002;
shapes = (
{
closed = 1;
nodes = (
(50,-150,l),
(160,-150,l),
(160,-95,l),
(120,-95,l),
(120,595,l),
(160,595,l),
(160,650,l),
(50,650,l)
);
}
);
width = 210;
}
);
metricLeft = "=H";
metricRight = "=H";
unicode = 91;
},
{
glyphname = guilsinglleft;
kernLeft = guillemetleft;
kernRight = guillemetleft;
lastChange = "2025-07-07 16:33:58 +0000";
layers = (
{
layerId = m01;
shapes = (
{
closed = 1;
nodes = (
(22,195,l),
(152,315,l),
(152,425,l),
(22,305,l)
);
},
{
closed = 1;
nodes = (
(152,75,l),
(152,185,l),
(22,305,l),
(22,195,l)
);
}
);
width = 174;
},
{
layerId = m002;
shapes = (
{
closed = 1;
nodes = (
(44,220,l),
(174,340,l),
(174,400,l),
(44,280,l)
);
},
{
closed = 1;
nodes = (
(174,100,l),
(174,160,l),
(44,280,l),
(44,220,l)
);
}
);
width = 218;
}
);
metricLeft = "=o";
metricRight = "=o";
unicode = 8249;
},
{
glyphname = quotesingle;
kernLeft = quotesingle;
kernRight = quotesingle;
lastChange = "2025-07-07 16:13:08 +0000";
layers = (
{
layerId = m01;
shapes = (
{
closed = 1;
nodes = (
(22,430,l),
(112,430,l),
(112,650,l),
(22,650,l)
);
}
);
width = 134;
},
{
layerId = m002;
shapes = (
{
closed = 1;
nodes = (
(44,430,l),
(104,430,l),
(104,650,l),
(44,650,l)
);
}
);
width = 148;
}
);
metricLeft = "=o";
metricRight = "=o";
unicode = 39;
},
